<svg id="Capa_1" enable-background="new 0 0 512 512" height="512" viewBox="0 0 512 512" width="512" xmlns="http://www.w3.org/2000/svg"><g><g><path d="m422 176h-332l-80 120v206h160v-206h332z" fill="#ff7b79"/><path d="m502 296v206h-332v-206z" fill="#eefaff"/><path d="m256 339h160v120h-160z" fill="#ff7b79"/><path d="m210 10-40 40 40 40h-120v-80z" fill="#ff7b79"/><path d="m90 342 80 160h-160z" fill="#8690a6"/></g><g><path d="m416 329h-160c-5.523 0-10 4.477-10 10v120c0 5.523 4.477 10 10 10h160c5.523 0 10-4.477 10-10v-120c0-5.523-4.477-10-10-10zm-10 120h-140v-100h140z"/><path d="m316 409h10v10c0 5.523 4.477 10 10 10s10-4.477 10-10v-10h10c5.523 0 10-4.477 10-10s-4.477-10-10-10h-10v-10c0-5.523-4.477-10-10-10s-10 4.477-10 10v10h-10c-5.523 0-10 4.477-10 10s4.477 10 10 10z"/><circle cx="266" cy="176" r="10"/><path d="m510.28 290.392-79.96-119.939c-1.854-2.782-4.977-4.453-8.32-4.453h-111c-5.523 0-10 4.477-10 10s4.477 10 10 10h105.648l66.667 100h-307.963l-66.667-100h112.315c5.523 0 10-4.477 10-10s-4.477-10-10-10h-121v-66h110c4.044 0 7.691-2.437 9.239-6.173s.692-8.038-2.167-10.898l-32.93-32.929 32.929-32.929c2.86-2.86 3.715-7.161 2.167-10.898s-5.194-6.173-9.238-6.173h-120c-5.523 0-10 4.477-10 10v162.973l-78.32 117.48c-1.096 1.643-1.68 3.573-1.68 5.547v206c0 5.471 4.485 10 10 10h492c5.523 0 10-4.477 10-10v-206c0-2.031-.651-4.036-1.72-5.608zm-410.28-270.392h85.858l-22.929 22.929c-3.905 3.905-3.905 10.237 0 14.143l22.929 22.928h-85.858zm-10 174.028 70 105v160.611l-61.056-122.111c-1.694-3.388-5.156-5.528-8.944-5.528s-7.25 2.14-8.944 5.528l-61.056 122.111v-160.611zm63.82 297.972h-127.64l63.82-127.639zm26.18 0v-186h312v186z"/></g></g></svg>