<svg id="Capa_1" enable-background="new 0 0 512.006 512.006" height="512" viewBox="0 0 512.006 512.006" width="512" xmlns="http://www.w3.org/2000/svg"><g><g><g><path d="m482.006 96.003c-157.481 0-313.802 14.552-452.03 39.68l-3.54.64c-10.87 1.97-18.08 12.39-16.11 23.25 1.94 10.646 12.087 18.064 23.25 16.11 19.18-2.632 201.007-39.68 448.43-39.68 11.04 0 20-8.96 20-20s-8.96-20-20-20z" fill="#ffda8f"/></g><g fill="#ff7b79"><path d="m335.996 96.023c-.35.75-8.91 19.26-19.46 45.27-17.52 43.19-40.53 107.09-40.53 144.71 0 60.75 26.86 70 60 70s60-9.25 60-70c0-38.27-23.81-103.73-41.43-146.93-10.14-24.84-18.22-42.32-18.56-43.05 2.324 2.822 16.345 21.023 31.57 42.43 41.28 58.08 108.42 162.53 108.42 227.55 0 93.89-80 110-140 110-40 0-140-16.11-140-110 0-63.6 64.24-164.93 105.69-223.69 16.13-22.862 31.722-43.159 34.3-46.29z"/><path d="m376.006 36.003c-22.09 0-40 17.91-40 40 0-22.09-17.91-40-40-40h-20v20c0 22.09 17.91 40 40 40h40c22.09 0 40-17.91 40-40v-20z"/></g></g><g><circle cx="153.006" cy="117.003" r="10"/><path d="m29.986 186.003c3.92 0 6.61-.766 8.928-1.131 74.478-13.534 157.927-24.179 242.576-30.98-46.079 67.528-95.484 153.584-95.484 212.112 0 80.658 72.259 120 150 120 86.14 0 150-33.14 150-120 0-65.343-62.547-164.368-99.744-218.308 29.57-1.072 64.063-1.692 95.744-1.692 16.542 0 30-13.458 30-30s-13.458-30-30-30c-28.317 0-58.301.501-87.144 1.42 6.962-8.593 11.144-19.525 11.144-31.42v-20c0-5.523-4.478-10-10-10h-20c-16.339 0-30.87 7.878-40 20.035-9.13-12.156-23.661-20.035-40-20.035h-20c-5.522 0-10 4.477-10 10v20c0 14.951 6.604 28.38 17.039 37.55-28.857 2.222-57.784 4.912-86.456 8.05-5.49.601-9.453 5.539-8.852 11.028.561 5.121 4.893 8.913 9.928 8.913.363 0 .731-.02 1.101-.061 37.419-4.096 75.275-7.418 112.836-9.927-4.492 6.058-9.679 13.166-15.343 21.132-90.882 6.76-181 17.982-260.934 32.507-2.86.486-3.834.807-5.338.807-4.823 0-8.954-3.458-9.821-8.215-.986-5.439 2.626-10.641 8.049-11.625l3.55-.642c25.158-4.574 51.423-8.858 78.064-12.732 5.465-.795 9.252-5.87 8.457-11.335-.795-5.466-5.875-9.251-11.335-8.457-26.875 3.908-53.374 8.23-78.753 12.844l-3.545.641c-16.311 2.956-27.127 18.558-24.165 34.882 2.601 14.278 15.007 24.639 29.498 24.639zm293.475-35.134c8.155-.519 16.349-.999 24.517-1.436 24.552 61.213 38.028 109.549 38.028 136.57 0 55.485-22.645 60-50 60s-50-4.515-50-60c0-26.778 13.276-74.621 37.455-135.134zm8.435-20.558c1.453-3.452 2.833-6.692 4.109-9.652 1.219 2.828 2.534 5.909 3.916 9.187-2.676.151-5.349.306-8.025.465zm134.11 235.692c0 66.355-43.738 100-130 100-65.36 0-130-30.629-130-100 0-53.963 50.087-138.653 88.569-195.752-14.931 40.443-28.569 85.629-28.569 115.752 0 59.275 24.214 80 70 80 45.813 0 70-20.754 70-80 0-30.072-13.562-75.115-28.575-115.771 39.151 58.06 88.575 142.011 88.575 195.771zm26-250c0 5.514-4.486 10-10 10-36.659 0-77.077.824-109.441 2.218-5.328-7.428-10.12-13.949-14.154-19.359 39.037-1.829 83.034-2.86 123.594-2.86 5.515.001 10.001 4.487 10.001 10.001zm-116-70h10v10c0 16.542-13.458 30-30 30h-10v-10c0-16.542 13.458-30 30-30zm-90 0h10c16.542 0 30 13.458 30 30v10h-10c-16.542 0-30-13.458-30-30z"/></g></g></svg>