<svg id="Capa_1" enable-background="new 0 0 512 512" height="512" viewBox="0 0 512 512" width="512" xmlns="http://www.w3.org/2000/svg"><g><g><path d="m502 336.004v-80c-11.05 0-20-8.95-20-20h-452c0 11.05-8.95 20-20 20v80c11.05 0 20 8.95 20 20s-8.95 20-20 20v80c11.05 0 20 8.95 20 20h452c0-11.05 8.95-20 20-20v-80c-11.05 0-20-8.95-20-20s8.95-20 20-20z" fill="#eefaff"/><path d="m76 256.004h200v40h-200z" fill="#ff7b79"/><path d="m276 236.004v20h-200v-20c0-11.05 8.95-20 20-20h60v-4.98c0-29.25-11.54-56.52-28.71-80.2-10.55-14.56-13.57-32.43-9.64-48.82 6.4-26.67 30.64-46.47 59.35-46 29.74.49 52.8 22.3 57.82 47.99 3.77 19.26-1.76 37.21-12.86 50.34-18.34 21.7-25.96 50.52-25.96 78.93v2.74h60c11.05 0 20 8.95 20 20zm-80-140c0-11.05-8.95-20-20-20s-20 8.95-20 20 8.95 20 20 20 20-8.95 20-20z" fill="#ffda8f"/><ellipse cx="176" cy="376.004" fill="#ff7b79" rx="100" ry="40"/></g><g><path d="m206 96.004c0-16.542-13.458-30-30-30s-30 13.458-30 30 13.458 30 30 30 30-13.458 30-30zm-40 0c0-5.514 4.486-10 10-10s10 4.486 10 10-4.486 10-10 10-10-4.486-10-10z"/><path d="m286 376.004c0-15.05-12.634-28.392-35.574-37.568-20.041-8.017-46.473-12.432-74.426-12.432s-54.385 4.415-74.426 12.432c-22.94 9.177-35.574 22.518-35.574 37.568s12.634 28.392 35.574 37.568c20.041 8.017 46.473 12.432 74.426 12.432s54.385-4.415 74.426-12.432c22.94-9.176 35.574-22.518 35.574-37.568zm-110 30c-25.47 0-49.263-3.907-66.997-11.001-13.974-5.59-23.003-13.047-23.003-18.999s9.029-13.409 23.003-18.999c17.734-7.094 41.527-11.001 66.997-11.001s49.263 3.907 66.997 11.001c13.974 5.59 23.003 13.047 23.003 18.999s-9.029 13.409-23.003 18.999c-17.734 7.095-41.527 11.001-66.997 11.001z"/><path d="m336 306.004h106c5.522 0 10-4.477 10-10s-4.478-10-10-10h-106c-5.522 0-10 4.477-10 10s4.478 10 10 10z"/><path d="m336 366.004h106c5.522 0 10-4.477 10-10s-4.478-10-10-10h-106c-5.522 0-10 4.477-10 10s4.478 10 10 10z"/><path d="m336 426.004h106c5.522 0 10-4.477 10-10s-4.478-10-10-10h-106c-5.522 0-10 4.477-10 10s4.478 10 10 10z"/><circle cx="256" cy="476.004" r="10"/><path d="m502 246.004c-5.514 0-10-4.486-10-10 0-5.523-4.478-10-10-10h-197.72c-4.128-11.639-15.243-20-28.28-20h-49.819c1.294-25.792 9.493-48.741 23.416-65.214 13.69-16.194 19.171-37.596 15.038-58.714-6.243-31.948-34.619-55.529-67.471-56.071-33.289-.557-61.732 22.386-69.238 53.667-4.748 19.801-.642 40.584 11.269 57.022 16.587 22.877 25.549 46.167 26.683 69.31h-49.878c-13.036 0-24.152 8.361-28.28 20h-37.72c-5.522 0-10 4.477-10 10 0 5.514-4.486 10-10 10-5.522 0-10 4.477-10 10v80c0 5.523 4.478 10 10 10 5.514 0 10 4.486 10 10s-4.486 10-10 10c-5.522 0-10 4.477-10 10v80c0 5.523 4.478 10 10 10 5.514 0 10 4.486 10 10 0 5.523 4.478 10 10 10h181c5.522 0 10-4.477 10-10s-4.478-10-10-10h-172.714c-3.018-8.512-9.774-15.269-18.286-18.287v-63.427c11.641-4.127 20-15.249 20-28.287s-8.359-24.159-20-28.287v-63.427c8.512-3.018 15.269-9.775 18.286-18.287h27.714v50c0 5.523 4.478 10 10 10h200c5.522 0 10-4.477 10-10v-50h187.714c3.018 8.512 9.774 15.269 18.286 18.287v63.427c-11.641 4.127-20 15.249-20 28.287s8.359 24.159 20 28.287v63.427c-8.512 3.018-15.269 9.775-18.286 18.287h-172.714c-5.522 0-10 4.477-10 10s4.478 10 10 10h181c5.522 0 10-4.477 10-10 0-5.514 4.486-10 10-10 5.522 0 10-4.477 10-10v-80c0-5.523-4.478-10-10-10-5.514 0-10-4.486-10-10s4.486-10 10-10c5.522 0 10-4.477 10-10v-80c0-5.523-4.478-10-10-10zm-406-20h60c5.522 0 10-4.477 10-10v-4.98c0-29.096-10.3-58.054-30.612-86.067-8.478-11.7-11.398-26.506-8.014-40.619 5.422-22.593 26.222-38.717 49.461-38.335 26.59.438 44.36 20.409 48.172 39.913 3.005 15.355-.789 30.258-10.685 41.964-18.263 21.609-28.322 51.933-28.322 85.384v2.74c0 5.523 4.478 10 10 10h60c5.514 0 10 4.486 10 10v10h-180v-10c0-5.514 4.486-10 10-10zm-10 60v-20h180v20z"/></g></g></svg>