<svg id="Capa_1" enable-background="new 0 0 512.021 512.021" height="512" viewBox="0 0 512.021 512.021" width="512" xmlns="http://www.w3.org/2000/svg"><g><g><path d="m416.011 170c0 45.86-19.29 87.21-50.21 116.38l-109.79 103.62-109.79-103.62c-30.92-29.17-50.21-70.52-50.21-116.38 0-88.37 71.63-160 160-160s160 71.63 160 160z" fill="#ff7b79"/><path d="m256.011 50c66.17 0 120 53.83 120 120s-53.83 120-120 120-120-53.83-120-120 53.83-120 120-120z" fill="#ffda8f"/><path d="m428.011 466c8.84 6.62 10.63 19.16 4 28-3.93 5.24-9.94 8-16.02 8-4.17 0-8.38-1.3-11.98-4l-68-51-68 51c-7.11 5.33-16.89 5.33-24 0l-68-51-68 51c-8.85 6.66-21.37 4.83-28-4-6.63-8.84-4.84-21.38 4-28l80-60c7.11-5.33 16.89-5.33 24 0l68 51 68-51c7.11-5.33 16.89-5.33 24 0z" fill="#a7e8a6"/><g fill="#fce8d0"><path d="m316.011 162.25v40.11c0 15.27-12.37 27.64-27.64 27.64-6.32 0-24.43-4.1-17.03-28.55 2.49-8.25 2.79-17.1.06-25.27l-6.62-19.86c-4.31-12.95 5.33-26.32 18.98-26.32 17.81 0 32.25 14.44 32.25 32.25z"/><path d="m216.261 110c13.65 0 23.29 13.37 18.98 26.32l-6.62 19.86c-2.73 8.17-2.43 17.02.06 25.27 7.4 24.45-10.71 28.55-17.03 28.55-15.27 0-27.64-12.37-27.64-27.64v-40.11c0-17.81 14.44-32.25 32.25-32.25z"/></g></g><g><circle cx="368.011" cy="55.001" r="10"/><path d="m216.261 100c-23.297 0-42.25 18.953-42.25 42.25v40.11c0 20.755 16.885 37.64 37.64 37.64 7.361 0 17.418-2.954 23.569-11.243 3.945-5.315 7.673-14.87 3.034-30.196-2.04-6.757-2.091-13.4-.147-19.219l6.622-19.864c6.473-19.449-7.974-39.478-28.468-39.478zm9.493 33.158-6.618 19.853c-3.26 9.756-3.27 20.589-.027 31.336 1.741 5.753 1.759 10.189.05 12.491-1.915 2.581-6.169 3.162-7.509 3.162-9.727 0-17.64-7.914-17.64-17.64v-40.11c0-12.269 9.981-22.25 22.25-22.25 6.827 0 11.651 6.675 9.494 13.158z"/><path d="m283.761 120c-20.495 0-34.942 20.029-28.467 39.482l6.623 19.868c1.941 5.811 1.89 12.454-.147 19.204-4.641 15.334-.913 24.889 3.032 30.204 6.151 8.288 16.208 11.242 23.569 11.242 20.755 0 37.64-16.885 37.64-37.64v-40.11c0-23.297-18.953-42.25-42.25-42.25zm22.25 82.36c0 9.727-7.913 17.64-17.64 17.64-1.339 0-5.594-.581-7.509-3.162-1.709-2.302-1.691-6.738.053-12.499 3.241-10.739 3.231-21.572-.027-31.321l-6.619-19.856c-2.158-6.484 2.659-13.162 9.492-13.162 12.269 0 22.25 9.981 22.25 22.25z"/><path d="m256.011 40c-71.682 0-130 58.318-130 130s58.318 130 130 130 130-58.318 130-130-58.318-130-130-130zm0 240c-60.654 0-110-49.346-110-110s49.346-110 110-110 110 49.346 110 110-49.346 110-110 110z"/><path d="m440.011 500c9.944-13.259 7.276-32.057-6-42l-80.001-60.001c-10.598-7.944-25.4-7.944-35.999.001l-62 46.5-62.001-46.501c-10.598-7.944-25.4-7.944-35.999.001l-79.994 59.996c-13.272 9.94-15.961 28.731-6.002 42.009 9.974 13.284 28.76 15.957 41.997 5.996l62-46.5 62.001 46.501c10.598 7.944 25.4 7.944 35.999-.001l62-46.5 62 46.5c13.421 10.067 32.204 7.059 41.999-6.001zm-98-61c-3.556-2.667-8.444-2.667-12 0l-67.999 50.999c-3.534 2.65-8.47 2.649-12.001.001l-68-51c-3.556-2.667-8.444-2.667-12 0l-68.013 51.01c-4.43 3.333-10.672 2.405-13.987-2.01-3.309-4.412-2.439-10.676 2-14l79.999-59.999c3.532-2.648 8.467-2.651 12.001-.001l68 51c3.556 2.667 8.444 2.667 12 0l67.999-50.999c3.534-2.649 8.47-2.649 12.001-.001l80.006 60.004c4.388 3.286 5.333 9.544 1.994 13.996-3.349 4.465-9.621 5.285-14 2z"/><path d="m336.132 20.027c-24.478-13.102-52.183-20.027-80.121-20.027-93.738 0-170 76.262-170 170 0 47.316 19.428 91.654 53.346 123.652l109.79 103.62c1.927 1.818 4.395 2.728 6.864 2.728s4.937-.909 6.864-2.728l109.789-103.619c33.876-31.959 53.348-76.276 53.348-123.654 0-29.501-7.677-58.567-22.2-84.055-2.734-4.798-8.84-6.473-13.639-3.738-4.799 2.734-6.472 8.841-3.738 13.639 12.808 22.477 19.577 48.118 19.577 74.154 0 41.721-16.717 80.469-47.074 109.107l-102.927 97.144-102.928-97.144c-30.355-28.637-47.072-67.385-47.072-109.106 0-82.71 67.29-150 150-150 24.656 0 49.098 6.107 70.683 17.66 4.871 2.608 10.93.771 13.536-4.097 2.606-4.87.771-10.93-4.098-13.536z"/></g></g></svg>