<svg id="Capa_1" enable-background="new 0 0 512 512" height="512" viewBox="0 0 512 512" width="512" xmlns="http://www.w3.org/2000/svg"><g><g><path d="m256 10.001c-44.18 0-80 35.82-80 80 0 20.79 7.93 39.73 20.93 53.95h118.14c13-14.22 20.93-33.16 20.93-53.95 0-44.18-35.82-80-80-80z" fill="#eefaff"/><path d="m96 256.001v20c0 24.4 5.46 47.52 15.23 68.21l159.77 56.79 100.43-86.89c2.99-12.22 4.57-24.98 4.57-38.11v-20c-15.566 0-264.438 0-280 0z" fill="#ff7b79"/><path d="m502 70.001v40h-86c-11.05 0-20-8.95-20-20s8.95-20 20-20z" fill="#ff7b79"/><path d="m271 386.001h1.87c15.91 0 31.17-6.32 42.42-17.57l49.79-49.79c9.19-9.19 24.031-9.164 33.21-.06 9.251 9.171 9.285 24.125.07 33.34l-60.65 60.65c-15 15-35.35 23.43-56.57 23.43h-134.44c-9.05 0-17.73 3.6-24.14 10l-7.72 7.72-56.56-56.56 62.38-62.38c12.02-12.02 28.33-18.78 45.34-18.78 16.36 0 30.88 7.86 40 20h65c13.81 0 25 11.19 25 25s-11.19 25-25 25z" fill="#bf978f"/><g fill="#ffda8f"><path d="m316 150.001v40c0 11.05-8.95 20-20 20s-20-8.95-20-20-8.95-20-20-20-20 8.95-20 20v66h-40v-106c0-10.999 8.897-20 20-20h80c11.087 0 20 8.984 20 20z"/><path d="m126.56 465.441-36.56 36.56-80-80 36.56-36.56c11.963 11.962 69.886 69.885 80 80z"/></g></g><g><path d="m502 60.001h-86c-13.036 0-24.152 8.361-28.28 20h-42.28c-2.963-26.834-17.754-50.924-40.843-65.762-4.647-2.986-10.833-1.639-13.818 3.006-2.986 4.646-1.641 10.833 3.006 13.819 20.172 12.964 32.215 34.996 32.215 58.937 0 13.235-3.714 26.033-10.617 37.07-5.278-4.462-12.073-7.07-19.383-7.07h-80c-7.31 0-14.103 2.607-19.382 7.072-6.903-11.038-10.618-23.837-10.618-37.072 0-23.94 12.043-45.973 32.216-58.937 4.646-2.986 5.992-9.173 3.006-13.819-2.985-4.646-9.173-5.993-13.818-3.006-25.926 16.661-41.404 44.983-41.404 75.762 0 20.804 7.145 40.768 20.193 56.784-.115 1.068-.193 2.139-.193 3.216v96h-90c-5.522 0-10 4.477-10 10v20c0 22.956 4.482 45.119 13.305 65.993l-41.025 41.024-4.649-4.649c-3.906-3.905-10.236-3.905-14.143 0l-36.56 36.56c-3.905 3.905-3.905 10.237 0 14.142l80 80c3.905 3.903 10.237 3.904 14.143 0l36.56-36.56c3.905-3.905 3.905-10.237 0-14.142l-4.649-4.649.643-.643c4.57-4.563 10.635-7.077 17.075-7.077h134.44c24.042 0 46.644-9.361 63.642-26.359l60.65-60.65c13.127-13.129 13.108-34.417-.1-47.511-5.841-5.793-13.447-9.075-21.294-9.627 1.301-8.525 1.962-17.174 1.962-25.853v-20c0-5.523-4.478-10-10-10h-130v-56c0-5.514 4.486-10 10-10s10 4.486 10 10c0 16.542 13.458 30 30 30s30-13.458 30-30v-40c0-1.076-.079-2.148-.193-3.216 10.94-13.429 17.713-29.635 19.618-46.784h42.296c4.128 11.639 15.243 20 28.28 20h86c5.522 0 10-4.477 10-10v-40c-.001-5.522-4.478-9.999-10.001-9.999zm-412 427.858-65.857-65.858 22.417-22.418c21.816 21.816 43.703 43.704 65.857 65.858zm301.289-143.01-60.65 60.65c-13.22 13.221-30.8 20.501-49.499 20.501h-134.44c-11.776 0-22.859 4.59-31.212 12.929l-.648.648-42.417-42.417 55.309-55.31c10.221-10.221 23.812-15.851 38.269-15.851 12.697 0 24.363 5.834 32.005 16.006 1.889 2.514 4.851 3.994 7.995 3.994h65c8.271 0 15 6.729 15 15s-6.729 15-15 15h-55c-5.522 0-10 4.477-10 10s4.478 10 10 10h56.87c18.696 0 36.272-7.28 49.491-20.499l49.789-49.79c1.074-1.074 2.305-1.953 3.652-2.609 5.154-2.508 11.363-1.472 15.446 2.578 5.318 5.275 5.347 13.866.04 19.17zm-25.289-68.848c0 10.709-1.135 21.361-3.368 31.725-1.644 1.141-3.195 2.417-4.624 3.844 0 0-51.32 51.256-52.11 51.954.06-.834.101-1.673.101-2.523 0-19.299-15.701-35-35-35h-60.273c-11.378-12.771-27.411-20-44.727-20-19.261 0-37.387 7.314-51.247 20.6-5.805-16.153-8.753-33.112-8.753-50.6v-10h260v10zm-60-86c0 5.514-4.486 10-10 10s-10-4.486-10-10c0-16.542-13.458-30-30-30s-30 13.458-30 30v56h-20v-96c0-5.495 4.395-10 10-10h80c5.555 0 10 4.447 10 10zm186-90h-76c-5.514 0-10-4.486-10-10s4.486-10 10-10h76z"/><circle cx="256" cy="10.001" r="10"/></g></g></svg>