<svg id="Capa_1" enable-background="new 0 0 512 512" height="512" viewBox="0 0 512 512" width="512" xmlns="http://www.w3.org/2000/svg"><g><g><path d="m176 342v160h160v-160z" fill="#ff7b79"/><path d="m500.3 151.34c1.12 6.12 1.7 12.35 1.7 18.66 0 0-28.86-40-62-40s-62 40-62 40-28.86-40-62-40-60 40-60 40-26.86-40-60-40-62 40-62 40-28.86-40-62-40-62 40-62 40c0-88.37 113.45-160 246-160 123.08 0 229.7 61.77 244.3 141.34z" fill="#91def5"/><path d="m296 402v40h-20v20h-40v-20h-20v-40h20v-20h40v20z" fill="#eefaff"/></g><g><path d="m511.998 169.814c-.011-6.76-.636-13.58-1.862-20.279-6.556-35.731-29.852-68.665-67.37-95.239-4.508-3.192-10.748-2.126-13.94 2.38-3.192 4.507-2.126 10.749 2.38 13.94 28.361 20.089 47.453 43.862 55.89 69.39-12.465-10.31-28.998-20.006-47.096-20.006-26.819 0-50.202 21.292-62 34.323-11.798-13.031-35.181-34.323-62-34.323-26.468 0-48.586 20.637-60 33.798-11.414-13.161-33.532-33.798-60-33.798-26.819 0-50.202 21.292-62 34.323-11.798-13.031-35.181-34.323-62-34.323-18.059 0-34.562 9.656-47.017 19.941 22.603-67.489 119.231-119.941 231.017-119.941 33.54 0 66.19 4.624 97.045 13.744 5.294 1.568 10.859-1.458 12.424-6.755 1.565-5.296-1.459-10.859-6.755-12.424-32.696-9.665-67.254-14.565-102.714-14.565-113.002 0-255.79 60.092-255.996 169.785-.056 2.517.889 5.178 2.801 7.159l163.195 169.094v155.962c0 5.523 4.477 10 10 10h160c5.523 0 10-4.477 10-10v-155.962l163.195-169.094c1.701-1.763 2.806-4.214 2.803-7.111 0-.006 0-.012 0-.019zm-71.998-29.814c18.885 0 38.383 17.639 48.681 29.401l-156.927 162.599h-19.908l74.772-156.839c7.739-10.417 30.899-35.161 53.382-35.161zm-124 0c19.927 0 40.543 19.643 50.305 31.293l-76.616 160.707h-23.689v-158.824c8.19-11.1 28.843-33.176 50-33.176zm-120 0c23.184 0 44.047 25.321 50 33.235v158.765h-23.689l-76.622-160.719c9.729-11.655 30.29-31.281 50.311-31.281zm-124 0c22.377 0 45.62 24.766 53.387 35.171l74.767 156.829h-19.908l-156.939-162.612c10.265-11.764 29.718-29.388 48.693-29.388zm254 352h-140v-140h140z"/><path d="m296 392h-10v-10c0-5.523-4.477-10-10-10h-40c-5.523 0-10 4.477-10 10v10h-10c-5.523 0-10 4.477-10 10v40c0 5.523 4.477 10 10 10h10v10c0 5.523 4.477 10 10 10h40c5.523 0 10-4.477 10-10v-10h10c5.523 0 10-4.477 10-10v-40c0-5.523-4.477-10-10-10zm-10 40h-10c-5.523 0-10 4.477-10 10v10h-20v-10c0-5.523-4.477-10-10-10h-10v-20h10c5.523 0 10-4.477 10-10v-10h20v10c0 5.523 4.477 10 10 10h10z"/><circle cx="398" cy="40" r="10"/></g></g></svg>