<svg id="Capa_1" enable-background="new 0 0 511.92 511.92" height="512" viewBox="0 0 511.92 511.92" width="512" xmlns="http://www.w3.org/2000/svg"><g><g><path d="m379.207 105.69 16.71 100.27h-20v40h-40v-40h-20l16.71-100.27c1.9-11.39 11.75-19.73 23.29-19.73s21.39 8.34 23.29 19.73z" fill="#ff7b79"/><circle cx="355.917" cy="45.96" fill="#fce8d0" r="20"/><path d="m275.917 185.96v60h-40v-60c0-11.05 8.95-20 20-20s20 8.95 20 20z" fill="#ffda8f"/><circle cx="255.917" cy="125.96" fill="#fce8d0" r="20"/><path d="m482.377 197.44c-12.77-2.21-24.92 6.34-27.17 19.1l-12.23 69.34c-2.76 15.67-11.64 29.6-24.67 38.73l-.62.4c10.55-8.11 12.93-23.15 5.23-34.15-7.92-11.31-23.51-14.06-34.82-6.14-71.23 45.705-55.875 35.852-58.1 37.28-14.44-4.72-30.84-2.82-44.24 6.56-9.23 6.46-16.94 12.32-23.57 33.79-4.56 14.79-6.27 30.31-6.27 45.79 0-15.48-1.71-31-6.27-45.79-6.63-21.47-14.34-27.33-23.57-33.79-13.4-9.38-29.8-11.28-44.24-6.56-2.199-1.413 13.04 8.379-58.02-37.28-11.31-7.92-26.89-5.17-34.81 6.14-7.68 10.96-5.33 25.94 5.11 34.06l-.5-.31c-13.04-9.13-21.91-23.06-24.68-38.73l-12.22-69.34c-2.25-12.76-14.4-21.31-27.18-19.1-12.84 2.21-21.44 14.44-19.17 27.27l14.89 84.46c3.68 20.9 15.52 39.48 32.9 51.64l100.7 67.18c10.69 7.48 17.06 19.71 17.06 32.77v25.2h160v-25.2c0-13.06 6.37-25.29 17.06-32.77l100.79-67.18c17.38-12.16 29.21-30.74 32.9-51.64l14.89-84.46c2.26-12.83-6.34-25.06-19.18-27.27z" fill="#fce8d0"/><path d="m195.917 105.96v60h-20v80h-40v-80h-20v-60c0-11.05 8.95-20 20-20h40c11.05 0 20 8.95 20 20z" fill="#91def5"/><circle cx="155.917" cy="45.96" fill="#fce8d0" r="20"/></g><g><path d="m185.917 45.96c0-16.542-13.458-30-30-30s-30 13.458-30 30 13.458 30 30 30 30-13.458 30-30zm-30 10c-5.514 0-10-4.486-10-10s4.486-10 10-10 10 4.486 10 10-4.486 10-10 10z"/><path d="m285.917 125.96c0-16.542-13.458-30-30-30s-30 13.458-30 30 13.458 30 30 30 30-13.458 30-30zm-30 10c-5.514 0-10-4.486-10-10s4.486-10 10-10 10 4.486 10 10-4.486 10-10 10z"/><path d="m115.917 175.96h10v70c0 5.523 4.477 10 10 10h40c5.523 0 10-4.477 10-10v-70h10c5.523 0 10-4.477 10-10v-60c0-16.542-13.458-30-30-30h-40c-16.542 0-30 13.458-30 30v60c0 5.523 4.477 10 10 10zm10-70c0-5.514 4.486-10 10-10h40c5.514 0 10 4.486 10 10v50h-10c-5.523 0-10 4.477-10 10v70h-20v-70c0-5.523-4.477-10-10-10h-10z"/><path d="m385.917 45.96c0-16.542-13.458-30-30-30s-30 13.458-30 30 13.458 30 30 30 30-13.458 30-30zm-30 10c-5.514 0-10-4.486-10-10s4.486-10 10-10 10 4.486 10 10-4.486 10-10 10z"/><path d="m315.917 215.96h10v30c0 5.523 4.477 10 10 10h40c5.523 0 10-4.477 10-10v-30h10c2.939 0 5.73-1.293 7.63-3.536s2.717-5.208 2.233-8.108l-16.71-100.271c-2.714-16.273-16.658-28.084-33.154-28.084s-30.439 11.812-33.154 28.086l-16.71 100.27c-.483 2.9.333 5.865 2.233 8.108 1.902 2.242 4.692 3.535 7.632 3.535zm26.574-108.624c1.1-6.591 6.746-11.375 13.426-11.375s12.327 4.784 13.426 11.374l14.77 88.626h-8.196c-5.523 0-10 4.477-10 10v30h-20v-30c0-5.523-4.477-10-10-10h-8.196z"/><path d="m235.917 255.96h40c5.523 0 10-4.477 10-10v-60c0-16.542-13.458-30-30-30s-30 13.458-30 30v60c0 5.523 4.477 10 10 10zm10-70c0-5.514 4.486-10 10-10s10 4.486 10 10v50h-20z"/><circle cx="255.917" cy="425.96" r="10"/><path d="m484.082 187.587c-18.15-3.143-35.522 9.068-38.723 27.217 0 0-12.641 71.417-12.888 72.44-.429-.716-.877-1.425-1.363-2.12-11.095-15.845-32.898-19.693-48.746-8.597-67.028 43.019-51.606 33.12-53.962 34.633-16.722-4.037-34.109-.779-48.377 9.207-9.471 6.629-17.459 13.296-24.106 29.733-6.646-16.435-14.635-23.104-24.106-29.732-14.268-9.987-31.653-13.244-48.373-9.208-2.376-1.527 13.116 8.429-53.886-34.631-15.841-11.092-37.639-7.254-48.735 8.593-.489.698-.939 1.411-1.37 2.131-.248-1.026-.476-2.059-.662-3.108l-12.22-69.341c-3.2-18.148-20.571-30.354-38.724-27.219-18.304 3.15-30.56 20.558-27.322 38.861l14.889 84.458c4.17 23.683 17.316 44.316 37.016 58.1.061.042 100.783 67.238 100.783 67.238 7.96 5.61 12.709 14.768 12.709 24.518v25.2c0 5.523 4.477 10 10 10h160c5.523 0 10-4.477 10-10v-25.2c0-9.749 4.748-18.906 12.708-24.517 0 0 100.813-67.196 100.875-67.239 19.687-13.774 32.833-34.407 37.015-58.098l14.891-84.462c3.221-18.283-9.011-35.706-27.323-38.857zm7.627 35.387-14.89 84.458c-3.247 18.391-13.436 34.411-28.695 45.122 0 0-100.819 67.2-100.88 67.243-13.354 9.344-21.327 24.658-21.327 40.963v15.2h-60v-5c0-5.523-4.477-10-10-10s-10 4.477-10 10v5h-60v-15.2c0-16.306-7.973-31.619-21.327-40.963-.061-.042-100.788-67.242-100.788-67.242-15.05-10.565-25.507-27.004-28.697-45.121l-14.891-84.466c-1.304-7.371 3.622-14.4 11.027-15.674 7.327-1.271 14.336 3.66 15.627 10.982l12.221 69.345c3.59 20.311 16.318 37.501 29.257 45.488 70.349 44.677 45.927 29.167 51.258 32.553 4.672 2.968 10.848 1.572 13.803-3.08 2.961-4.662 1.582-10.842-3.08-13.803l-50.288-31.938c-6.112-4.941-7.379-13.771-2.842-20.245 4.756-6.792 14.09-8.44 20.884-3.684 71.482 45.941 56.169 36.099 58.375 37.518 2.525 1.612 5.641 2.007 8.486 1.075 12.087-3.952 24.99-2.039 35.399 5.248 7.792 5.454 13.948 9.762 19.748 28.543 1.675 5.432 3.004 11.239 3.951 17.261.775 4.93 5.028 8.403 9.866 8.403h4.018c4.837 0 9.091-3.473 9.866-8.403.947-6.021 2.276-11.829 3.95-17.256 5.801-18.786 11.956-23.094 19.75-28.548 10.409-7.286 23.312-9.199 35.399-5.248 2.846.932 5.957.538 8.481-1.072 2.185-1.402-13.048 8.375 58.462-37.522 6.79-4.754 16.137-3.108 20.892 3.684 4.55 6.499 3.267 15.332-2.878 20.273l-50.333 31.906c-4.665 2.957-6.049 9.135-3.093 13.8 2.957 4.666 9.135 6.05 13.8 3.093 42.136-26.712 51.56-32.68 51.825-32.867 15.317-10.732 25.538-26.779 28.78-45.183l12.23-69.34c1.292-7.323 8.302-12.253 15.625-10.981 7.387 1.27 12.329 8.297 11.029 15.678z"/></g></g></svg>