<svg id="Capa_1" enable-background="new 0 0 512.001 512.001" height="512" viewBox="0 0 512.001 512.001" width="512" xmlns="http://www.w3.org/2000/svg"><g><g><path d="m33.541 260.34-23.54-32.34 246.72-182.25c1.702 1.411 50.647 41.982 245.28 203.29l-25.33 30.96c-.492-.408-217.475-180.501-221.39-183.75-8.544 6.322-219.803 162.656-221.74 164.09z" fill="#ff7b79"/><path d="m436.001 246.24v244.76h-360v-262.08l179.28-132.67z" fill="#eefaff"/><path d="m436.001 91v102.52l-.4.49-59.87-49.62.27-.33v-53.06z" fill="#8690a6"/><path d="m379.291 310.73 16.71 100.27h-20v40h-40v-40h-20l16.71-100.27c1.9-11.39 11.75-19.73 23.29-19.73s21.39 8.34 23.29 19.73z" fill="#ff7b79"/><circle cx="356.001" cy="251" fill="#fce8d0" r="20"/><path d="m276.001 391v60h-40v-60c0-11.05 8.95-20 20-20s20 8.95 20 20z" fill="#ffda8f"/><circle cx="256.001" cy="331" fill="#fce8d0" r="20"/><path d="m196.001 311v60h-20v80h-40v-80h-20v-60c0-11.05 8.95-20 20-20h40c11.05 0 20 8.95 20 20z" fill="#91def5"/><circle cx="156.001" cy="251" fill="#fce8d0" r="20"/></g><g><circle cx="256.001" cy="491" r="10"/><path d="m186.001 251c0-16.542-13.458-30-30-30s-30 13.458-30 30 13.458 30 30 30 30-13.458 30-30zm-30 10c-5.514 0-10-4.486-10-10s4.486-10 10-10 10 4.486 10 10-4.486 10-10 10z"/><path d="m286.001 331c0-16.542-13.458-30-30-30s-30 13.458-30 30 13.458 30 30 30 30-13.458 30-30zm-30 10c-5.514 0-10-4.486-10-10s4.486-10 10-10 10 4.486 10 10-4.487 10-10 10z"/><path d="m136.001 461h40c5.523 0 10-4.477 10-10v-70h10c5.523 0 10-4.477 10-10v-60c0-16.542-13.458-30-30-30h-40c-16.542 0-30 13.458-30 30v60c0 5.523 4.477 10 10 10h10v70c0 5.523 4.477 10 10 10zm-10-150c0-5.514 4.486-10 10-10h40c5.514 0 10 4.486 10 10v50h-10c-5.523 0-10 4.477-10 10v70h-20v-70c0-5.523-4.477-10-10-10h-10z"/><path d="m386.001 251c0-16.542-13.458-30-30-30s-30 13.458-30 30 13.458 30 30 30 30-13.458 30-30zm-30 10c-5.514 0-10-4.486-10-10s4.486-10 10-10 10 4.486 10 10-4.487 10-10 10z"/><path d="m322.846 309.086-16.71 100.27c-.483 2.9.334 5.865 2.234 8.108 1.899 2.243 4.69 3.536 7.63 3.536h10v30c0 5.523 4.478 10 10 10h40c5.522 0 10-4.477 10-10v-30h10c2.939 0 5.73-1.293 7.63-3.536s2.718-5.208 2.234-8.108l-16.711-100.271c-2.714-16.274-16.657-28.085-33.152-28.085s-30.439 11.811-33.155 28.086zm33.155-8.086c6.68 0 12.326 4.784 13.426 11.374l14.769 88.626h-8.195c-5.522 0-10 4.477-10 10v30h-20v-30c0-5.523-4.478-10-10-10h-8.195l14.769-88.625c1.099-6.591 6.746-11.375 13.426-11.375z"/><path d="m226.001 391v60c0 5.523 4.477 10 10 10h40c5.522 0 10-4.477 10-10v-60c0-16.542-13.458-30-30-30s-30 13.458-30 30zm20 0c0-5.514 4.486-10 10-10s10 4.486 10 10v50h-20z"/><path d="m413.072 13.929c-3.905-3.905-10.236-3.905-14.142 0s-3.906 10.237-.001 14.142c1.615 1.615 1.615 4.243 0 5.858-9.412 9.413-9.412 24.729 0 34.142 3.904 3.904 10.235 3.907 14.142 0 3.906-3.905 3.906-10.237.001-14.142-1.615-1.615-1.615-4.243 0-5.858 9.412-9.413 9.412-24.728 0-34.142z"/><path d="m508.381 241.341-62.381-51.699v-98.642c0-5.523-4.478-10-10-10h-60c-5.522 0-10 4.477-10 10v32.336l-102.898-85.285c-3.542-2.934-8.625-3.076-12.323-.344l-246.72 182.25c-4.42 3.265-5.377 9.485-2.144 13.928l23.54 32.34c3.267 4.489 9.571 5.456 14.033 2.154l26.512-19.619v242.24c0 5.523 4.477 10 10 10h135c5.523 0 10-4.477 10-10s-4.477-10-10-10h-125v-247.04l168.927-125.007 171.074 141.987v230.06h-125c-5.522 0-10 4.477-10 10s4.478 10 10 10h135c5.522 0 10-4.477 10-10v-223.46l24.283 20.155c4.269 3.546 10.614 2.932 14.126-1.362l25.33-30.96c3.482-4.256 2.875-10.524-1.359-14.032zm-122.38-140.341h40v72.065l-40-33.153zm89.307 164.873c-.48-.416 5.933 4.921-213.641-177.318-3.524-2.926-8.618-3.095-12.335-.344-43.002 31.823-170.875 126.45-213.638 158.095l-11.765-16.163 232.437-171.698c12.071 10.005 209.795 173.88 231.603 191.955z"/></g></g></svg>