<svg id="Capa_1" enable-background="new 0 0 512 512" height="512" viewBox="0 0 512 512" width="512" xmlns="http://www.w3.org/2000/svg"><g><g><path d="m366 339h-220c-32.982 0-60 26.717-60 60v103h340v-103c0-33.14-26.86-60-60-60z" fill="#ffda8f"/><path d="m176 130v86c0 33.57 20.68 62.31 50 74.18v18.82c0 12.82-8.04 23.76-19.36 28.05l.01.01c3.86 23.75 24.52 41.94 49.35 41.94s45.49-18.19 49.35-41.94l.01-.01c-11.32-4.29-19.36-15.23-19.36-28.05v-18.82c29.549-11.961 50-40.848 50-74.18v-86z" fill="#bf978f"/><g fill="#eefaff"><path d="m316 339c-3.37 0-6.6-.56-9.62-1.58l-20.38 84.58 39.91 5.3 21.32-88.3z"/><path d="m346 462c0 22.09-17.91 40-40 40l-40-80h40c22.047 0 40 17.861 40 40z"/><path d="m256 10c-30.12 0-56.36 16.65-70 41.25-6.37 11.48-10 24.69-10 38.75v39h160v-39c0-43.944-35.583-80-80-80z"/><path d="m266 422h-69.45l-30.55-83h-20c-3.41 0-6.75.28-10 .83v162.17h170z"/></g></g><g><path d="m246 253c0-5.514 4.486-10 10-10s10 4.486 10 10c0 5.523 4.478 10 10 10s10-4.477 10-10c0-16.542-13.458-30-30-30s-30 13.458-30 30c0 5.523 4.478 10 10 10s10-4.477 10-10z"/><circle cx="426" cy="442" r="10"/><path d="m426 477c-5.522 0-10 4.477-10 10v5h-70.027c6.292-8.363 10.027-18.753 10.027-30 0-15.261-7.046-29.602-18.762-39.01l17.865-73.99h10.897c27.135 0 49.086 21.229 49.973 48.328.178 5.409 4.617 9.673 9.989 9.673.11 0 .222-.002.333-.005 5.52-.181 9.849-4.802 9.668-10.322-1.234-37.661-32.11-67.674-69.963-67.674h-50c-11.08 0-20-9.042-20-20v-12.39c29.878-14.82 50-45.426 50-80.61 0-27.265 0-102.427 0-126 0-49.696-40.301-90-90-90-49.68 0-90 40.315-90 90v126c0 34.563 19.412 65.516 50 80.645v12.355c0 10.836-8.821 20-20 20h-50c-38.292 0-70 30.737-70 70v103c0 5.523 4.478 10 10 10h340c5.522 0 10-4.477 10-10v-15c0-5.523-4.478-10-10-10zm-193.025 15-22.086-60h42.303l-15 60zm3.025-183v-5.254c6.523 1.483 13.207 2.254 20 2.254s13.478-.771 20-2.254v5.254c0 13.446 6.875 25.906 17.741 33.224-5.549 15.657-20.708 26.776-37.741 26.776-17.035 0-32.195-11.121-37.743-26.781 10.876-7.327 17.743-19.78 17.743-33.219zm100 153c0 14.527-10.38 26.672-24.111 29.416l-29.709-59.416h23.82c16.619 0 30 13.514 30 30zm-66.855-11.349 20.675 41.349h-31.012zm49.763-36.957c-4.194-1.118-8.535-1.694-12.908-1.694h-7.304l15.195-63.062c.702.037 1.404.062 2.109.062h18.529zm-24.427-338.809-108.481 40.686v-25.571c0-9.637 1.994-19.178 5.808-27.946zm31.306 9.619c.142 1.825.213 3.659.213 5.496v29h-92.192zm-69.787-64.504c26.527 0 50.288 14.918 62.123 37.684l-114.341-14.29c13.131-14.695 32.053-23.394 52.218-23.394zm-70 196v-77h140v77c0 38.805-31.459 70-70 70-38.3 0-70-30.815-70-70zm13.381 132.854c8.418 23.924 31.069 40.146 56.619 40.146 10.415 0 20.588-2.734 29.548-7.812l-7.424 30.812h-74.596l-23.19-63h15.662c1.134 0 2.261-.052 3.381-.146zm-40.356.146 52.638 143h-65.663v-143zm-63.025 50c0-20.365 12.084-38.105 30-45.854v138.854h-30z"/><circle cx="224" cy="173.125" r="10"/><circle cx="284" cy="173.125" r="10"/></g></g></svg>