<svg id="Capa_1" enable-background="new 0 0 512 512" height="512" viewBox="0 0 512 512" width="512" xmlns="http://www.w3.org/2000/svg"><g><g><path d="m56 282v220h400c0-18.671 0-213.117 0-220-48.967 0-340.297 0-400 0z" fill="#a7e8a6"/><path d="m456 236v46c-48.967 0-340.297 0-400 0v-46z" fill="#eefaff"/><path d="m456 190v46h-400v-46z" fill="#a7e8a6"/><path d="m297.96 344.68 20 34.64-21.96 12.68 21.96 12.68-20 34.64-21.96-12.68v25.36h-40v-25.36l-21.96 12.68-20-34.64 21.96-12.68-21.96-12.68 20-34.64 21.96 12.68v-25.36h40v25.36z" fill="#eefaff"/><path d="m256 70v-60h-160v180h320c0-14.518 0-105.386 0-120z" fill="#ffda8f"/></g><g><path d="m286 452v-8.039l6.96 4.019c4.781 2.761 10.899 1.121 13.66-3.66l20-34.64c2.762-4.783 1.123-10.898-3.66-13.66l-6.962-4.02 6.962-4.02c4.783-2.762 6.422-8.877 3.66-13.66l-20-34.64c-2.759-4.779-8.878-6.422-13.66-3.66l-6.96 4.019v-8.039c0-5.523-4.478-10-10-10h-40c-5.522 0-10 4.477-10 10v8.039l-6.96-4.019c-4.779-2.76-10.899-1.122-13.66 3.66l-20 34.64c-2.762 4.783-1.123 10.898 3.66 13.66l6.962 4.02-6.962 4.02c-4.783 2.762-6.422 8.877-3.66 13.66l20 34.64c2.759 4.778 8.876 6.422 13.66 3.66l6.96-4.019v8.039c0 5.523 4.478 10 10 10h40c5.522 0 10-4.477 10-10zm-20-25.36v15.36h-20v-15.36c0-3.573-1.906-6.874-5-8.66-3.094-1.787-6.906-1.786-10 0l-13.3 7.679-10-17.319 13.3-7.68c3.094-1.787 5-5.088 5-8.66s-1.906-6.874-5-8.66l-13.3-7.68 10-17.319 13.3 7.679c3.094 1.786 6.906 1.786 10 0s5-5.087 5-8.66v-15.36h20v15.36c0 3.573 1.906 6.874 5 8.66 3.094 1.787 6.906 1.786 10 0l13.3-7.679 10 17.319-13.3 7.68c-3.094 1.787-5 5.088-5 8.66s1.906 6.874 5 8.66l13.3 7.68-10 17.319-13.3-7.679c-3.094-1.786-6.906-1.786-10 0s-5 5.087-5 8.66z"/><path d="m256 0h-160c-5.522 0-10 4.477-10 10v170h-30c-5.522 0-10 4.477-10 10v312c0 5.523 4.478 10 10 10h155c5.522 0 10-4.477 10-10s-4.478-10-10-10h-106.006c-3.987-19.563-19.431-35.007-38.994-38.994v-122.012c19.563-3.987 35.007-19.431 38.994-38.994h302.012c3.987 19.563 19.431 35.007 38.994 38.994v122.012c-19.563 3.987-35.007 19.431-38.994 38.994h-106.006c-5.522 0-10 4.477-10 10s4.478 10 10 10h155c5.522 0 10-4.477 10-10 0-9.128 0-306.558 0-312 0-5.523-4.478-10-10-10h-30v-110c0-5.523-4.478-10-10-10h-150v-50c0-5.523-4.478-10-10-10zm-150 80h140v40h-140zm140-60v40h-140v-40zm-140 120h140v40h-140zm340 132h-380v-26h380zm-361.72 220h-18.28v-18.28c8.509 3.018 15.262 9.771 18.28 18.28zm-18.28-181.72v-18.29h18.28c-3.018 8.519-9.771 15.272-18.28 18.29zm361.72-18.28h18.28v18.28c-8.509-3.018-15.262-9.771-18.28-18.28zm0 200c3.018-8.509 9.771-15.262 18.28-18.28v18.28zm18.28-266h-380v-26h380zm-180-46v-40h140v40zm140-60h-140v-40h140z"/><path d="m396 402c5.522 0 10-4.477 10-10s-4.478-10-10-10h-20c-5.522 0-10 4.477-10 10s4.478 10 10 10z"/><path d="m116 382c-5.522 0-10 4.477-10 10s4.478 10 10 10h20c5.522 0 10-4.477 10-10s-4.478-10-10-10z"/><circle cx="256" cy="502" r="10"/></g></g></svg>