<svg id="Capa_1" enable-background="new 0 0 512 512" height="512" viewBox="0 0 512 512" width="512" xmlns="http://www.w3.org/2000/svg"><g><g><path d="m256 96c-121.506 0-226.9 119.935-227 120 0 0 26.39 30.02 67.98 60.03l.02-.03h22.17c31.63 0 62.86 5.44 93.35 13.85 29.658 8.184 57.242 8.193 86.91.01 30.51-8.41 61.75-13.86 93.39-13.86h22.24c41.56-30 67.94-60 67.94-60-.699-.453-104.406-120-227-120z" fill="#eefaff"/><g fill="#91def5"><path d="m392.82 276c-31.64 0-62.88 5.45-93.39 13.86-14.03 3.87-28.59 6.14-43.43 6.14-14.85 0-29.42-2.27-43.48-6.15-30.49-8.41-61.72-13.85-93.35-13.85h-22.17l-.02.03c41.56 29.99 98.29 59.97 159.02 59.97 60.75 0 117.5-30 159.06-60z"/><path d="m336 216c0-44.11-35.89-80-80-80s-80 35.89-80 80 35.89 80 80 80 80-35.89 80-80z"/><path d="m256 336-34.66 60.03c-3.4 5.87-5.34 12.69-5.34 19.97 0 22.09 17.91 40 40 40s40-17.91 40-40c0-7.28-1.94-14.1-5.34-19.97z"/></g><circle cx="256" cy="216" fill="#8690a6" r="40"/></g><g><path d="m256 166c-27.57 0-50 22.43-50 50s22.43 50 50 50 50-22.43 50-50-22.43-50-50-50zm0 80c-16.542 0-30-13.458-30-30s13.458-30 30-30 30 13.458 30 30-13.458 30-30 30z"/><path d="m16.852 170.036c-4.024-3.785-10.353-3.59-14.136.433-3.784 4.023-3.59 10.352.433 14.136l22.048 20.738c-2.156 2.304-3.422 3.732-3.707 4.056-3.319 3.776-3.319 9.429 0 13.205 45.822 52.1 133.304 115.341 217.626 122.643l-26.428 45.773c-4.376 7.55-6.688 16.189-6.688 24.98 0 27.57 22.43 50 50 50s50-22.43 50-50c0-8.791-2.312-17.43-6.68-24.97l-26.432-45.779c85.443-7.348 173.651-72.648 217.621-122.648 3.32-3.776 3.32-9.429.001-13.206-.285-.324-1.551-1.753-3.707-4.056l22.048-20.738c4.023-3.784 4.216-10.113.433-14.136s-10.113-4.216-14.136-.433l-22.419 21.087c-18.062-17.388-48.794-44.076-87.359-66.305l14.179-25.146c2.713-4.811 1.012-10.91-3.799-13.622-4.809-2.712-10.91-1.011-13.622 3.799l-14.354 25.456c-34.924-17.64-69.073-27.384-101.774-29.042v-30.261c0-5.523-4.477-10-10-10s-10 4.477-10 10v30.261c-32.701 1.658-66.851 11.403-101.775 29.043l-14.354-25.456c-2.712-4.811-8.811-6.513-13.622-3.799-4.811 2.712-6.512 8.812-3.799 13.622l14.179 25.146c-38.565 22.229-69.297 48.917-87.359 66.305zm193.008 129.454c16.139 4.454 31.919 6.51 46.14 6.51 14.174 0 29.936-2.044 46.087-6.5 28.539-7.867 54.617-12.226 79.34-13.255-34.666 20.838-78.934 39.755-125.427 39.755-46.492 0-90.763-18.919-125.428-39.755 24.732 1.029 50.793 5.385 79.288 13.245zm76.14 116.51c0 16.542-13.458 30-30 30s-30-13.458-30-30c0-5.275 1.381-10.448 4-14.97l26-45.031 26.007 45.042c2.612 4.511 3.993 9.684 3.993 14.959zm125.807-150h-18.987c-21.495 0-43.772 2.415-67.482 7.316 12.899-15.578 20.662-35.557 20.662-57.316 0-5.663-.534-11.336-1.585-16.863-1.033-5.425-6.271-8.985-11.694-7.954-5.425 1.033-8.986 6.269-7.954 11.694.819 4.297 1.233 8.712 1.233 13.123 0 38.598-31.402 70-70 70s-70-31.402-70-70 31.402-70 70-70c5.667 0 11.303.681 16.752 2.025 5.362 1.32 10.781-1.953 12.103-7.315s-1.953-10.781-7.315-12.103c-7.014-1.73-14.262-2.607-21.54-2.607-49.626 0-90 40.374-90 90 0 21.758 7.762 41.736 20.661 57.314-23.696-4.9-45.976-7.314-67.491-7.314h-18.979c-27.373-20.068-47.831-40.006-57.499-50 54.394-56.226 135.356-110 213.308-110 78.119 0 158.978 53.904 213.306 110.006-9.652 9.983-30.07 29.884-57.499 49.994z"/><circle cx="314" cy="161" r="10"/></g></g></svg>