<svg id="Capa_1" enable-background="new 0 0 512 512" height="512" viewBox="0 0 512 512" width="512" xmlns="http://www.w3.org/2000/svg"><g><g><path d="m443.85 101.36 40 69.28-20.74 11.97c6.22 17.51 10.36 35.4 11.99 53.39h-40.22c-2.64-23.98-10.18-47.8-22.99-70-12.82-22.2-29.68-40.65-49.12-54.93l20.13-34.85c14.76 10.41 28.18 22.96 40.23 37.1z" fill="#ff7b79"/><path d="m483.85 341.36-40 69.28-20.74-11.97c-12.05 14.14-25.48 26.67-40.24 37.08l-20.11-34.83c19.45-14.29 36.31-32.72 49.13-54.92 12.81-22.2 20.36-46.02 23.01-70h40.24c-1.63 17.99-5.79 35.89-12.01 53.4z" fill="#91def5"/><path d="m394.56 176c8.29 14.35 3.37 32.7-10.98 40.98-14.34 8.28-32.69 3.37-40.98-10.98-8.28-14.35-3.36-32.7 10.98-40.98 14.35-8.29 32.7-3.37 40.98 10.98z" fill="#fce8d0"/><path d="m383.58 295.02c14.35 8.28 19.27 26.63 10.98 40.98-8.28 14.35-26.63 19.27-40.98 10.98-14.35-8.28-19.26-26.63-10.98-40.98 8.29-14.35 26.63-19.27 40.98-10.98z" fill="#fce8d0"/><path d="m328.13 420.93 20.12 34.85c-16.4 7.59-33.97 12.93-52.25 16.3v29.92h-80v-29.94c-18.27-3.37-35.84-8.73-52.23-16.31l20.11-34.83c22.09 9.69 46.49 15.08 72.12 15.08s50.04-5.37 72.13-15.07z" fill="#ff7b79"/><path d="m348.23 56.25-20.1 34.82c-22.09-9.7-46.5-15.07-72.13-15.07s-50.03 5.37-72.13 15.07l-20.12-34.85c16.4-7.59 33.97-12.93 52.25-16.3v-29.92h80v29.94c18.27 3.37 35.84 8.73 52.23 16.31z" fill="#91def5"/><g fill="#fce8d0"><circle cx="256" cy="136" r="30"/><circle cx="256" cy="376" r="30"/><path d="m158.42 165.02c14.35 8.28 19.26 26.63 10.98 40.98-8.29 14.35-26.63 19.27-40.98 10.98-14.35-8.28-19.27-26.63-10.98-40.98 8.28-14.35 26.63-19.27 40.98-10.98z"/><path d="m169.4 306c8.28 14.35 3.37 32.7-10.98 40.98s-32.7 3.37-40.98-10.98c-8.29-14.35-3.37-32.7 10.98-40.98 14.35-8.29 32.69-3.37 40.98 10.98z"/></g><path d="m129.13 76.25 20.1 34.82c-19.44 14.28-36.3 32.73-49.11 54.93-12.82 22.2-20.37 46.02-23.02 70h-40.24c1.63-17.99 5.79-35.89 12.01-53.4l-20.72-11.96 40-69.28 20.74 11.97c12.05-14.14 25.48-26.67 40.24-37.08z" fill="#ff7b79"/><path d="m149.23 400.93-20.12 34.85c-14.77-10.41-28.18-22.96-40.24-37.1l-20.72 11.96-40-69.28 20.74-11.97c-6.21-17.51-10.36-35.4-11.99-53.39h40.2c2.65 23.98 10.2 47.8 23.02 70 12.81 22.2 29.67 40.65 49.11 54.93z" fill="#91def5"/></g><g><path d="m216 136c0 22.056 17.944 40 40 40s40-17.944 40-40-17.944-40-40-40-40 17.944-40 40zm40-20c11.028 0 20 8.972 20 20s-8.972 20-20 20-20-8.972-20-20 8.972-20 20-20z"/><path d="m296 376c0-22.056-17.944-40-40-40s-40 17.944-40 40 17.944 40 40 40 40-17.944 40-40zm-40 20c-11.028 0-20-8.972-20-20s8.972-20 20-20 20 8.972 20 20-8.972 20-20 20z"/><path d="m296 0h-80c-5.523 0-10 4.477-10 10v21.734c-16.549 3.618-32.141 8.788-46.45 15.411-2.549 1.18-4.484 3.377-5.333 6.054-.849 2.678-.532 5.588.873 8.021l20.12 34.85c2.549 4.415 8.009 6.204 12.679 4.157 21.509-9.44 44.424-14.227 68.111-14.227 23.696 0 46.612 4.786 68.109 14.226 4.66 2.046 10.127.268 12.681-4.157l20.1-34.82c1.404-2.433 1.721-5.344.872-8.022s-2.785-4.875-5.334-6.054c-14.342-6.632-29.926-11.805-46.428-15.417v-21.756c0-5.523-4.477-10-10-10zm37.935 61.012-10.093 17.484c-21.61-8.296-44.387-12.496-67.842-12.496-23.446 0-46.224 4.2-67.841 12.498l-10.113-17.516c12.382-4.871 25.712-8.636 39.767-11.227 4.744-.875 8.187-5.011 8.187-9.835v-19.92h60v19.94c0 4.823 3.443 8.959 8.186 9.834 14.018 2.586 27.342 6.355 39.749 11.238z"/><path d="m388.583 286.361c-19.146-11.058-43.577-4.516-54.644 14.641-11.044 19.141-4.51 43.587 14.639 54.637 19.215 11.099 43.626 4.454 54.642-14.637 11.056-19.14 4.516-43.586-14.637-54.641zm-2.685 44.641c-5.511 9.552-17.72 12.863-27.321 7.316-9.59-5.534-12.829-17.765-7.319-27.316 5.532-9.575 17.744-12.855 27.319-7.323.002 0 .003.001.005.002 9.569 5.522 12.853 17.739 7.316 27.321z"/><path d="m488.849 332.699-13.629-7.867c5.137-16.127 8.456-32.214 9.879-47.93.254-2.797-.681-5.573-2.576-7.647s-4.574-3.255-7.383-3.255h-40.24c-5.098 0-9.379 3.834-9.939 8.902-2.579 23.34-9.891 45.58-21.73 66.097-11.833 20.491-27.441 37.939-46.392 51.862-4.108 3.018-5.288 8.644-2.739 13.059l20.11 34.83c1.405 2.434 3.769 4.163 6.513 4.767 2.729.601 5.605.032 7.911-1.595 12.932-9.121 25.205-20.032 36.566-32.5l13.652 7.879c4.781 2.76 10.898 1.121 13.659-3.661l40-69.28c1.326-2.297 1.686-5.027.999-7.589s-2.364-4.746-4.661-6.072zm-48.66 64.282-12.081-6.973c-4.177-2.41-9.48-1.496-12.61 2.175-9.232 10.833-19.158 20.488-29.605 28.803l-10.101-17.495c18.01-14.583 33.043-32.207 44.759-52.495 11.719-20.309 19.469-42.136 23.092-65.008h20.223c-1.976 13.178-5.379 26.605-10.16 40.062-1.615 4.546.246 9.597 4.424 12.008l12.059 6.96z"/><path d="m131.278 66.483c-2.746-.603-5.616-.025-7.912 1.595-12.932 9.121-25.205 20.032-36.566 32.5l-13.652-7.879c-4.781-2.759-10.897-1.122-13.659 3.661l-40 69.28c-1.326 2.297-1.686 5.027-.999 7.589s2.363 4.746 4.66 6.072l13.629 7.867c-5.137 16.127-8.456 32.214-9.879 47.93-.254 2.797.681 5.573 2.576 7.647s4.574 3.255 7.383 3.255h40.241c5.098 0 9.379-3.834 9.939-8.902 2.577-23.315 9.876-45.525 21.696-66.018-10.933 19.027-4.534 43.471 14.682 54.559 19.145 11.058 43.577 4.516 54.644-14.641 11.046-19.145 4.508-43.584-14.639-54.637-19.151-11.062-43.541-4.496-54.593 14.557 11.829-20.474 27.412-37.899 46.321-51.789 4.108-3.018 5.289-8.644 2.74-13.059l-20.1-34.82c-1.404-2.433-3.768-4.163-6.512-4.767zm-5.176 114.515c5.511-9.553 17.725-12.86 27.316-7.319.002 0 .003.001.005.002 9.59 5.534 12.83 17.765 7.319 27.316-5.533 9.576-17.743 12.855-27.324 7.321-9.569-5.521-12.853-17.738-7.316-27.32zm-34.642-19.999c-11.726 20.305-19.479 42.132-23.104 65.001h-20.223c1.976-13.168 5.379-26.595 10.16-40.052 1.615-4.546-.246-9.597-4.424-12.008l-12.059-6.96 30-51.96 12.081 6.973c4.178 2.412 9.481 1.497 12.61-2.175 9.232-10.833 19.158-20.487 29.604-28.802l10.092 17.483c-17.997 14.572-33.023 32.199-44.737 52.5z"/><path d="m403.222 171.002c-11.05-19.15-35.493-25.703-54.642-14.642-19.095 11.026-25.663 35.536-14.639 54.643 11.018 19.071 35.517 25.679 54.637 14.639 19.146-11.047 25.704-35.493 14.644-54.64zm-24.642 37.318c-9.547 5.513-21.804 2.228-27.318-7.318-5.512-9.552-2.229-21.809 7.319-27.322 0 0 .001-.001.002-.001 9.545-5.514 21.777-2.28 27.319 7.324 5.527 9.568 2.257 21.79-7.322 27.317z"/><path d="m452.51 96.36c-2.761-4.782-8.876-6.42-13.659-3.661l-13.63 7.868c-11.391-12.506-23.659-23.422-36.558-32.519-2.296-1.62-5.167-2.199-7.91-1.595-2.744.603-5.107 2.333-6.512 4.765l-20.13 34.85c-2.55 4.416-1.371 10.042 2.739 13.061 18.929 13.905 34.534 31.357 46.379 51.869 11.837 20.513 19.142 42.751 21.711 66.096.558 5.069 4.84 8.906 9.94 8.906h40.22c2.809 0 5.489-1.182 7.383-3.255 1.895-2.074 2.83-4.849 2.576-7.647-1.426-15.743-4.737-31.826-9.86-47.919l13.65-7.877c2.297-1.326 3.974-3.51 4.661-6.072s.327-5.292-.999-7.589zm1.177 89.597c4.77 13.428 8.168 26.853 10.143 40.043h-20.202c-3.615-22.867-11.359-44.693-23.077-65.001-11.726-20.305-26.754-37.931-44.746-52.501l10.117-17.514c10.417 8.299 20.341 17.959 29.598 28.822 3.129 3.671 8.433 4.586 12.61 2.174l12.061-6.961 30 51.959-12.078 6.97c-4.18 2.412-6.041 7.463-4.426 12.009z"/><path d="m155.15 392.871c-18.924-13.902-34.519-31.343-46.353-51.843 11.069 19.143 35.584 25.597 54.62 14.613 19.145-11.047 25.696-35.485 14.642-54.644-11.06-19.143-35.49-25.697-54.637-14.639-19.241 11.101-25.618 35.565-14.677 54.579-11.825-20.496-19.128-42.713-21.706-66.035-.56-5.068-4.841-8.902-9.939-8.902h-40.2c-2.809 0-5.489 1.182-7.383 3.255-1.895 2.074-2.83 4.849-2.576 7.647 1.423 15.713 4.736 31.795 9.863 47.917l-13.652 7.879c-2.297 1.326-3.974 3.51-4.661 6.072s-.327 5.292.999 7.589l40 69.28c2.762 4.784 8.877 6.422 13.659 3.661l13.633-7.869c11.414 12.526 23.686 23.443 36.567 32.522 2.296 1.618 5.167 2.196 7.91 1.592 2.744-.604 5.106-2.333 6.511-4.766l20.12-34.85c2.549-4.414 1.369-10.04-2.74-13.058zm-21.733-89.189c.001-.001.003-.002.005-.003 9.578-5.533 21.82-2.195 27.316 7.319 5.522 9.57 2.262 21.794-7.316 27.32-9.556 5.515-21.812 2.231-27.324-7.321-5.527-9.569-2.256-21.79 7.319-27.315zm-7.331 117.335c-10.404-8.287-20.33-17.948-29.608-28.826-1.957-2.295-4.763-3.511-7.613-3.511-1.707 0-3.43.437-4.994 1.34l-12.061 6.961-30-51.959 12.078-6.97c4.177-2.411 6.038-7.458 4.426-12.003-4.771-13.454-8.169-26.879-10.143-40.048h20.184c3.624 22.869 11.378 44.696 23.102 64.998 11.716 20.303 26.741 37.931 44.739 52.505z"/><circle cx="256" cy="436" r="10"/><path d="m336.79 415.93c-2.549-4.416-8.014-6.205-12.681-4.156-8.361 3.672-17.087 6.681-25.934 8.944-5.35 1.369-8.578 6.816-7.209 12.166 1.369 5.351 6.815 8.58 12.166 7.21 7.002-1.791 13.937-4 20.708-6.594l10.114 17.519c-12.382 4.871-25.712 8.636-39.767 11.227-4.744.875-8.187 5.011-8.187 9.834v19.92h-60v-19.94c0-4.823-3.443-8.959-8.186-9.834-14.018-2.586-27.341-6.355-39.748-11.238l10.104-17.5c6.77 2.592 13.7 4.801 20.695 6.593 5.35 1.369 10.798-1.855 12.169-7.206 1.37-5.35-1.856-10.798-7.206-12.168-8.84-2.265-17.565-5.274-25.932-8.944-4.667-2.046-10.128-.257-12.677 4.158l-20.11 34.83c-1.405 2.433-1.721 5.344-.872 8.022s2.785 4.875 5.334 6.054c14.342 6.633 29.926 11.806 46.428 15.418v21.755c0 5.523 4.477 10 10 10h80c5.523 0 10-4.477 10-10v-21.734c16.549-3.618 32.141-8.788 46.45-15.411 2.549-1.18 4.484-3.377 5.333-6.055.849-2.677.532-5.588-.873-8.021z"/></g></g></svg>