<svg id="Capa_1" enable-background="new 0 0 512 512" height="512" viewBox="0 0 512 512" width="512" xmlns="http://www.w3.org/2000/svg"><g><g><path d="m10 50h492v60h-492z" fill="#ff7b79"/><path d="m10 110v392h492v-392z" fill="#eefaff"/><path d="m416 70h-40c0-5.264 0-44.868 0-60h40z" fill="#8690a6"/><path d="m376 236c-10.481 0-233.399 0-240 0 20.19-48.44 67.52-80 120-80s99.81 31.56 120 80z" fill="#91def5"/><path d="m316 336v120h-120v-120z" fill="#ff7b79"/><g fill="#8690a6"><path d="m276 70h-40c0-5.264 0-44.868 0-60h40z"/><path d="m136 70h-40c0-5.264 0-44.868 0-60h40z"/></g></g><g><path d="m186 336v120c0 5.523 4.477 10 10 10h120c5.522 0 10-4.477 10-10v-120c0-5.523-4.478-10-10-10h-32.38s98.743-82.285 98.747-82.289c3.279-2.705 4.604-7.405 2.859-11.574-.016-.038-.034-.075-.051-.112-21.845-52.262-72.531-86.025-129.175-86.025-56.643 0-107.33 33.762-129.174 86.023-1.799 4.132-.55 8.912 2.799 11.681l98.755 82.296h-32.38c-5.523 0-10 4.477-10 10zm162.38-90-68.414 57.012 22.805-57.012zm-92.38 63.073-25.23-63.073h50.459zm-46.77-63.073 22.804 57.012-68.414-57.012zm46.77-80c43.384 0 82.677 23.119 103.912 60-26.176 0-181.825 0-207.824 0 21.234-36.881 60.528-60 103.912-60zm-50 180h100v100h-100z"/><path d="m276 386h-10v-10c0-5.523-4.478-10-10-10s-10 4.477-10 10v10h-10c-5.523 0-10 4.477-10 10s4.477 10 10 10h10v10c0 5.523 4.478 10 10 10s10-4.477 10-10v-10h10c5.522 0 10-4.477 10-10s-4.478-10-10-10z"/><circle cx="256" cy="502" r="10"/><path d="m502 40h-76v-30c0-5.523-4.478-10-10-10h-40c-5.522 0-10 4.477-10 10v30h-80v-30c0-5.523-4.478-10-10-10h-40c-5.523 0-10 4.477-10 10v30h-80v-30c0-5.523-4.477-10-10-10h-40c-5.523 0-10 4.477-10 10v30h-76c-5.523 0-10 4.477-10 10v452c0 5.523 4.477 10 10 10h201c5.523 0 10-4.477 10-10s-4.477-10-10-10h-191v-372h472v372h-191c-5.522 0-10 4.477-10 10s4.478 10 10 10h201c5.522 0 10-4.477 10-10v-452c0-5.523-4.478-10-10-10zm-116-20h20v40h-20zm-140 0h20v40h-20zm-140 0h20v40h-20zm-86 80v-40h66v10c0 5.523 4.477 10 10 10h40c5.523 0 10-4.477 10-10v-10h80v10c0 5.523 4.477 10 10 10h40c5.522 0 10-4.477 10-10v-10h80v10c0 5.523 4.478 10 10 10h40c5.522 0 10-4.477 10-10v-10h66v40z"/></g></g></svg>