<svg id="Capa_1" enable-background="new 0 0 512 512" height="512" viewBox="0 0 512 512" width="512" xmlns="http://www.w3.org/2000/svg"><g><g><path d="m501.24 237.13c4.81 27.99-13.67 52.68-39.24 57.87v161c0 11.05-8.95 20-20 20h-166c-11.05 0-20-8.95-20-20v-161c-25.56-5.19-44.05-29.88-39.24-57.87 4.17-24.26 26.71-41.13 51.32-41.13h181.84c24.61 0 47.15 16.87 51.32 41.13z" fill="#fce8d0"/><path d="m167.06 178.11c5.88 11.77 8.94 24.74 8.94 37.89 0 11.05-8.95 20-20 20h-126c-11.05 0-20-8.95-20-20 0-13.15 3.06-26.12 8.94-37.89l31.06-62.11v-40h86v40z" fill="#eefaff"/><g fill="#91def5"><path d="m176 296c0-11.05-8.95-20-20-20 11.05 0 20-8.95 20-20s-8.95-20-20-20h-126c-11.05 0-20 8.95-20 20s8.95 20 20 20c-11.05 0-20 8.95-20 20s8.95 20 20 20c-11.05 0-20 8.95-20 20v120c0 11.05 8.95 20 20 20h126c11.05 0 20-8.95 20-20v-120c0-11.05-8.95-20-20-20 11.05 0 20-8.95 20-20z"/><path d="m156 36v40c-13.233 0-106.483 0-126 0v-40z"/></g></g><g><path d="m30 486h126c16.542 0 30-13.458 30-30v-120c0-7.678-2.902-14.688-7.663-20 4.761-5.312 7.663-12.322 7.663-20s-2.902-14.688-7.663-20c4.761-5.312 7.663-12.322 7.663-20s-2.902-14.688-7.663-20c4.761-5.312 7.663-12.322 7.663-20 0-14.625-3.456-29.273-9.996-42.363l-30.004-59.998v-27.639h10c5.522 0 10-4.477 10-10v-40c0-5.523-4.478-10-10-10h-126c-5.522 0-10 4.477-10 10v40c0 5.523 4.478 10 10 10h10v27.639l-30.005 60.001c-6.539 13.087-9.995 27.734-9.995 42.36 0 7.678 2.902 14.688 7.663 20-4.761 5.312-7.663 12.322-7.663 20s2.902 14.688 7.663 20c-4.761 5.312-7.663 12.322-7.663 20s2.902 14.688 7.663 20c-4.761 5.312-7.663 12.322-7.663 20v120c0 16.542 13.458 30 30 30zm136-30c0 5.514-4.486 10-10 10h-126c-5.514 0-10-4.486-10-10v-120c0-5.514 4.486-10 10-10h126c5.514 0 10 4.486 10 10zm-146-160c0-5.514 4.486-10 10-10h126c5.514 0 10 4.486 10 10s-4.486 10-10 10h-126c-5.514 0-10-4.486-10-10zm0-40c0-5.514 4.486-10 10-10h126c5.514 0 10 4.486 10 10s-4.486 10-10 10h-126c-5.514 0-10-4.486-10-10zm20-210h106v20h-106zm-12.115 136.582 31.06-62.11c.694-1.388 1.055-2.919 1.055-4.472v-30h66v30c0 1.553.361 3.084 1.056 4.473l31.059 62.107c5.158 10.325 7.885 21.881 7.885 33.42 0 5.514-4.486 10-10 10h-126c-5.514 0-10-4.486-10-10 0-11.539 2.727-23.095 7.885-33.418z"/><path d="m335 306.589c-4.421-3.313-10.688-2.418-14 2.001l-20 26.67c-3.313 4.418-2.418 10.687 2 14 4.4 3.298 10.673 2.437 14-2.001l20-26.67c3.313-4.418 2.418-10.686-2-14z"/><path d="m383 405.411c4.4 3.298 10.673 2.437 14-2.001l20-26.67c3.313-4.418 2.418-10.687-2-14-4.421-3.313-10.688-2.417-14 2.001l-20 26.67c-3.313 4.418-2.418 10.686 2 14z"/><path d="m395 308c-4.418-3.313-10.686-2.418-14 2l-60 80c-3.313 4.418-2.418 10.687 2 14 4.392 3.294 10.666 2.445 14-2l60-80c3.313-4.419 2.418-10.687-2-14z"/><circle cx="359" cy="476" r="10"/><path d="m246 302.6v153.4c0 16.542 13.458 30 30 30h38c5.522 0 10-4.477 10-10s-4.478-10-10-10h-38c-5.514 0-10-4.486-10-10v-161c0-4.756-3.35-8.854-8.01-9.8-21.318-4.329-35.1-24.7-31.375-46.376 3.217-18.713 21.042-32.824 41.465-32.824h181.84c20.423 0 38.248 14.111 41.465 32.823 3.725 21.679-10.056 42.05-31.374 46.376-4.661.946-8.011 5.044-8.011 9.8v161c0 5.514-4.486 10-10 10h-38c-5.522 0-10 4.477-10 10s4.478 10 10 10h38c16.542 0 30-13.458 30-30v-153.399c27.344-9.561 44.184-37.555 39.096-67.165-4.845-28.182-31.145-49.435-61.176-49.435h-181.84c-30.031 0-56.331 21.253-61.176 49.437-5.088 29.608 11.75 57.602 39.096 67.163z"/></g></g></svg>