<svg id="Capa_1" enable-background="new 0 0 512 512" height="512" viewBox="0 0 512 512" width="512" xmlns="http://www.w3.org/2000/svg"><g><g><path d="m70 250h252v252h-252z" fill="#eefaff"/><circle cx="482" cy="196" fill="#91def5" r="20"/><circle cx="382" cy="30" fill="#91def5" r="20"/><path d="m382 369.26v132.74h-60v-252h60z" fill="#ff7b79"/><circle cx="302" cy="30" fill="#91def5" r="20"/><g fill="#ff7b79"><circle cx="196" cy="376" r="60"/><path d="m10 250h60v252h-60z"/></g></g><g><path d="m482 166c-16.542 0-30 13.458-30 30 0 13.036 8.361 24.152 20 28.28v81.72c0 33.084-26.916 60-60 60-6.911 0-13.612-1.156-20-3.422v-112.578c0-5.523-4.477-10-10-10h-30v-42.067c59.593-15.807 100-69.615 100-129.913 0-24.29-18.132-44.412-41.569-47.574-4-11.87-15.229-20.446-28.431-20.446-16.542 0-30 13.458-30 30s13.458 30 30 30c12.786 0 23.723-8.044 28.034-19.334 12.549 2.776 21.966 13.983 21.966 27.354 0 53.671-37.73 100.354-90 111.764-52.27-11.411-90-58.093-90-111.764 0-13.371 9.417-24.578 21.966-27.354 4.311 11.29 15.248 19.334 28.034 19.334 16.542 0 30-13.458 30-30s-13.458-30-30-30c-13.202 0-24.431 8.576-28.431 20.446-23.437 3.162-41.569 23.284-41.569 47.574 0 60.432 40.546 114.143 100 129.913v42.067h-66v-30c0-16.542-13.458-30-30-30h-80c-16.542 0-30 13.458-30 30v30h-116c-5.523 0-10 4.477-10 10v252c0 5.522 4.477 10 10 10h141c5.523 0 10-4.478 10-10s-4.477-10-10-10h-71v-232h232v232h-71c-5.523 0-10 4.478-10 10s4.477 10 10 10h141c5.523 0 10-4.478 10-10v-118.516c6.479 1.671 13.165 2.516 20 2.516 44.112 0 80-35.888 80-80v-81.72c11.639-4.128 20-15.243 20-28.28 0-16.542-13.458-30-30-30zm-100-126c-5.514 0-10-4.486-10-10s4.486-10 10-10 10 4.486 10 10-4.486 10-10 10zm-80-20c5.514 0 10 4.486 10 10s-4.486 10-10 10-10-4.486-10-10 4.486-10 10-10zm-156 190c0-5.514 4.486-10 10-10h80c5.514 0 10 4.486 10 10v30h-100zm-86 282h-40v-232h40zm312 0h-40v-232h40zm110-286c-5.514 0-10-4.486-10-10s4.486-10 10-10 10 4.486 10 10-4.486 10-10 10z"/><path d="m266 376c0-38.598-31.402-70-70-70s-70 31.402-70 70 31.402 70 70 70 70-31.402 70-70zm-120 0c0-27.57 22.43-50 50-50s50 22.43 50 50-22.43 50-50 50-50-22.43-50-50z"/><path d="m206 396v-10h10c5.523 0 10-4.477 10-10s-4.477-10-10-10h-10v-10c0-5.523-4.477-10-10-10s-10 4.477-10 10v10h-10c-5.523 0-10 4.477-10 10s4.477 10 10 10h10v10c0 5.523 4.477 10 10 10s10-4.477 10-10z"/><circle cx="196" cy="502" r="10"/></g></g></svg>