<svg id="Capa_1" enable-background="new 0 0 512 512" height="512" viewBox="0 0 512 512" width="512" xmlns="http://www.w3.org/2000/svg"><g><g><path d="m502 166s-.02 118.92-.06 120h-119.88c-.04-1.08-.06-2.16-.06-3.25v-116.75z" fill="#ffda8f"/><path d="m382.06 286h119.88c-1.34 36.43-25.14 68.4-59.94 80-34.8-11.6-58.6-43.57-59.94-80z" fill="#8690a6"/><path d="m482 126-40.61 40-39.39-40z" fill="#8690a6"/><path d="m316 286v116.75c0 8-1.08 15.8-3.13 23.25h-113.74c-2.05-7.45-3.13-15.25-3.13-23.25v-116.75z" fill="#ffda8f"/><path d="m199.14 426h113.72c-7.61 27.75-28.61 50.59-56.86 60-28.25-9.41-49.25-32.25-56.86-60z" fill="#8690a6"/><path d="m296 246-40.61 40-39.39-40z" fill="#8690a6"/><path d="m130 206s-.02 118.92-.06 120h-119.88c-.04-1.08-.06-2.16-.06-3.25v-116.75z" fill="#ffda8f"/><g fill="#8690a6"><path d="m10.06 326h119.88c-1.34 36.43-25.14 68.4-59.94 80-34.8-11.6-58.6-43.57-59.94-80z"/><path d="m110 166-40.61 40-39.39-40z"/></g></g><g><g><path d="m246 206v-40c0-5.523-4.478-10-10-10-5.523 0-10 4.477-10 10v40c0 5.523 4.477 10 10 10 5.522 0 10-4.477 10-10z"/><path d="m286 206v-60c0-5.523-4.478-10-10-10s-10 4.477-10 10v60c0 5.523 4.478 10 10 10s10-4.477 10-10z"/><path d="m0 206s.062 120.247.067 120.368c1.489 40.488 28.322 76.303 66.771 89.119 1.026.342 2.094.513 3.162.513s2.136-.171 3.162-.513c38.449-12.816 65.272-48.631 66.761-89.116.123-3.304.054 2.984.077-120.371 0-5.523-4.477-10-10-10h-36.207l23.224-22.875c2.891-2.848 3.774-7.161 2.236-10.917-1.539-3.755-5.194-6.208-9.253-6.208h-80c-4.031 0-7.667 2.42-9.224 6.138s-.729 8.007 2.099 10.879l22.633 22.983h-35.508c-5.523 0-10 4.477-10 10zm85.597-30-16.099 15.857-15.616-15.857zm-15.597 219.382c-25.622-9.805-44.18-32.65-48.844-59.392h97.688c-4.663 26.741-23.222 49.587-48.844 59.392zm50-179.382v100h-100v-100z"/><path d="m40 86v40c0 5.523 4.477 10 10 10s10-4.477 10-10v-40c0-5.523-4.477-10-10-10s-10 4.477-10 10z"/><path d="m80 66v60c0 5.523 4.477 10 10 10s10-4.477 10-10v-60c0-5.523-4.477-10-10-10s-10 4.477-10 10z"/><path d="m502 156h-36.207l23.225-22.875c2.892-2.848 3.774-7.161 2.235-10.917s-5.194-6.208-9.253-6.208h-80c-4.03 0-7.667 2.42-9.224 6.138-1.558 3.718-.729 8.007 2.099 10.879l22.633 22.983h-35.508c-5.522 0-10 4.477-10 10 0 0 .06 120 .06 120v.003c1.38 41.226 28.739 76.804 66.778 89.484 1.026.342 2.094.513 3.162.513s2.136-.171 3.162-.513c38.135-12.712 65.403-48.361 66.778-89.484 0-.001 0-.002 0-.003 0 0 .06-120 .06-120 0-5.523-4.478-10-10-10zm-44.403-20-16.1 15.857-15.615-15.857zm34.403 40v100h-100v-100zm-50 179.382c-25.621-9.805-44.18-32.65-48.844-59.392h97.688c-4.663 26.741-23.222 49.587-48.844 59.392z"/><path d="m412 46v40c0 5.523 4.478 10 10 10s10-4.477 10-10v-40c0-5.523-4.478-10-10-10s-10 4.477-10 10z"/><circle cx="316" cy="356" r="10"/><path d="m186 286v116.75c0 41.518 26.33 79.244 66.84 92.737 1.025.342 2.093.513 3.16.513s2.135-.171 3.16-.513c69.451-23.134 66.807-94.387 66.84-94.487 0-5.523-4.478-10-10-10s-10 4.477-10 10c-.036 1 .237 7.04-1.136 15h-97.728c-.752-4.362-1.136-8.795-1.136-13.25v-106.75h100v15c0 5.523 4.478 10 10 10s10-4.477 10-10v-25c0-5.523-4.478-10-10-10h-36.207l23.225-22.875c2.892-2.848 3.774-7.161 2.235-10.917s-5.194-6.208-9.253-6.208h-80c-4.031 0-7.667 2.42-9.224 6.138s-.729 8.007 2.099 10.879l22.633 22.983h-35.508c-5.523 0-10 4.477-10 10zm85.597-30-16.1 15.857-15.615-15.857zm-15.597 219.384c-18.886-7.202-34.038-21.361-42.548-39.394h85.077c-8.491 18.034-23.643 32.192-42.529 39.394z"/></g><path d="m452 26v60c0 5.523 4.478 10 10 10s10-4.477 10-10v-60c0-5.523-4.478-10-10-10s-10 4.477-10 10z"/></g></g></svg>