<svg id="Capa_1" enable-background="new 0 0 512.004 512.004" height="512" viewBox="0 0 512.004 512.004" width="512" xmlns="http://www.w3.org/2000/svg"><g><g><path d="m482 246.002h-40v40h40c11.05 0 20-8.95 20-20s-8.95-20-20-20z" fill="#eefaff"/><path d="m10 266.002c0 11.05 8.95 20 20 20h40v-40h-40c-11.05 0-20 8.95-20 20z" fill="#eefaff"/><path d="m70 206.002v220c0 33.14 26.86 60 60 60h252c33.14 0 60-26.86 60-60v-220z" fill="#ff7b79"/><path d="m496.14 91.862c7.81 7.81 7.81 20.47 0 28.28l-85.86 85.86h-56.56l114.14-114.14c7.81-7.81 20.47-7.81 28.28 0z" fill="#eefaff"/><path d="m297.96 318.682 20 34.64-21.96 12.68 21.96 12.68-20 34.64-21.96-12.68v25.36h-40v-25.36l-21.96 12.68-20-34.64 21.96-12.68-21.96-12.68 20-34.64 21.96 12.68v-25.36h40v25.36z" fill="#eefaff"/><path d="m230 206.002v50c0 11.05-8.95 20-20 20s-20-8.95-20-20-8.95-20-20-20-20 8.95-20 20v30c0 11.05-8.95 20-20 20s-20-8.95-20-20v-80z" fill="#ffda8f"/></g><g><circle cx="256" cy="486.002" r="10"/><path d="m236 436.002h40c5.523 0 10-4.478 10-10v-8.038l6.959 4.019c4.801 2.772 10.91 1.103 13.661-3.66l20-34.641c2.761-4.783 1.123-10.898-3.66-13.66l-6.962-4.02 6.962-4.02c4.783-2.762 6.421-8.877 3.66-13.66l-20-34.641c-2.76-4.78-8.879-6.424-13.661-3.66l-6.959 4.019v-8.038c0-5.522-4.477-10-10-10h-40c-5.523 0-10 4.478-10 10v8.038l-6.959-4.019c-2.296-1.326-5.024-1.686-7.588-.999-2.562.687-4.746 2.362-6.072 4.659l-20 34.641c-2.761 4.783-1.123 10.898 3.66 13.66l6.962 4.02-6.962 4.02c-4.783 2.762-6.421 8.877-3.66 13.66l20 34.641c2.755 4.772 8.868 6.426 13.661 3.66l6.959-4.019v8.038c-.001 5.523 4.476 10 9.999 10zm-18.3-36.341-10-17.319 13.3-7.68c6.642-3.834 6.675-13.466 0-17.32l-13.3-7.68 10-17.319 13.3 7.68c3.094 1.787 6.906 1.787 10 0 3.094-1.786 5-5.087 5-8.66v-15.36h20v15.36c0 3.573 1.906 6.874 5 8.66 3.094 1.787 6.906 1.785 10 0l13.3-7.68 10 17.319-13.3 7.68c-3.094 1.786-5 5.088-5 8.66s1.906 6.874 5 8.66l13.3 7.68-10 17.319-13.3-7.68c-3.094-1.787-6.906-1.787-10 0-3.094 1.786-5 5.087-5 8.66v15.36h-20v-15.36c0-3.573-1.906-6.874-5-8.66-3.094-1.787-6.906-1.785-10 0z"/><path d="m482 236.002h-30v-20h10c5.523 0 10-4.478 10-10s-4.477-10-10-10h-27.578l68.789-68.789c11.724-11.724 11.725-30.696 0-42.422-11.725-11.725-30.698-11.725-42.423 0l-111.21 111.211h-299.578c-5.523 0-10 4.478-10 10s4.477 10 10 10h10v20h-30c-16.542 0-30 13.458-30 30s13.458 30 30 30h30v130c0 38.598 31.402 70 70 70h81c5.523 0 10-4.478 10-10s-4.477-10-10-10h-81c-27.57 0-50-22.43-50-50v-210h20v70c0 16.542 13.458 30 30 30s30-13.458 30-30v-30c0-5.514 4.486-10 10-10s10 4.486 10 10c0 16.542 13.458 30 30 30s30-13.458 30-30v-40h192v210c0 27.57-22.43 50-50 50h-81c-5.523 0-10 4.478-10 10s4.477 10 10 10h81c38.598 0 70-31.402 70-70v-130h30c16.542 0 30-13.458 30-30s-13.458-30-30-30zm-452 40c-5.514 0-10-4.486-10-10s4.486-10 10-10h30v20zm444.931-177.068c3.902-3.902 10.221-3.916 14.138 0 3.907 3.908 3.908 10.228 0 14.137l-82.932 82.932h-28.274zm-254.931 157.068c0 5.514-4.486 10-10 10s-10-4.486-10-10c0-16.542-13.458-30-30-30s-30 13.458-30 30v30c0 5.514-4.486 10-10 10s-10-4.486-10-10v-70h100zm262 20h-30v-20h30c5.514 0 10 4.486 10 10s-4.486 10-10 10z"/><path d="m256 176.002c5.523 0 10-4.478 10-10v-20c0-16.542-13.458-30-30-30h-120c-5.514 0-10-4.486-10-10s4.486-10 10-10h80c16.542 0 30-13.458 30-30s-13.458-30-30-30h-40c-5.514 0-10-4.486-10-10 0-5.522-4.477-10-10-10s-10 4.478-10 10c0 16.542 13.458 30 30 30h40c5.514 0 10 4.486 10 10s-4.486 10-10 10h-80c-16.542 0-30 13.458-30 30s13.458 30 30 30h120c5.514 0 10 4.486 10 10v20c0 5.523 4.477 10 10 10z"/></g></g></svg>