<svg id="Capa_1" enable-background="new 0 0 512 512" height="512" viewBox="0 0 512 512" width="512" xmlns="http://www.w3.org/2000/svg"><g><g><path d="m502 342-120-200-111 185-15-25-15 25-111-185-120 200h222l-96 160h240l-96-160z" fill="#a7e8a6"/><path d="m382 262 40 80h-80z" fill="#eefaff"/><path d="m376 10-20 40 20 40h-120v-80z" fill="#ff7b79"/><g fill="#eefaff"><path d="m256 422 40 80h-80z"/><path d="m130 262 40 80h-80z"/></g></g><g><path d="m384.507 4.743c-1.822-2.948-5.041-4.743-8.507-4.743h-120c-5.522 0-10 4.478-10 10v289.23l-5 8.333-102.425-170.707c-1.807-3.013-5.062-4.856-8.575-4.856s-6.768 1.843-8.575 4.855l-120 200c-1.854 3.089-1.902 6.937-.127 10.071 1.775 3.137 5.1 5.074 8.702 5.074h204.338l-86.913 144.855c-1.854 3.089-1.902 6.937-.127 10.071 1.775 3.136 5.1 5.073 8.702 5.073h240c3.603 0 6.927-1.938 8.702-5.073s1.727-6.982-.127-10.071l-86.913-144.855h204.338c3.603 0 6.927-1.938 8.702-5.073s1.727-6.982-.127-10.071l-36.853-61.421c-2.842-4.737-8.986-6.271-13.72-3.431-4.736 2.842-6.271 8.984-3.431 13.72l27.767 46.276h-56.158l-36.18-72.36v-37.64c0-5.522-4.478-10-10-10s-10 4.478-10 10v37.64l-36.18 72.36h-50.158l-3-5 99.338-165.563 28.277 47.129c2.842 4.737 8.985 6.271 13.72 3.431 4.736-2.842 6.271-8.984 3.431-13.72l-36.853-61.421c-1.807-3.013-5.062-4.856-8.575-4.856s-6.768 1.843-8.575 4.855l-102.425 170.709-5-8.333v-199.231h110c3.466 0 6.685-1.795 8.507-4.743 1.821-2.947 1.987-6.629.438-9.729l-17.764-35.528 17.764-35.528c1.549-3.1 1.383-6.781-.438-9.729zm-2.507 279.618 23.82 47.639h-47.64zm-252 0 23.82 47.639h-47.64zm46.18 47.639-36.18-72.36v-37.64c0-5.522-4.477-10-10-10s-10 4.478-10 10v37.64l-36.18 72.36h-56.158l102.338-170.563 99.338 165.563-3 5zm79.82 112.361 23.82 47.639h-47.64zm46.18 47.639-36.18-72.36v-37.64c0-5.522-4.478-10-10-10s-10 4.478-10 10v37.64l-36.18 72.36h-56.158c7.788-12.98 98.085-163.474 102.338-170.563 4.244 7.074 94.447 157.412 102.338 170.563zm44.876-437.528 12.763 25.528h-93.819v-60h93.819l-12.764 25.528c-1.407 2.815-1.407 6.129.001 8.944z"/><circle cx="442" cy="242" r="10"/></g></g></svg>