<svg id="Capa_1" enable-background="new 0 0 512 512" height="512" viewBox="0 0 512 512" width="512" xmlns="http://www.w3.org/2000/svg"><g><g><path d="m416 50c-10.76 0-20.48 4.3-27.67 11.21-10.21-18.52-29.69-31.21-52.33-31.21-8 0-15.6 1.63-22.57 4.47-14.55-15.04-34.85-24.47-57.43-24.47s-42.88 9.43-57.43 24.47c-6.97-2.84-14.57-4.47-22.57-4.47-22.64 0-42.12 12.69-52.33 31.21-7.19-6.91-16.91-11.21-27.67-11.21-22.09 0-40 17.91-40 40s17.91 40 40 40c10.76 0 20.48-4.3 27.67-11.21 10.21 18.52 29.69 31.21 52.33 31.21 8 0 15.6-1.63 22.57-4.47 5.14 5.31 11 9.93 17.43 13.68v182.79h80c0-42.199 0-145.625 0-182.79 6.43-3.75 12.29-8.37 17.43-13.68 6.97 2.84 14.57 4.47 22.57 4.47 22.64 0 42.12-12.69 52.33-31.21 7.19 6.91 16.91 11.21 27.67 11.21 22.09 0 40-17.91 40-40s-17.91-40-40-40z" fill="#ffda8f"/><path d="m456 362v140h-40c0-21.806 0-139.396 0-160z" fill="#eefaff"/><path d="m336 302v200h80c0-79.84 0-159.714 0-240z" fill="#91def5"/><path d="m336 502h-80v-180c9.675 4.838 70.261 35.13 80 40z" fill="#eefaff"/><path d="m256 502h-160c0-23.505 0-213.433 0-220h160z" fill="#91def5"/><path d="m96 342v160h-40v-140z" fill="#eefaff"/></g><g><path d="m256 206c5.522 0 10-4.478 10-10v-66c0-5.522-4.478-10-10-10s-10 4.478-10 10v66c0 5.522 4.478 10 10 10z"/><path d="m146 322c0-5.522-4.478-10-10-10s-10 4.478-10 10v20c0 5.522 4.478 10 10 10s10-4.478 10-10z"/><path d="m186 322c0-5.522-4.478-10-10-10s-10 4.478-10 10v20c0 5.522 4.478 10 10 10s10-4.478 10-10z"/><path d="m216 352c5.522 0 10-4.478 10-10v-20c0-5.522-4.478-10-10-10s-10 4.478-10 10v20c0 5.522 4.478 10 10 10z"/><path d="m146 382c0-5.522-4.478-10-10-10s-10 4.478-10 10v20c0 5.522 4.478 10 10 10s10-4.478 10-10z"/><path d="m186 382c0-5.522-4.478-10-10-10s-10 4.478-10 10v20c0 5.522 4.478 10 10 10s10-4.478 10-10z"/><path d="m206 402c0 5.522 4.478 10 10 10s10-4.478 10-10v-20c0-5.522-4.478-10-10-10s-10 4.478-10 10z"/><path d="m136 432c-5.522 0-10 4.478-10 10v20c0 5.522 4.478 10 10 10s10-4.478 10-10v-20c0-5.522-4.478-10-10-10z"/><path d="m186 442c0-5.522-4.478-10-10-10s-10 4.478-10 10v20c0 5.522 4.478 10 10 10s10-4.478 10-10z"/><path d="m206 462c0 5.522 4.478 10 10 10s10-4.478 10-10v-20c0-5.522-4.478-10-10-10s-10 4.478-10 10z"/><circle cx="176" cy="502" r="10"/><path d="m96 272c-5.522 0-10 4.478-10 10v53.82l-34.472 17.236c-3.388 1.694-5.528 5.156-5.528 8.944v140c0 5.522 4.478 10 10 10h75c5.522 0 10-4.478 10-10s-4.478-10-10-10h-25v-200h140v200h-25c-5.522 0-10 4.478-10 10s4.478 10 10 10h235c5.522 0 10-4.478 10-10v-140c0-3.788-2.14-7.25-5.528-8.944l-34.472-17.236v-73.82c0-3.466-1.795-6.685-4.742-8.507-2.947-1.82-6.627-1.989-9.729-.438l-80 40c-3.389 1.695-5.529 5.157-5.529 8.945v43.82l-20-10v-95.999c25.54-7.03 40-19.141 40-33.821 0-14.674-14.461-26.788-40-33.827v-7.438c3.472-2.339 6.783-4.919 9.913-7.724 6.548 1.985 13.279 2.989 20.087 2.989 21.507 0 41.641-10.067 54.796-26.863 7.596 4.473 16.248 6.863 25.204 6.863 27.57 0 50-22.43 50-50s-22.43-50-50-50c-8.956 0-17.608 2.39-25.204 6.863-13.155-16.796-33.289-26.863-54.796-26.863-6.806 0-13.534 1.003-20.081 2.987-16.549-14.871-37.588-22.987-59.919-22.987s-43.37 8.116-59.919 22.987c-6.547-1.984-13.275-2.987-20.081-2.987-21.507 0-41.641 10.067-54.796 26.863-7.596-4.473-16.248-6.863-25.204-6.863-27.57 0-50 22.43-50 50s22.43 50 50 50c8.956 0 17.608-2.39 25.204-6.863 13.155 16.796 33.289 26.863 54.796 26.863 6.808 0 13.539-1.004 20.087-2.989 3.13 2.805 6.441 5.385 9.913 7.724v7.438c-25.539 7.039-40 19.154-40 33.827 0 14.68 14.463 26.793 40 33.821v32.179zm-30 96.181 20-10v133.819h-20zm340 23.819v20h-60v-20zm0 40v20h-60v-20zm0-60h-60v-20h60zm-60 100h60v20h-60zm100 20h-20v-133.82l20 10zm-40-213.819v53.819h-60v-23.819zm-80 93.819h-30c-5.522 0-10 4.478-10 10s4.478 10 10 10h30v20h-30c-5.522 0-10 4.478-10 10s4.478 10 10 10h30v20h-30c-5.522 0-10 4.478-10 10s4.478 10 10 10h30v20h-60v-153.819l60 30zm0-166c0 2.575-6.017 8.236-20 12.917v-25.84c13.982 4.687 20 10.349 20 12.923zm-120.244-67.425c-2.842-2.934-7.178-3.849-10.958-2.306-6.077 2.476-12.402 3.731-18.798 3.731-18.022 0-34.719-9.978-43.573-26.038-1.5-2.723-4.183-4.592-7.256-5.059-3.075-.467-6.189.523-8.431 2.677-5.649 5.43-13.014 8.42-20.74 8.42-16.542 0-30-13.458-30-30s13.458-30 30-30c7.726 0 15.091 2.99 20.74 8.42 2.241 2.154 5.358 3.148 8.431 2.677 3.073-.467 5.756-2.336 7.256-5.059 8.854-16.06 25.551-26.038 43.573-26.038 6.396 0 12.721 1.255 18.798 3.73 3.779 1.541 8.12.628 10.96-2.308 13.364-13.814 31.207-21.422 50.242-21.422s36.878 7.608 50.242 21.423c2.841 2.935 7.178 3.85 10.96 2.308 6.077-2.476 12.402-3.731 18.798-3.731 18.022 0 34.719 9.978 43.573 26.038 1.5 2.723 4.183 4.592 7.256 5.059 3.075.467 6.19-.523 8.431-2.677 5.649-5.43 13.014-8.42 20.74-8.42 16.542 0 30 13.458 30 30s-13.458 30-30 30c-7.726 0-15.091-2.99-20.74-8.42-2.239-2.153-5.354-3.146-8.431-2.677-3.073.467-5.756 2.336-7.256 5.059-8.854 16.06-25.551 26.038-43.573 26.038-6.396 0-12.721-1.255-18.798-3.73-3.779-1.542-8.118-.628-10.958 2.306-4.548 4.698-9.689 8.735-15.282 11.996-3.072 1.792-4.962 5.082-4.962 8.639v64.472c-9.394 1.517-19.607 2.318-30 2.318-10.391 0-20.604-.801-30-2.318 0-14.253 0-50.168 0-64.472 0-3.557-1.89-6.847-4.962-8.639-5.593-3.261-10.734-7.299-15.282-11.997zm-19.756 67.425c0-2.574 6.018-8.236 20-12.923v25.841c-13.982-4.681-20-10.343-20-12.918zm40 37.904c9.548 1.369 19.715 2.096 30 2.096 10.286 0 20.454-.727 30-2.096v81.916l-20-10v-33.82c0-5.522-4.478-10-10-10h-30z"/></g></g></svg>