<svg id="Capa_1" enable-background="new 0 0 512 512" height="512" viewBox="0 0 512 512" width="512" xmlns="http://www.w3.org/2000/svg"><g><g><path d="m10 236v240h492c0-10.481 0-233.399 0-240-13.875 0-478.125 0-492 0z" fill="#ff7b79"/></g><g><path d="m502 26c-5.522 0-10 4.478-10 10v30h-31.857l2.929-2.929c3.905-3.905 3.905-10.237 0-14.143-3.906-3.904-10.236-3.904-14.143 0l-17.072 17.072h-31.715l-17.071-17.071c-3.906-3.904-10.236-3.904-14.143 0-3.905 3.905-3.905 10.237 0 14.143l2.929 2.928h-71.715l2.929-2.929c3.905-3.905 3.905-10.237 0-14.143-3.906-3.904-10.236-3.904-14.143 0l-17.071 17.072h-31.715l-17.071-17.071c-3.906-3.904-10.236-3.904-14.143 0-3.905 3.905-3.905 10.237 0 14.143l2.929 2.928h-71.715l2.929-2.929c3.905-3.905 3.905-10.237 0-14.143-3.906-3.904-10.236-3.904-14.143 0l-17.071 17.072h-31.714l-17.072-17.071c-3.906-3.904-10.236-3.904-14.143 0-3.905 3.905-3.905 10.237 0 14.143l2.929 2.928h-31.857v-30c0-5.522-4.478-10-10-10s-10 4.478-10 10v440c0 5.522 4.478 10 10 10h324c5.522 0 10-4.478 10-10s-4.478-10-10-10h-68v-60h226v60h-68c-5.522 0-10 4.478-10 10s4.478 10 10 10h78c5.522 0 10-4.478 10-10 0-32.267 0-421.217 0-440 0-5.522-4.478-10-10-10zm-356 360v-60h220v60zm-126 0v-60h106v60zm28.929-202.929c3.907 3.905 10.236 3.904 14.143 0l17.071-17.071h31.715l17.071 17.071c3.907 3.905 10.236 3.904 14.143 0 3.905-3.905 3.905-10.237 0-14.143l-2.929-2.928h71.715l-2.929 2.929c-3.905 3.905-3.905 10.237 0 14.143 3.907 3.905 10.236 3.904 14.143 0l17.071-17.072h31.715l17.071 17.071c3.907 3.905 10.236 3.904 14.143 0 3.905-3.905 3.905-10.237 0-14.143l-2.929-2.928h71.715l-2.929 2.929c-3.905 3.905-3.905 10.237 0 14.143 3.907 3.905 10.236 3.904 14.143 0l17.071-17.072h31.715l17.071 17.071c3.907 3.905 10.236 3.904 14.143 0 3.905-3.905 3.905-10.237 0-14.143l-2.929-2.928h31.857v60h-472v-60h31.857l-2.929 2.929c-3.905 3.905-3.905 10.237.001 14.142zm-28.929 122.929v-60h226v60zm246 0v-60h226v60zm-214.143-220-2.929 2.929c-3.905 3.905-3.905 10.237 0 14.143 3.907 3.905 10.236 3.904 14.143 0l17.072-17.072h31.715l17.071 17.071c3.907 3.905 10.236 3.904 14.143 0 3.905-3.905 3.905-10.237 0-14.143l-2.929-2.928h71.715l-2.929 2.929c-3.905 3.905-3.905 10.237 0 14.143 3.907 3.905 10.236 3.904 14.143 0l17.071-17.072h31.715l17.071 17.071c3.907 3.905 10.236 3.904 14.143 0 3.905-3.905 3.905-10.237 0-14.143l-2.929-2.928h71.715l-2.929 2.929c-3.905 3.905-3.905 10.237 0 14.143 3.907 3.905 10.236 3.904 14.143 0l17.071-17.072h31.715l17.071 17.071c3.907 3.905 10.236 3.904 14.143 0 3.905-3.905 3.905-10.237 0-14.143l-2.929-2.928h31.857v60h-31.857l2.929-2.929c3.905-3.905 3.905-10.237 0-14.143-3.906-3.904-10.236-3.904-14.143 0l-17.072 17.072h-31.715l-17.071-17.071c-3.906-3.904-10.236-3.904-14.143 0-3.905 3.905-3.905 10.237 0 14.143l2.929 2.929h-71.715l2.929-2.929c3.905-3.905 3.905-10.237 0-14.143-3.906-3.904-10.236-3.904-14.143 0l-17.071 17.071h-31.715l-17.071-17.071c-3.906-3.904-10.236-3.904-14.143 0-3.905 3.905-3.905 10.237 0 14.143l2.929 2.929h-71.715l2.929-2.929c3.905-3.905 3.905-10.237 0-14.143-3.906-3.904-10.236-3.904-14.143 0l-17.071 17.071h-31.714l-17.071-17.071c-3.906-3.904-10.236-3.904-14.143 0-3.905 3.905-3.905 10.237 0 14.143l2.928 2.928h-31.857v-60zm194.143 380h-226v-60h226zm140-80v-60h106v60z"/><circle cx="379" cy="476" r="10"/></g></g></svg>