<svg id="Capa_1" enable-background="new 0 0 512 512" height="512" viewBox="0 0 512 512" width="512" xmlns="http://www.w3.org/2000/svg"><g><g><path d="m299 342h160v160h-160z" fill="#ff7b79"/><path d="m502 190c0 22.09-17.91 40-40 40h-125.38c-50.232 0-96.073-27.053-120.62-70-24.74-43.29-70.77-70-120.62-70h-32.05l-13.33 40h-40l20-60-20-60h40l13.33 40h298.67c77.32 0 140 62.68 140 140z" fill="#91def5"/><path d="m453.65 150h-111.65v-60h20c40.92 0 76.19 24.71 91.65 60z" fill="#eefaff"/><path d="m419 402v40h-20v20h-40v-20h-20v-40h20v-20h40v20z" fill="#eefaff"/><path d="m302 90h40v60h-40z" fill="#8690a6"/></g><g><path d="m349 382v10h-10c-5.523 0-10 4.478-10 10v40c0 5.522 4.477 10 10 10h10v10c0 5.522 4.477 10 10 10h40c5.523 0 10-4.478 10-10v-10h10c5.523 0 10-4.478 10-10v-40c0-5.522-4.477-10-10-10h-10v-10c0-5.522-4.477-10-10-10h-40c-5.523 0-10 4.478-10 10zm20 20v-10h20v10c0 5.522 4.477 10 10 10h10v20h-10c-5.523 0-10 4.478-10 10v10h-20v-10c0-5.522-4.477-10-10-10h-10v-20h10c5.523 0 10-4.478 10-10z"/><path d="m453.65 160c3.375 0 6.523-1.703 8.371-4.528 1.847-2.826 2.144-6.393.789-9.484-17.561-40.087-57.131-65.988-100.81-65.988h-60c-5.523 0-10 4.478-10 10v60c0 5.522 4.477 10 10 10zm-16.836-20h-84.814v-40h10c30.349 0 58.279 15.293 74.814 40zm-124.814-40h20v40h-20z"/><path d="m502 20c5.523 0 10-4.478 10-10s-4.477-10-10-10h-320c-5.523 0-10 4.478-10 10s4.477 10 10 10h150v20h-81c-5.523 0-10 4.478-10 10s4.477 10 10 10h111c71.682 0 130 58.317 130 130 0 16.542-13.458 30-30 30h-125.38c-45.419 0-88.509-23.97-111.938-64.962-26.452-46.285-75.997-75.038-129.302-75.038h-32.05c-4.305 0-8.126 2.755-9.487 6.839l-11.051 33.161h-18.918l15.613-46.838c.684-2.053.684-4.271 0-6.324l-15.613-46.838h18.918l11.051 33.161c1.361 4.084 5.182 6.839 9.487 6.839h97.67c5.523 0 10-4.478 10-10s-4.477-10-10-10h-90.462l-11.051-33.161c-1.361-4.084-5.182-6.839-9.487-6.839h-40c-3.214 0-6.233 1.545-8.112 4.153-1.879 2.607-2.391 5.96-1.375 9.009l18.946 56.838-18.946 56.838c-1.017 3.049-.505 6.401 1.375 9.009 1.879 2.608 4.898 4.153 8.112 4.153h40c4.305 0 8.126-2.755 9.487-6.839l11.051-33.161h24.842c46.146 0 89.038 24.892 111.938 64.962 17.657 30.893 45.411 54.166 78.682 66.17v34.868h-30c-5.523 0-10 4.478-10 10s4.477 10 10 10h113v46h-70c-5.523 0-10 4.478-10 10v160c0 5.522 4.477 10 10 10h160c5.523 0 10-4.478 10-10v-160c0-5.522-4.477-10-10-10h-70v-46h93c16.542 0 30-13.458 30-30 0-5.522-4.477-10-10-10s-10 4.478-10 10c0 5.514-4.486 10-10 10h-10v-27.006c22.795-4.646 40-24.847 40-48.994 0-82.71-67.29-150-150-150h-10v-20zm-53 472h-140v-140h140zm-143-226v-29.206c10.059 2.114 20.308 3.206 30.62 3.206h115.38v26z"/><circle cx="206" cy="50" r="10"/></g></g></svg>