<svg id="Capa_1" enable-background="new 0 0 512 512" height="512" viewBox="0 0 512 512" width="512" xmlns="http://www.w3.org/2000/svg"><g><g><g><path d="m236 70v246h246v-246z" fill="#a7e8a6"/><path d="m10 296h326v206h-326z" fill="#ff7b79"/><path d="m153 359c-12.85 0-24.99 3.38-35.75 8.18v63.64c10.76 4.8 22.9 8.18 35.75 8.18 44.18 0 80-40 80-40s-35.82-40-80-40z" fill="#ffda8f"/><path d="m336 316h146v60h-146z" fill="#eefaff"/><circle cx="359" cy="193" fill="#eefaff" r="60"/><path d="m273 359v80c-22.09 0-40-17.91-40-40 0-11.04 4.48-21.04 11.72-28.28s17.24-11.72 28.28-11.72z" fill="#ffda8f"/><path d="m117.25 367.18c9.57 7.31 15.75 18.84 15.75 31.82s-6.18 24.51-15.75 31.82c-26.24-11.7-44.25-31.82-44.25-31.82s18.01-20.12 44.25-31.82z" fill="#fce8d0"/></g><path d="m236 10h246v60h-246z" fill="#eefaff"/></g><g><path d="m273 449c5.522 0 10-4.478 10-10v-80c0-5.522-4.478-10-10-10-20.82 0-38.564 12.714-46.098 30.591-15.383-12.798-42.431-30.591-73.902-30.591-32.005 0-66.557 20.021-87.451 43.33-3.398 3.797-3.398 9.543 0 13.34 21.097 23.535 55.578 43.33 87.451 43.33 31.481 0 58.536-17.805 73.917-30.603 7.59 17.964 25.388 30.603 46.083 30.603zm-10-78.298v56.584c-11.64-4.127-19.999-15.247-20-28.283 0-.002 0-.004 0-.006.002-13.316 8.611-24.276 20-28.295zm-147.515 8.436c4.823 5.436 7.515 12.418 7.515 19.862 0 7.443-2.692 14.425-7.513 19.861-12.165-6.336-22.079-14.323-28.215-19.871 6.116-5.539 16-13.502 28.213-19.852zm37.515 49.862c-5.914 0-12.004-.843-18.21-2.502 5.31-8.041 8.21-17.52 8.21-27.498s-2.9-19.457-8.21-27.498c6.206-1.66 12.296-2.502 18.21-2.502 28.563 0 53.977 19.419 65.702 30-11.725 10.581-37.139 30-65.702 30z"/><path d="m429 193c0-38.598-31.402-70-70-70s-70 31.402-70 70 31.402 70 70 70 70-31.402 70-70zm-120 0c0-27.57 22.43-50 50-50s50 22.43 50 50-22.43 50-50 50-50-22.43-50-50z"/><path d="m502 366h-10v-346h10c5.522 0 10-4.478 10-10s-4.478-10-10-10c-20.935 0-275.689 0-286 0-5.522 0-10 4.478-10 10s4.478 10 10 10h10v266h-93c-38.598 0-70-31.402-70-70 0-5.522-4.478-10-10-10s-10 4.478-10 10c0 28.245 13.082 53.487 33.501 70h-66.501c-5.522 0-10 4.478-10 10v206c0 5.522 4.478 10 10 10h118c5.522 0 10-4.478 10-10s-4.478-10-10-10h-108v-186h306v186h-108c-5.522 0-10 4.478-10 10s4.478 10 10 10h118c5.522 0 10-4.478 10-10v-116h156c5.522 0 10-4.478 10-10s-4.478-10-10-10zm-30-306h-226v-40h226zm-226 226v-206h226v226h-126v-10c0-5.522-4.478-10-10-10zm100 40h126v40h-126z"/><circle cx="173" cy="502" r="10"/></g></g></svg>