<svg id="Capa_1" enable-background="new 0 0 512.003 512.003" height="512" viewBox="0 0 512.003 512.003" width="512" xmlns="http://www.w3.org/2000/svg"><g><g><path d="m396.001 30h-280c-11.05 0-20 8.95-20 20v266h40l40-40h160l40 40h40c0-14.994 0-251.007 0-266 0-11.05-8.95-20-20-20z" fill="#ff7b79"/><path d="m416.001 316v40c0 11.05-8.95 20-20 20-27.175 0-269.429 0-280 0-11.05 0-20-8.95-20-20v-40h40l40-40h160l40 40z" fill="#ffda8f"/><circle cx="256.001" cy="30" fill="#ffda8f" r="20"/><path d="m136.001 90v126h240v-126c-6.771 0-233.232 0-240 0z" fill="#eefaff"/></g><g><path d="m227.722 20h-111.72c-16.542 0-30 13.458-30 30v306c0 16.542 13.458 30 30 29.99h46.333c-12.842 40.461-21.998 69.303-35.865 112.984-1.671 5.265 1.241 10.887 6.505 12.558 5.274 1.673 10.889-1.249 12.558-6.505l12.389-39.027h196.159l12.389 39.026c1.67 5.262 7.289 8.176 12.558 6.505 5.264-1.671 8.176-7.293 6.505-12.558-6.888-21.697-27.823-87.643-35.865-112.974h46.333c16.542 0 30-13.458 30-30v-305.999c0-16.542-13.458-30-30-30h-111.72c-4.128-11.639-15.243-20-28.28-20s-24.152 8.361-28.279 20zm-63.451 426 6.349-20h170.762l6.349 20zm170.762-40h-158.063l6.349-20h145.365zm70.968-356v196h-30c-5.522 0-10 4.478-10 10s4.478 10 10 10h30v40h-25.857l-37.071-37.071c-1.876-1.875-4.419-2.929-7.071-2.929h-35c-5.522 0-10 4.478-10 10s4.478 10 10 10h30.857l37.071 37.071c1.876 1.875 4.419 2.929 7.071 2.929h30v30c0 5.514-4.486 10-10 10-39.849 0-239.795 0-280 0-5.514 0-10-4.486-10-10v-30h30c2.652 0 5.195-1.054 7.071-2.929l37.072-37.071h30.857c5.522 0 10-4.478 10-10s-4.478-10-10-10h-35c-2.652 0-5.195 1.054-7.071 2.929l-37.071 37.071h-25.857v-40h30c5.522 0 10-4.478 10-10s-4.478-10-10-10h-30v-196c0-5.514 4.486-10 10-10h111.72c4.128 11.639 15.243 20 28.28 20s24.152-8.361 28.28-20h111.72c5.513 0 9.999 4.486 9.999 10zm-150-30c5.514 0 10 4.486 10 10s-4.486 10-10 10-10-4.486-10-10 4.487-10 10-10z"/><path d="m136.001 80c-5.522 0-10 4.478-10 10v126c0 5.522 4.478 10 10 10h240c5.522 0 10-4.478 10-10v-126c0-5.522-4.478-10-10-10zm10 20h100v106h-100zm220 106h-100v-106h100z"/><path d="m216.001 306c-5.522 0-10 4.478-10 10v20c0 5.522 4.478 10 10 10s10-4.478 10-10v-20c0-5.522-4.477-10-10-10z"/><path d="m256.001 306c-5.522 0-10 4.478-10 10v20c0 5.522 4.478 10 10 10s10-4.478 10-10v-20c0-5.522-4.477-10-10-10z"/><path d="m286.001 316v20c0 5.522 4.478 10 10 10s10-4.478 10-10v-20c0-5.522-4.478-10-10-10s-10 4.478-10 10z"/><circle cx="256.001" cy="275.999" r="10"/></g></g></svg>