<svg id="Capa_1" enable-background="new 0 0 512 512" height="512" viewBox="0 0 512 512" width="512" xmlns="http://www.w3.org/2000/svg"><g><g><path d="m136 170h240v332h-240c0-18.447 0-313.553 0-332z" fill="#ff7b79"/><path d="m371.44 153.88c-.05 5.47-.48 10.85-1.26 16.12h-234.18c-3.07-20.16-3.93-40.57 15.5-60v9.08c0 15.21 14.9 25.95 29.33 21.14 13.64-4.54 19.03-20.34 11.89-32.82-8-13.97-13.06-33.73-1.22-57.4l26.99 33.49c8.38 4.19 18.6 2.13 24.44-5.19 10.9-13.65 23.6-38.23 8.57-68.3 33.34 11.11 51.67 46.84 41.25 80.4l-3.82 12.29c-2.85 9.19.67 19.17 8.66 24.53 14.46 9.72 33.91-.65 33.91-18.07v-19.15c24.26 12.13 39.62 36.81 39.94 63.88z" fill="#ffda8f"/><path d="m297.96 288.68 20 34.64-21.96 12.68 21.96 12.68-20 34.64-21.96-12.68v25.36h-40v-25.36l-21.96 12.68-20-34.64 21.96-12.68-21.96-12.68 20-34.64 21.96 12.68v-25.36h40v25.36z" fill="#eefaff"/></g><g><path d="m286 396v-8.038l6.959 4.019c4.779 2.761 10.899 1.124 13.661-3.66l20-34.641c2.761-4.783 1.123-10.898-3.66-13.66l-6.962-4.02 6.962-4.02c4.783-2.762 6.421-8.877 3.66-13.66l-20-34.641c-2.754-4.77-8.87-6.428-13.661-3.66l-6.959 4.019v-8.038c0-5.522-4.477-10-10-10h-40c-5.523 0-10 4.478-10 10v8.038l-6.959-4.019c-4.78-2.761-10.9-1.121-13.661 3.66l-20 34.641c-2.761 4.783-1.123 10.898 3.66 13.66l6.962 4.02-6.962 4.02c-4.783 2.762-6.421 8.877-3.66 13.66l20 34.641c2.76 4.779 8.879 6.422 13.661 3.66l6.959-4.019v8.038c0 5.522 4.477 10 10 10h40c5.523 0 10-4.478 10-10zm-20-25.36v15.36h-20v-15.36c0-3.573-1.906-6.874-5-8.66-3.094-1.787-6.906-1.785-10 0l-13.3 7.68-10-17.319 13.3-7.68c3.094-1.786 5-5.088 5-8.66s-1.906-6.874-5-8.66l-13.3-7.68 10-17.319 13.3 7.68c3.094 1.787 6.906 1.787 10 0 3.094-1.786 5-5.087 5-8.66v-15.362h20v15.36c0 3.573 1.906 6.874 5 8.66 3.094 1.787 6.906 1.785 10 0l13.3-7.68 10 17.319-13.3 7.68c-3.094 1.786-5 5.088-5 8.66s1.906 6.874 5 8.66l13.3 7.68-10 17.319-13.3-7.68c-3.094-1.787-6.906-1.787-10 0-3.094 1.788-5 5.088-5 8.662z"/><path d="m155.327 100.761c-3.736-1.544-8.037-.691-10.897 2.168-18.949 18.949-21.287 38.855-19.731 57.071h-8.699c-5.523 0-10 4.478-10 10s4.477 10 10 10h10v146h-10c-5.523 0-10 4.478-10 10s4.477 10 10 10h10v146h-10c-5.523 0-10 4.478-10 10s4.477 10 10 10h95c5.523 0 10-4.478 10-10s-4.477-10-10-10h-65v-146h10c5.523 0 10-4.478 10-10s-4.477-10-10-10h-10v-146h220v146h-10c-5.523 0-10 4.478-10 10s4.477 10 10 10h10v146h-65c-5.523 0-10 4.478-10 10s4.477 10 10 10h95c5.523 0 10-4.478 10-10s-4.477-10-10-10h-10v-146h10c5.523 0 10-4.478 10-10s-4.477-10-10-10h-10v-146h10c5.523 0 10-4.478 10-10s-4.477-10-10-10h-14.777c.114-2.011.198-4.023.216-6.029 0-.069 0-.14 0-.209-.367-31.007-17.789-58.866-45.467-72.706-3.1-1.551-6.781-1.384-9.729.438s-4.743 5.041-4.743 8.507v19.15c0 9.411-10.49 15.044-18.339 9.765-4.286-2.875-6.209-8.328-4.681-13.257l3.821-12.293c5.82-18.745 4.091-38.686-4.868-56.148s-24.15-30.499-42.771-36.705c-3.838-1.276-8.066-.12-10.716 2.935-2.65 3.056-3.199 7.406-1.391 11.023 12.265 24.539 2.724 44.861-7.442 57.593-2.456 3.078-6.634 4.27-10.449 3.151l-25.378-31.49c-2.135-2.649-5.468-4.032-8.857-3.667-3.384.364-6.35 2.425-7.873 5.469-11.222 22.435-10.708 45.549 1.484 66.84 2.034 3.556 2.4 7.69 1.004 11.345-2.805 7.342-11.952 10.012-18.443 5.335-3.242-2.337-5.101-5.969-5.101-9.966v-9.081c0-4.045-2.437-7.691-6.173-9.239zm48.401 30.088c3.544-9.277 2.696-19.634-2.33-28.417-5.948-10.388-8.037-21.095-6.264-31.986l15.57 19.32c.9 1.117 2.031 2.027 3.314 2.669 12.603 6.302 28.051 2.979 36.726-7.895 8.445-10.575 19.675-29.49 17.344-53.309 14.891 13.896 21.487 35.669 15.112 56.201l-3.822 12.296c-4.129 13.313 1.068 28.034 12.632 35.79 21.08 14.172 49.489-.972 49.489-26.368v-.216c12.356 11.415 19.705 27.526 19.939 44.96-.021 2.032-.113 4.07-.25 6.105h-216.384c-.874-8.915-.629-16.615 1.592-23.752 2.179 3.461 5.044 6.523 8.511 9.022 17.436 12.569 41.457 4.855 48.821-14.42z"/><path d="m52.7 75c2.771 4.8 8.892 6.413 13.66 3.66l19.64-11.339v22.679c0 5.522 4.477 10 10 10s10-4.478 10-10v-22.679l19.64 11.34c4.773 2.755 10.892 1.134 13.66-3.66 2.762-4.783 1.123-10.898-3.66-13.66l-19.641-11.341 19.641-11.34c4.783-2.762 6.422-8.877 3.66-13.66s-8.877-6.423-13.66-3.66l-19.64 11.339v-22.679c0-5.522-4.477-10-10-10s-10 4.478-10 10v22.679l-19.64-11.339c-4.782-2.761-10.899-1.122-13.66 3.66-2.762 4.783-1.123 10.898 3.66 13.66l19.641 11.34-19.641 11.34c-4.783 2.762-6.422 8.877-3.66 13.66z"/><path d="m412.7 241c2.771 4.8 8.892 6.413 13.66 3.66l19.64-11.34v22.68c0 5.522 4.477 10 10 10s10-4.478 10-10v-22.679l19.64 11.34c4.773 2.755 10.892 1.134 13.66-3.66 2.762-4.783 1.123-10.898-3.66-13.66l-19.641-11.341 19.641-11.34c4.783-2.762 6.422-8.877 3.66-13.66s-8.877-6.422-13.66-3.66l-19.64 11.339v-22.679c0-5.522-4.477-10-10-10s-10 4.478-10 10v22.679l-19.64-11.34c-4.782-2.761-10.898-1.122-13.66 3.66-2.762 4.783-1.123 10.898 3.66 13.66l19.641 11.341-19.641 11.34c-4.783 2.762-6.422 8.877-3.66 13.66z"/><path d="m12.7 281c2.771 4.8 8.892 6.413 13.66 3.66l19.64-11.339v22.679c0 5.522 4.477 10 10 10s10-4.478 10-10v-22.679l19.64 11.34c4.773 2.755 10.892 1.134 13.66-3.66 2.762-4.783 1.123-10.898-3.66-13.66l-19.641-11.341 19.641-11.34c4.783-2.762 6.422-8.877 3.66-13.66-2.761-4.782-8.878-6.423-13.66-3.66l-19.64 11.339v-22.679c0-5.522-4.477-10-10-10s-10 4.478-10 10v22.679l-19.64-11.34c-4.781-2.76-10.898-1.123-13.66 3.66s-1.123 10.898 3.66 13.66l19.641 11.341-19.641 11.34c-4.783 2.762-6.422 8.877-3.66 13.66z"/><circle cx="256" cy="502" r="10"/></g></g></svg>