<svg id="Capa_1" enable-background="new 0 0 512 512" height="512" viewBox="0 0 512 512" width="512" xmlns="http://www.w3.org/2000/svg"><g><g><path d="m396 216v-63h-280v63h-106v286h492v-286z" fill="#eefaff"/><path d="m356 216h-200c0-6.26 0-196.331 0-206h200z" fill="#ff7b79"/><g fill="#91def5"><path d="m462 416h40v40h-40z"/><path d="m462 336h40v40h-40z"/><path d="m462 256h40v40h-40z"/><path d="m316 336h40v40h-40z"/><path d="m316 256h40v40h-40z"/><path d="m236 336h40v40h-40z"/><path d="m236 256h40v40h-40z"/><path d="m176 416v86h160v-86c-4.514 0-155.488 0-160 0z"/><path d="m156 336h40v40h-40z"/><path d="m156 256h40v40h-40z"/><path d="m10 416h40v40h-40z"/><path d="m10 336h40v40h-40z"/><path d="m10 256h40v40h-40z"/></g><path d="m317.96 100.32-20-34.64-21.96 12.68v-25.36h-40v25.36l-21.96-12.68-20 34.64 21.96 12.68-21.96 12.68 20 34.64 21.96-12.68v25.36h40v-25.36l21.96 12.68 20-34.64-21.96-12.68z" fill="#eefaff"/></g><g><path d="m226 53v8.038l-6.959-4.019c-2.296-1.325-5.024-1.686-7.588-.999-2.562.687-4.746 2.362-6.072 4.659l-20 34.641c-2.761 4.783-1.123 10.898 3.66 13.66l6.962 4.02-6.962 4.02c-4.783 2.762-6.421 8.877-3.66 13.66l20 34.641c2.755 4.772 8.868 6.426 13.661 3.66l6.959-4.019v8.038c0 5.522 4.477 10 10 10h40c5.522 0 10-4.478 10-10v-8.038l6.959 4.019c4.778 2.761 10.9 1.122 13.661-3.66l20-34.641c2.762-4.783 1.123-10.898-3.66-13.66l-6.961-4.02 6.961-4.02c4.783-2.762 6.422-8.877 3.66-13.66l-20-34.641c-1.326-2.297-3.511-3.973-6.072-4.659-2.561-.687-5.29-.328-7.589.999l-6.96 4.019v-8.038c0-5.522-4.478-10-10-10h-40c-5.523 0-10 4.478-10 10zm20 25.36v-15.36h20v15.36c0 7.673 8.326 12.512 15.001 8.66l13.299-7.68 10 17.319-13.3 7.68c-6.657 3.843-6.659 13.476 0 17.32l13.3 7.68-10 17.319-13.299-7.68c-6.655-3.842-15.001.966-15.001 8.66v15.362h-20v-15.36c0-7.673-8.325-12.512-15-8.66l-13.3 7.68-10-17.319 13.3-7.68c6.642-3.834 6.675-13.466 0-17.32l-13.3-7.68 10-17.319 13.3 7.68c6.638 3.833 15-.949 15-8.662z"/><path d="m156 306h40c5.523 0 10-4.478 10-10v-40c0-5.522-4.477-10-10-10h-40c-5.523 0-10 4.478-10 10v40c0 5.522 4.477 10 10 10zm10-40h20v20h-20z"/><path d="m196 386c5.523 0 10-4.478 10-10v-40c0-5.522-4.477-10-10-10h-40c-5.523 0-10 4.478-10 10v40c0 5.522 4.477 10 10 10zm-30-40h20v20h-20z"/><path d="m236 306h40c5.522 0 10-4.478 10-10v-40c0-5.522-4.478-10-10-10h-40c-5.523 0-10 4.478-10 10v40c0 5.522 4.477 10 10 10zm10-40h20v20h-20z"/><path d="m236 386h40c5.522 0 10-4.478 10-10v-40c0-5.522-4.478-10-10-10h-40c-5.523 0-10 4.478-10 10v40c0 5.522 4.477 10 10 10zm10-40h20v20h-20z"/><path d="m316 306h40c5.522 0 10-4.478 10-10v-40c0-5.522-4.478-10-10-10h-40c-5.522 0-10 4.478-10 10v40c0 5.522 4.478 10 10 10zm10-40h20v20h-20z"/><path d="m316 386h40c5.522 0 10-4.478 10-10v-40c0-5.522-4.478-10-10-10h-40c-5.522 0-10 4.478-10 10v40c0 5.522 4.478 10 10 10zm10-40h20v20h-20z"/><path d="m502 206h-96v-53c0-5.522-4.478-10-10-10h-30v-133c0-5.522-4.478-10-10-10h-55c-5.522 0-10 4.478-10 10s4.478 10 10 10h45v186h-180v-186h45c5.523 0 10-4.478 10-10s-4.477-10-10-10h-55c-5.523 0-10 4.478-10 10v133h-30c-5.523 0-10 4.478-10 10v53h-96c-5.523 0-10 4.478-10 10v286c0 5.522 4.477 10 10 10h492c5.522 0 10-4.478 10-10v-286c0-5.522-4.478-10-10-10zm-10 240h-20v-20h20zm0-80h-20v-20h20zm0-80h-20v-20h20zm-472 140h20v20h-20zm0-80h20v20h-20zm0-80h20v20h-20zm0 200h30c5.523 0 10-4.478 10-10v-40c0-5.522-4.477-10-10-10h-30v-20h30c5.523 0 10-4.478 10-10v-40c0-5.522-4.477-10-10-10h-30v-20h30c5.523 0 10-4.478 10-10v-40c0-5.522-4.477-10-10-10h-30v-20h86v266h-86zm106-303h20v53c0 5.522 4.477 10 10 10h200c5.522 0 10-4.478 10-10v-53h20v329h-40v-76c0-5.522-4.478-10-10-10h-160c-5.523 0-10 4.478-10 10v76h-40zm140 263h60v66h-60zm-20 66h-60v-66h60zm160 0v-266h86v20h-30c-5.522 0-10 4.478-10 10v40c0 5.522 4.478 10 10 10h30v20h-30c-5.522 0-10 4.478-10 10v40c0 5.522 4.478 10 10 10h30v20h-30c-5.522 0-10 4.478-10 10v40c0 5.522 4.478 10 10 10h30v26z"/><circle cx="256" cy="10" r="10"/></g></g></svg>