<svg id="Capa_1" enable-background="new 0 0 512 512" height="512" viewBox="0 0 512 512" width="512" xmlns="http://www.w3.org/2000/svg"><g><g><path d="m482 156c-18.477 0-127.632 0-146 0v120h166c0-32.019 0-68.558 0-100 0-11.05-8.95-20-20-20z" fill="#a7e8a6"/><path d="m10 10v266h326c0-73.326 0-181.661 0-266z" fill="#ff7b79"/><path d="m424.53 84.06 34.47 71.94h-123v-83h70.64c7.57 0 14.5 4.28 17.89 11.06z" fill="#8690a6"/><path d="m419 236c22.09 0 40 17.91 40 40s-17.91 40-40 40-40-17.91-40-40 17.91-40 40-40z" fill="#eefaff"/><path d="m217.96 85.68 20 34.64-21.96 12.68 21.96 12.68-20 34.64-21.96-12.68v25.36h-40v-25.36l-21.96 12.68-20-34.64 21.96-12.68-21.96-12.68 20-34.64 21.96 12.68v-25.36h40v25.36z" fill="#eefaff"/><path d="m296 379c0-15.43 0-104.714 0-123-14.518 0-105.386 0-120 0v123h-60v123h240v-123z" fill="#fce8d0"/><path d="m96 236c22.09 0 40 17.91 40 40s-17.91 40-40 40-40-17.91-40-40 17.91-40 40-40z" fill="#eefaff"/></g><g><circle cx="419" cy="276" r="10"/><circle cx="96" cy="276" r="10"/><path d="m146 73v8.038l-6.959-4.019c-4.778-2.761-10.9-1.122-13.661 3.66l-20 34.641c-2.762 4.783-1.123 10.898 3.66 13.66l6.961 4.02-6.961 4.02c-4.783 2.762-6.422 8.877-3.66 13.66l20 34.641c2.758 4.777 8.875 6.423 13.661 3.66l6.959-4.019v8.038c0 5.522 4.478 10 10 10h40c5.522 0 10-4.478 10-10v-8.038l6.959 4.019c4.779 2.76 10.899 1.124 13.661-3.66l20-34.641c2.762-4.783 1.123-10.898-3.66-13.66l-6.961-4.02 6.961-4.02c4.783-2.762 6.422-8.877 3.66-13.66l-20-34.641c-2.759-4.778-8.875-6.423-13.661-3.66l-6.959 4.019v-8.038c0-5.522-4.478-10-10-10h-40c-5.522 0-10 4.478-10 10zm20 25.36v-15.36h20v15.36c0 7.673 8.326 12.512 15.001 8.66l13.299-7.68 10 17.319-13.3 7.68c-6.657 3.843-6.659 13.476 0 17.32l13.3 7.68-10 17.319-13.299-7.68c-6.655-3.842-15.001.966-15.001 8.66v15.362h-20v-15.36c0-3.573-1.906-6.874-5-8.66-3.096-1.787-6.907-1.785-10.001 0l-13.299 7.68-10-17.319 13.3-7.68c6.657-3.843 6.659-13.476 0-17.32l-13.3-7.68 10-17.319 13.299 7.68c6.655 3.841 15.001-.968 15.001-8.662z"/><path d="m482 146h-16.703s-31.798-66.363-31.823-66.414c-5.117-10.231-15.399-16.586-26.834-16.586h-60.64v-53c0-5.522-4.478-10-10-10h-115c-5.522 0-10 4.478-10 10s4.478 10 10 10h105v246h-20v-10c0-5.522-4.478-10-10-10h-120c-5.522 0-10 4.478-10 10v10h-21.006c-4.646-22.795-24.847-40-48.994-40s-44.348 17.205-48.994 40h-27.006v-43h10c5.522 0 10-4.478 10-10s-4.478-10-10-10h-10v-183h111c5.522 0 10-4.478 10-10s-4.478-10-10-10h-121c-5.522 0-10 4.478-10 10v266c0 5.522 4.478 10 10 10h37.006c4.646 22.795 24.847 40 48.994 40s44.348-17.205 48.994-40h21.006v83h-50c-5.522 0-10 4.478-10 10v123c0 5.522 4.478 10 10 10h240c5.522 0 10-4.478 10-10v-123c0-5.522-4.478-10-10-10h-50v-83h64.006c4.646 22.795 24.847 40 48.994 40s44.348-17.205 48.994-40h34.006c5.522 0 10-4.478 10-10v-100c0-16.542-13.458-30-30-30zm-386 160c-16.542 0-30-13.458-30-30s13.458-30 30-30 30 13.458 30 30-13.458 30-30 30zm90-40h40v30c0 5.522 4.478 10 10 10s10-4.478 10-10v-30h40v103h-100zm-60 123h40v30c0 5.522 4.478 10 10 10s10-4.478 10-10v-30h40v103h-100zm220 103h-100v-103h40v30c0 5.522 4.478 10 10 10s10-4.478 10-10v-30h40zm69.556-403.528 27.564 57.528h-97.12v-63h60.64c3.789 0 7.198 2.095 8.916 5.472zm3.444 217.528c-16.542 0-30-13.458-30-30s13.458-30 30-30 30 13.458 30 30-13.458 30-30 30zm48.994-40c-4.646-22.795-24.847-40-48.994-40s-44.348 17.205-48.994 40h-24.006v-100h136c5.514 0 10 4.486 10 10v30h-10c-5.522 0-10 4.478-10 10s4.478 10 10 10h10v40z"/><circle cx="176" cy="10" r="10"/></g></g></svg>