<svg id="Capa_1" enable-background="new 0 0 512 512" height="512" viewBox="0 0 512 512" width="512" xmlns="http://www.w3.org/2000/svg"><g><g><path d="m210 376h-160c-22.09 0-40 17.91-40 40v86h240v-86c0-22.09-17.91-40-40-40z" fill="#ff7b79"/><path d="m130 216c-44.18 0-80 35.82-80 80v120h160v-120c0-44.18-35.82-80-80-80z" fill="#8690a6"/><path d="m461.51 84.83c24.39 16.1 40.49 43.76 40.49 75.17 0 31.99-16.69 60.09-41.85 76.05-7.25 30.92-35.01 53.95-68.15 53.95-19.45 0-37.05-7.94-49.74-20.75-3.35.5-6.77.75-10.26.75-35.58 0-64.95-26.54-69.41-60.9-23.12-4.41-40.59-24.71-40.59-49.1 0-17.52 9.05-32.88 22.69-41.81-1.58-5.84-2.69-11.86-2.69-18.19 0-38.66 31.34-70 70-70 9.41 0 18.36 1.92 26.56 5.29 12.84-15.33 31.88-25.29 53.44-25.29 40.23 0 72.09 34.06 69.51 74.83z" fill="#eefaff"/><path d="m442 130c0 44.18-35.82 80-80 80s-80-35.82-80-80z" fill="#a7e8a6"/><circle cx="276" cy="316" fill="#eefaff" r="20"/><path d="m170 296v40c0 22.09-17.91 40-40 40s-40-17.91-40-40v-40z" fill="#fce8d0"/></g><g><path d="m170 286h-80c-5.523 0-10 4.478-10 10v40c0 27.57 22.43 50 50 50s50-22.43 50-50v-40c0-5.522-4.477-10-10-10zm-10 50c0 16.542-13.458 30-30 30s-30-13.458-30-30v-30h60z"/><path d="m276 286c-16.542 0-30 13.458-30 30s13.458 30 30 30 30-13.458 30-30-13.458-30-30-30zm0 40c-5.514 0-10-4.486-10-10s4.486-10 10-10 10 4.486 10 10-4.486 10-10 10z"/><path d="m471.658 79.736c-.203-43.336-34.925-79.736-79.658-79.736-21.131 0-41.295 8.533-56.319 23.627-7.699-2.409-15.637-3.627-23.681-3.627-44.112 0-80 35.888-80 80 0 4.552.468 9.141 1.454 14.097-13.548 11.345-21.454 28.039-21.454 45.903 0 26.373 17.229 49.4 41.857 57.19 7.943 36.255 40.394 62.81 78.143 62.81 2.268 0 4.53-.095 6.766-.282 14.675 13.116 33.392 20.282 53.234 20.282 35.642 0 66.951-23.609 76.851-57.721 27.096-18.715 43.149-49.177 43.149-82.279 0-31.809-14.98-61.407-40.342-80.264zm-16.865 147.869c-2.21 1.401-3.782 3.613-4.379 6.161-6.383 27.222-30.404 46.234-58.414 46.234-16.13 0-31.272-6.317-42.636-17.788-1.892-1.909-4.456-2.962-7.104-2.962-.49 0-.984.036-1.477.109-2.846.425-5.802.641-8.783.641-30.055 0-55.631-22.436-59.493-52.188-.556-4.284-3.8-7.727-8.043-8.536-18.811-3.587-32.464-20.105-32.464-39.276 0-13.494 6.792-25.996 18.167-33.443 3.621-2.37 5.306-6.8 4.176-10.978-1.598-5.909-2.343-10.859-2.343-15.579 0-33.084 26.916-60 60-60 7.772 0 15.43 1.527 22.759 4.539 4.031 1.657 8.67.513 11.467-2.828 11.557-13.798 28.24-21.711 45.774-21.711 34.082 0 61.773 28.758 59.53 64.198-.227 3.578 1.479 7.003 4.471 8.978 22.541 14.88 35.999 39.86 35.999 66.824 0 27.554-13.909 52.827-37.207 67.605z"/><path d="m442 120h-35.857l22.929-22.929c3.905-3.905 3.905-10.237 0-14.143-3.905-3.904-10.237-3.904-14.143 0l-37.072 37.072h-95.857c-5.523 0-10 4.478-10 10 0 49.626 40.374 90 90 90s90-40.374 90-90c0-5.522-4.477-10-10-10zm-80 80c-35.203 0-64.421-26.122-69.288-60.01h138.576c-4.867 33.888-34.085 60.01-69.288 60.01z"/><circle cx="130" cy="502" r="10"/><path d="m220 367.006v-71.006c0-49.626-40.374-90-90-90s-90 40.374-90 90v71.006c-22.795 4.646-40 24.848-40 48.994v86c0 5.522 4.477 10 10 10h75c5.523 0 10-4.478 10-10s-4.477-10-10-10h-25v-36c0-5.522-4.477-10-10-10s-10 4.478-10 10v36h-20v-76c0-13.036 8.361-24.152 20-28.28v28.28c0 5.522 4.477 10 10 10h160c5.523 0 10-4.478 10-10v-28.28c11.639 4.128 20 15.243 20 28.28v76h-20v-36c0-5.522-4.477-10-10-10s-10 4.478-10 10v36h-25c-5.523 0-10 4.478-10 10s4.477 10 10 10h75c5.523 0 10-4.478 10-10v-86c0-24.146-17.205-44.348-40-48.994zm-20 38.994h-140v-110c0-38.599 31.402-70 70-70s70 31.401 70 70z"/></g></g></svg>