<svg id="Capa_1" enable-background="new 0 0 512 512" height="512" viewBox="0 0 512 512" width="512" xmlns="http://www.w3.org/2000/svg"><g><g><path d="m502 222h-392c-11.05 0-20-8.96-20-20v-100h40l6.67 40h119.33l-46-132h40l86 132h86c44.18 0 80 35.82 80 80z" fill="#eefaff"/><path d="m370 342s-17.91-20-40-20-40 20-40 20-17.91-20-40-20-40 20-40 20c0-44.18 35.82-80 80-80s80 35.82 80 80z" fill="#ff7b79"/><path d="m250 382h80v80h-80z" fill="#ffda8f"/><path d="m170 382s-17.91-20-40-20-40 20-40 20-17.91-20-40-20-40 20-40 20c0-44.18 35.82-80 80-80s80 35.82 80 80z" fill="#ff7b79"/><path d="m50 422h80v80h-80z" fill="#ffda8f"/></g><g><path d="m179.999 382.026c0-.011.001-.022.001-.033-.004-49.623-40.376-89.993-90-89.993s-89.996 40.37-90 89.993c0 .011.001.022.001.033.007 2.678 1.147 5.263 2.928 7.045l37.071 37.072v75.857c0 5.522 4.477 10 10 10h80c5.523 0 10-4.478 10-10v-75.857l37.071-37.071c1.856-1.856 2.921-4.434 2.928-7.046zm-54.142 29.974h-71.714l-29.645-29.645c6.08-4.722 15.439-10.355 25.502-10.355 17.235 0 32.419 16.526 32.55 16.671 1.89 2.11 4.597 3.309 7.429 3.317h.031c2.822 0 5.523-1.203 7.419-3.295.152-.167 15.336-16.693 32.571-16.693 10.066 0 19.427 5.636 25.503 10.354zm-35.857-100c30.553 0 56.598 19.679 66.127 47.024-7.427-3.933-16.369-7.024-26.127-7.024-17.085 0-31.664 9.474-40 16.354-8.336-6.88-22.915-16.354-40-16.354-9.758 0-18.7 3.091-26.127 7.024 9.529-27.345 35.574-47.024 66.127-47.024zm30 180h-60v-60h60z"/><path d="m379.999 342.026c0-.011.001-.022.001-.033-.004-49.623-40.376-89.993-90-89.993s-89.996 40.37-90 89.993c0 .011.001.022.001.033.008 2.727 1.154 5.27 2.928 7.045l37.071 37.072v75.857c0 5.522 4.477 10 10 10h80c5.523 0 10-4.478 10-10v-75.857l37.071-37.071c1.854-1.854 2.921-4.413 2.928-7.046zm-54.142 29.974h-71.715l-29.645-29.645c6.081-4.722 15.44-10.355 25.503-10.355 17.235 0 32.419 16.526 32.55 16.671 1.89 2.11 4.597 3.309 7.429 3.317h.031c2.822 0 5.523-1.203 7.419-3.295.152-.167 15.336-16.693 32.571-16.693 10.066 0 19.427 5.636 25.503 10.354zm-35.857-100c30.553 0 56.598 19.679 66.127 47.024-7.427-3.933-16.369-7.024-26.127-7.024-17.085 0-31.664 9.474-40 16.354-8.336-6.88-22.915-16.354-40-16.354-9.758 0-18.7 3.091-26.127 7.024 9.529-27.345 35.574-47.024 66.127-47.024zm30 180h-60v-60h60z"/><path d="m436 192c5.523 0 10-4.478 10-10s-4.477-10-10-10h-20c-5.523 0-10 4.478-10 10s4.477 10 10 10z"/><path d="m376 192c5.523 0 10-4.478 10-10s-4.477-10-10-10h-20c-5.523 0-10 4.478-10 10s4.477 10 10 10z"/><path d="m316 192c5.523 0 10-4.478 10-10s-4.477-10-10-10h-20c-5.523 0-10 4.478-10 10s4.477 10 10 10z"/><circle cx="296" cy="222" r="10"/><path d="m422 132h-80.58l-83.042-127.459c-1.845-2.833-4.997-4.541-8.378-4.541h-40c-3.238 0-6.276 1.568-8.152 4.208s-2.357 6.024-1.291 9.083l41.368 118.709h-96.785l-5.277-31.645c-.803-4.821-4.975-8.355-9.863-8.355h-40c-5.523 0-10 4.478-10 10v100c0 16.542 13.458 30 30 30h141c5.523 0 10-4.478 10-10s-4.477-10-10-10h-141c-5.514 0-10-4.486-10-10v-90h21.529l5.277 31.645c.804 4.821 4.976 8.355 9.864 8.355h119.33c3.238 0 6.276-1.568 8.152-4.208s2.357-6.024 1.291-9.083l-41.368-118.709h20.505l83.042 127.459c1.845 2.833 4.998 4.541 8.378 4.541h86c35.204 0 64.421 26.122 69.288 60h-150.288c-5.523 0-10 4.478-10 10s4.477 10 10 10h161c5.523 0 10-4.478 10-10 0-49.626-40.374-90-90-90z"/></g></g></svg>