<svg id="Capa_1" enable-background="new 0 0 512 512" height="512" viewBox="0 0 512 512" width="512" xmlns="http://www.w3.org/2000/svg"><g><g><path d="m356 256v246h-200v-246z" fill="#8690a6"/><path d="m416 130v40c-13.4 0-304.037 0-320 0v-40z" fill="#ffda8f"/><path d="m376 170v86c-9.665 0-223.209 0-240 0v-86z" fill="#8690a6"/><path d="m349.93 35.65c8.031 7.796 8.087 20.613.21 28.49-7.884 7.884-20.702 7.814-28.49-.21l-19.58-19.58c-3.75-3.64-6.07-8.72-6.07-14.35 0-11.05 8.95-20 20-20 5.63 0 10.71 2.32 14.35 6.07z" fill="#eefaff"/><path d="m196 296h120v166h-120z" fill="#ffda8f"/><path d="m216 30c0 5.52-2.23 10.52-5.86 14.14l-19.79 19.79c-7.796 8.031-20.613 8.087-28.49.21-7.884-7.884-7.814-20.701.21-28.49l19.58-19.58c3.64-3.75 8.72-6.07 14.35-6.07 11.05 0 20 8.95 20 20z" fill="#eefaff"/></g><g><path d="m196 472h120c5.522 0 10-4.478 10-10v-166c0-5.522-4.478-10-10-10h-120c-5.522 0-10 4.478-10 10v166c0 5.522 4.478 10 10 10zm10-166h100v146h-100z"/><circle cx="256" cy="170" r="10"/><path d="m416 120h-30v-30c0-2.652-1.054-5.195-2.929-7.071l-19.992-19.992c5.11-10.672 3.676-24.29-5.516-33.78-.641-.669-11.215-11.225-20.095-20.111-5.694-5.834-13.314-9.046-21.468-9.046-16.542 0-30 13.458-30 30 0 8.154 3.212 15.774 9.046 21.468l19.533 19.533c.017.017.035.03.052.047 9.401 9.55 23.31 11.297 34.306 6.032l17.063 17.063v25.857h-220v-25.857l17.063-17.063c11.023 5.278 24.924 3.499 34.306-6.032.017-.016.035-.03.052-.047l19.78-19.78c5.674-5.659 8.799-13.196 8.799-21.221 0-16.542-13.458-30-30-30-8.154 0-15.774 3.212-21.468 9.046l-19.953 19.953c-.051.051-.093.106-.142.157-9.188 9.487-10.627 23.106-5.516 33.78l-19.992 19.992c-1.875 1.877-2.929 4.42-2.929 7.072v30h-30c-5.522 0-10 4.478-10 10v40c0 5.522 4.478 10 10 10h30v76c0 5.522 4.478 10 10 10h10v226h-30c-5.522 0-10 4.478-10 10s4.478 10 10 10h280c5.522 0 10-4.478 10-10s-4.478-10-10-10h-30v-226h10c5.522 0 10-4.478 10-10v-76h30c5.522 0 10-4.478 10-10v-40c0-5.522-4.478-10-10-10zm-86.911-62.774c-8.901-8.901-6.127-6.127-19.947-19.947-.035-.035-.071-.07-.106-.104-1.958-1.901-3.036-4.448-3.036-7.175 0-5.514 4.486-10 10-10 2.727 0 5.274 1.078 7.174 3.035 1.604 1.65-5.663-5.662 19.818 19.82 3.99 3.903 4.012 10.279.076 14.213-3.868 3.871-10.077 3.901-13.979.158zm-140.263-34.191c1.9-1.957 4.447-3.035 7.174-3.035 5.514 0 10 4.486 10 10 0 2.673-1.038 5.18-2.932 7.068-13.962 13.962-11.17 11.17-20.157 20.157-3.902 3.743-10.111 3.713-13.979-.157-3.932-3.93-3.917-10.306.076-14.213 26.1-26.101 18.325-18.284 19.818-19.82zm157.174 468.965h-180v-226h180zm60-332h-105c-5.522 0-10 4.478-10 10s4.478 10 10 10h65v66h-220v-66h65c5.522 0 10-4.478 10-10s-4.478-10-10-10h-105v-20h300z"/></g></g></svg>