<svg id="Capa_1" enable-background="new 0 0 512 512" height="512" viewBox="0 0 512 512" width="512" xmlns="http://www.w3.org/2000/svg"><g><g><path d="m396 10h-60c0 11.05-8.95 20-20 20s-20-8.95-20-20h-60c0 11.05-8.95 20-20 20v346h180c0-11.05 8.95-20 20-20v-326c-11.05 0-20-8.95-20-20z" fill="#ffda8f"/><path d="m96 90h240v412h-240z" fill="#91def5"/><path d="m456 136-20 40 20 40c-7.085 0-113.405 0-120 0v-80z" fill="#ff7b79"/><circle cx="216" cy="256" fill="#eefaff" r="80"/><path d="m96 90v412c-22.09 0-40-17.91-40-40v-332c0-22.09 17.91-40 40-40z" fill="#8690a6"/></g><g><path d="m96 512h240c5.523 0 10-4.477 10-10v-116h50c5.523 0 10-4.477 10-10 0-5.514 4.486-10 10-10 5.523 0 10-4.477 10-10v-130h30c3.466 0 6.685-1.794 8.506-4.743 1.822-2.948 1.988-6.629.438-9.729l-17.764-35.528 17.764-35.528c1.55-3.1 1.384-6.781-.438-9.729-1.821-2.949-5.04-4.743-8.506-4.743h-30v-96c0-5.523-4.477-10-10-10-5.514 0-10-4.486-10-10 0-5.523-4.477-10-10-10h-60c-5.523 0-10 4.477-10 10 0 5.514-4.486 10-10 10s-10-4.486-10-10c0-5.523-4.477-10-10-10h-60c-5.523 0-10 4.477-10 10 0 5.514-4.486 10-10 10-5.523 0-10 4.477-10 10v50h-110c-27.57 0-50 22.43-50 50v332c0 27.57 22.43 50 50 50zm310-164.287c-8.512 3.018-15.269 9.775-18.287 18.287h-41.713v-140h60zm21.056-167.241 12.764 25.528h-93.82v-60h93.82l-12.764 25.528c-1.408 2.815-1.408 6.129 0 8.944zm-201.056-142.185c8.512-3.018 15.269-9.775 18.287-18.287h43.427c4.127 11.641 15.249 20 28.287 20s24.159-8.359 28.287-20h43.427c3.018 8.512 9.775 15.269 18.287 18.287v87.713h-60v-36c0-5.523-4.477-10-10-10h-110.002zm-160 91.713c0-13.036 8.361-24.152 20-28.28v149.28c0 5.523 4.477 10 10 10s10-4.477 10-10v-151h220v392h-220v-151c0-5.523-4.477-10-10-10s-10 4.477-10 10v149.28c-11.639-4.128-20-15.243-20-28.28z"/><path d="m216 346c49.626 0 90-40.374 90-90s-40.374-90-90-90-90 40.374-90 90 40.374 90 90 90zm-69.274-80h29.505c.908 19.789 4.508 39.01 10.694 53.651-21.219-9.732-36.765-29.755-40.199-53.651zm69.274-80c5.362 0 17.879 20.954 19.754 60h-39.509c1.876-39.046 14.393-60 19.755-60zm19.754 79.99c-1.875 39.046-14.392 60.01-19.754 60.01s-17.879-20.954-19.754-60zm9.321 53.661c6.186-14.641 9.787-33.872 10.694-53.661l29.505.01c-3.434 23.896-18.98 43.919-40.199 53.651zm40.199-73.651h-29.505c-.908-19.789-4.508-39.01-10.694-53.651 21.219 9.732 36.765 29.755 40.199 53.651zm-98.349-53.651c-6.186 14.641-9.787 33.862-10.694 53.651h-29.505c3.434-23.896 18.98-43.919 40.199-53.651z"/><path d="m136 386h160c5.523 0 10-4.477 10-10s-4.477-10-10-10h-160c-5.523 0-10 4.477-10 10s4.477 10 10 10z"/><path d="m276 406h-120c-5.523 0-10 4.477-10 10s4.477 10 10 10h120c5.523 0 10-4.477 10-10s-4.477-10-10-10z"/><circle cx="96" cy="296" r="10"/></g></g></svg>