<svg id="Capa_1" enable-background="new 0 0 512 512" height="512" viewBox="0 0 512 512" width="512" xmlns="http://www.w3.org/2000/svg"><g><g><path d="m480.6 237.66c-77.318-66.293-156.753-146.239-224.6-227.66-64.995 77.987-143.753 158.35-224.6 227.66l-21.4 18.34v246h492c0-13.472 0-232.777 0-246z" fill="#a7e8a6"/><path d="m356 436-40 66-60-246c.057.103 99.656 179.38 100 180z" fill="#eefaff"/><path d="m256 256 60 246h-120z" fill="#8690a6"/><path d="m256 256-60 246-40-66c.354-.637 99.943-179.897 100-180z" fill="#eefaff"/></g><g><path d="m508.507 248.407c-11.79-10.436-62.551-51.584-130.326-119.568-40.897-41.008-79.42-83.145-114.498-125.24-1.901-2.281-4.715-3.599-7.683-3.599s-5.782 1.318-7.682 3.598c-35.09 42.104-73.644 84.275-114.59 125.341-35.67 35.771-72.288 69.795-108.835 101.128l-21.4 18.34c-2.138 1.836-3.493 4.622-3.493 7.593v246c0 5.523 4.478 10 10 10h492c5.522 0 10-4.477 10-10v-246c0-2.928-1.322-5.729-3.493-7.593zm-45.436 100.522c-3.906-3.905-10.236-3.905-14.143 0l-17.071 17.071h-51.715l2.929-2.929c3.905-3.905 3.905-10.237 0-14.143-3.906-3.905-10.236-3.905-14.143 0l-17.071 17.072h-23.307l-55.556-100h38.863l17.071 17.071c3.907 3.905 10.236 3.904 14.143 0 3.905-3.905 3.905-10.237 0-14.143l-2.928-2.928h51.715l17.071 17.071c3.907 3.905 10.236 3.904 14.143 0 3.905-3.905 3.905-10.237 0-14.143l-2.929-2.928h71.857v100h-31.857l2.929-2.929c3.905-3.905 3.905-10.237-.001-14.142zm-152.553 88.391c-1.309-5.366-6.719-8.654-12.084-7.346-5.366 1.309-8.654 6.719-7.346 12.085l12.18 49.941h-94.536l47.268-193.798 13.759 56.411c1.309 5.365 6.724 8.654 12.084 7.346 5.366-1.309 8.654-6.719 7.346-12.085l-5.889-24.144 61.139 110.051-24.456 40.352zm-150.375-71.32-17.071-17.071c-3.906-3.905-10.236-3.905-14.143 0-3.905 3.905-3.905 10.237 0 14.143l2.929 2.929h-51.715l-17.071-17.071c-3.906-3.905-10.236-3.905-14.143 0-3.905 3.905-3.905 10.237 0 14.143l2.928 2.927h-31.857v-100h71.857l-2.929 2.929c-3.905 3.905-3.905 10.237 0 14.143 3.907 3.905 10.236 3.904 14.143 0l17.072-17.072h51.715l-2.929 2.929c-3.905 3.905-3.905 10.237 0 14.143 3.907 3.905 10.236 3.904 14.143 0l17.071-17.072h38.863l-55.556 100zm68.557-40.269-36.683 150.402-24.456-40.352zm27.3-300.174c28.484 33.713 59.103 67.389 91.307 100.443h-47.165l2.929-2.929c3.905-3.905 3.905-10.237 0-14.143-3.906-3.904-10.236-3.904-14.143 0l-17.071 17.072h-31.715l-17.071-17.071c-3.906-3.904-10.236-3.904-14.143 0-3.905 3.905-3.905 10.237 0 14.143l2.929 2.929h-47.162c32.214-33.073 62.832-66.749 91.305-100.444zm-111.054 120.443h66.912l-2.929 2.929c-3.905 3.905-3.905 10.237 0 14.143 3.907 3.905 10.236 3.904 14.143 0l17.071-17.072h31.715l17.071 17.071c3.907 3.905 10.236 3.904 14.143 0 3.905-3.905 3.905-10.237 0-14.143l-2.929-2.928h66.92c58.357 58.289 102.507 95.188 107.901 100h-54.821l2.929-2.929c3.905-3.905 3.905-10.237 0-14.143-3.906-3.904-10.236-3.904-14.143 0l-17.072 17.072h-51.715l2.929-2.929c3.905-3.905 3.905-10.237 0-14.143-3.906-3.904-10.236-3.904-14.143 0l-17.071 17.072h-111.714l-17.071-17.071c-3.906-3.904-10.236-3.904-14.143 0-3.905 3.905-3.905 10.237 0 14.143l2.929 2.929h-51.715l-17.071-17.071c-3.906-3.904-10.236-3.904-14.143 0-3.905 3.905-3.905 10.237 0 14.143l2.928 2.927h-54.821l.873-.748c35.938-30.81 71.93-64.19 107.037-99.252zm-124.946 240h31.857l-2.929 2.929c-3.905 3.905-3.905 10.237 0 14.143 3.906 3.905 10.236 3.905 14.143 0l17.072-17.072h51.715l-2.929 2.929c-3.905 3.905-3.905 10.237 0 14.143 3.906 3.905 10.236 3.905 14.143 0l17.071-17.072h12.195l-25.08 45.144c-1.743 3.138-1.67 6.969.19 10.039l30.798 50.817h-158.246zm313.754 106 30.798-50.817c1.86-3.07 1.934-6.901.19-10.039l-25.08-45.144h12.195l17.071 17.071c3.906 3.905 10.236 3.905 14.143 0 3.905-3.905 3.905-10.237 0-14.143l-2.928-2.928h51.715l17.071 17.071c3.906 3.905 10.236 3.905 14.143 0 3.905-3.905 3.905-10.237 0-14.143l-2.929-2.928h31.857v106z"/><circle cx="290" cy="396" r="10"/></g></g></svg>