<svg id="Capa_1" enable-background="new 0 0 512 512" height="512" viewBox="0 0 512 512" width="512" xmlns="http://www.w3.org/2000/svg"><g><g><path d="m10 396h492v106h-492z" fill="#91def5"/><path d="m10 336h492v60h-492z" fill="#8690a6"/><path d="m416 416c0 11.05-8.95 20-20 20s-20-8.95-20-20c0-13.99 0-26.01 0-40h40z" fill="#eefaff"/><path d="m96 256h320v80h-320z" fill="#ff7b79"/><path d="m416 216v40c-14.372 0-306.8 0-320 0v-40z" fill="#ffda8f"/><g fill="#eefaff"><path d="m256 50c66.153 0 120 53.606 120 120v26c0 11.05-8.95 20-20 20h-200c-11.05 0-20-8.95-20-20v-26c0-66.375 53.825-120 120-120z"/><path d="m296 256v20c0 11.05-8.95 20-20 20h-40c-11.05 0-20-8.95-20-20v-20z"/><path d="m136 416c0 11.05-8.95 20-20 20s-20-8.95-20-20c0-13.99 0-26.01 0-40h40z"/></g></g><g><path d="m306 436c0-5.523-4.478-10-10-10h-80c-5.523 0-10 4.477-10 10s4.477 10 10 10h80c5.522 0 10-4.477 10-10z"/><circle cx="256" cy="502" r="10"/><path d="m512 502v-166c0-5.523-4.478-10-10-10h-76v-110c0-5.523-4.478-10-10-10h-31.72c1.11-3.13 1.72-6.494 1.72-10v-26c0-52.615-31.871-99.954-80-120.008-.004-27.566-22.432-49.992-50-49.992s-49.995 22.425-50 49.992c-48.129 20.054-80 67.393-80 120.008v26c0 3.506.61 6.87 1.72 10h-31.72c-5.523 0-10 4.477-10 10v110h-76c-5.523 0-10 4.477-10 10v166c0 5.523 4.477 10 10 10h201c5.523 0 10-4.477 10-10s-4.477-10-10-10h-191v-86h66v10c0 16.542 13.458 30 30 30s30-13.458 30-30v-10h220v10c0 16.542 13.458 30 30 30s30-13.458 30-30v-10h66v86h-191c-5.522 0-10 4.477-10 10s4.478 10 10 10h201c5.522 0 10-4.477 10-10zm-256-482c14.242 0 26.19 9.979 29.239 23.311-9.545-2.196-19.33-3.311-29.239-3.311s-19.694 1.115-29.239 3.311c3.049-13.332 14.997-23.311 29.239-23.311zm-110 176v-26c0-41.657 23.608-79.404 60-97.991v17.991c0 5.523 4.477 10 10 10s10-4.477 10-10v-25.834c9.721-2.75 19.778-4.166 30-4.166s20.279 1.415 30 4.166v25.834c0 5.523 4.478 10 10 10s10-4.477 10-10v-17.991c36.392 18.587 60 56.334 60 97.991v26c0 5.514-4.486 10-10 10h-200c-5.514 0-10-4.486-10-10zm260 30v20h-300v-20zm-180 40h60v10c0 5.514-4.486 10-10 10h-40c-5.514 0-10-4.486-10-10zm-120 0h100v10c0 16.542 13.458 30 30 30h40c16.542 0 30-13.458 30-30v-10h100v60h-300zm20 150c0 5.514-4.486 10-10 10s-10-4.486-10-10v-30h20zm280 0c0 5.514-4.486 10-10 10s-10-4.486-10-10v-30h20zm20-30v-10c0-5.523-4.478-10-10-10h-40c-5.522 0-10 4.477-10 10v10h-220v-10c0-5.523-4.477-10-10-10h-40c-5.523 0-10 4.477-10 10v10h-66v-40h472v40z"/></g></g></svg>