<svg id="Capa_1" enable-background="new 0 0 512 512" height="512" viewBox="0 0 512 512" width="512" xmlns="http://www.w3.org/2000/svg"><g><g><path d="m262 50h-40v-40h-92v40h-40c-44.18 0-80 35.82-80 80v206h40v-206c0-22.09 17.91-40 40-40v246h172c0-40.444 0-144.071 0-246 22.09 0 40 17.91 40 40v126h40v-126c0-44.18-35.82-80-80-80z" fill="#a7e8a6"/><path d="m482 256h-200c-11.05 0-20 8.95-20 20v206c0 11.05 8.95 20 20 20h200c11.05 0 20-8.95 20-20v-206c0-11.05-8.95-20-20-20z" fill="#ff7b79"/><g fill="#eefaff"><path d="m502 376v40c0 22.09-17.91 40-40 40s-40-17.91-40-40v-40z"/><path d="m422 256h40c0 32.39-19.35 60.34-47.09 72.91l-32.91-32.91c22.09 0 40-17.91 40-40z"/><path d="m382 296-32.91 32.91c-27.74-12.57-47.09-40.52-47.09-72.91h40c0 22.09 17.91 40 40 40z"/></g><path d="m262 156v60l-26-26-20 20-20-20-20 20-20-20-20 20-20-20-26 26v-60l26-26 20 20 20-20 20 20 20-20 20 20 20-20z" fill="#ffda8f"/></g><g><circle cx="382" cy="502" r="10"/><path d="m482 246h-130v-116c0-49.626-40.374-90-90-90h-30v-30c0-5.523-4.478-10-10-10h-92c-5.522 0-10 4.477-10 10v30h-30c-49.626 0-90 40.374-90 90v206c0 5.523 4.478 10 10 10h40c5.522 0 10-4.477 10-10v-206c0-13.038 8.359-24.159 20-28.287v234.287c0 5.523 4.478 10 10 10h162v136c0 16.542 13.458 30 30 30h55c5.522 0 10-4.477 10-10s-4.478-10-10-10h-55c-5.514 0-10-4.486-10-10v-206c0-5.514 4.486-10 10-10h10.564c3.514 31.232 23.298 58.832 52.399 72.019 3.792 1.718 8.254.907 11.198-2.037l15.839-15.84v55.858c0 5.523 4.478 10 10 10s10-4.477 10-10v-55.858l15.839 15.839c2.956 2.955 7.418 3.75 11.198 2.037 29.102-13.187 48.886-40.786 52.399-72.019h10.564c5.514 0 10 4.486 10 10v90h-70c-5.522 0-10 4.477-10 10v40c0 27.57 22.43 50 50 50 11.247 0 21.637-3.735 30-10.027v26.028c0 5.514-4.486 10-10 10h-55c-5.522 0-10 4.477-10 10s4.478 10 10 10h55c16.542 0 30-13.458 30-30 0-11.736 0-194.324 0-206 0-16.542-13.458-30-30-30zm-99.997 40c-.002 0-.005 0-.007 0-13.035-.001-24.149-8.362-28.276-20.01h56.56c-4.128 11.648-15.242 20.008-28.277 20.01zm-342.003-156v196h-20v-196c0-38.598 31.402-70 70-70h40c5.522 0 10-4.477 10-10v-30h72v30c0 5.523 4.478 10 10 10h40c38.598 0 70 31.402 70 70v116h-20v-116c0-27.57-22.43-50-50-50-5.522 0-10 4.477-10 10v41.857l-8.929-8.929c-3.906-3.905-10.236-3.905-14.143 0l-12.928 12.93-12.929-12.929c-3.906-3.905-10.236-3.905-14.143 0l-12.928 12.929-12.929-12.929c-3.906-3.905-10.236-3.905-14.143 0l-12.928 12.929-12.929-12.929c-3.906-3.905-10.236-3.905-14.143 0l-8.928 8.928v-41.857c0-5.523-4.478-10-10-10-27.57 0-50 22.43-50 50zm60 30.143 16-16 12.929 12.929c3.906 3.905 10.236 3.905 14.143 0l12.928-12.93 12.929 12.929c3.906 3.905 10.236 3.905 14.143 0l12.928-12.929 12.929 12.929c3.906 3.905 10.236 3.905 14.143 0l12.928-12.929 16 16v31.715l-8.929-8.929c-3.906-3.905-10.236-3.905-14.143 0l-12.928 12.93-12.929-12.929c-3.906-3.905-10.236-3.905-14.143 0l-12.928 12.929-12.929-12.929c-3.906-3.905-10.236-3.905-14.143 0l-12.928 12.929-12.929-12.929c-3.906-3.905-10.236-3.905-14.143 0l-8.928 8.928zm0 165.857v-105.857l16-16 12.929 12.929c3.906 3.905 10.236 3.905 14.143 0l12.928-12.93 12.929 12.929c3.906 3.905 10.236 3.905 14.143 0l12.928-12.929 12.929 12.929c3.906 3.905 10.236 3.905 14.143 0l12.928-12.929 16 16v105.857h-152zm172-78.28c0-16.411 0-131.61 0-146.007 11.641 4.127 20 15.249 20 28.287v116h-10c-3.506 0-6.87.61-10 1.72zm75.162 68.975c-18.663-10.75-31.355-29.538-34.431-50.695h20.275c3.28 16.095 14.32 29.394 29.025 35.827zm69.676 0-14.869-14.869c14.704-6.432 25.744-19.732 29.025-35.837h20.275c-3.076 21.168-15.768 39.956-34.431 50.706zm45.162 129.305c-16.542 0-30-13.458-30-30v-30h60v30c0 16.542-13.458 30-30 30z"/></g></g></svg>