<svg id="Capa_1" enable-background="new 0 0 500 500" height="512" viewBox="0 0 500 500" width="512" xmlns="http://www.w3.org/2000/svg"><g><g><path d="m250 10c132.55 0 240 107.45 240 240s-107.45 240-240 240-240-107.45-240-240 107.45-240 240-240z" fill="#eefaff"/><path d="m250 50c110.28 0 200 89.72 200 200s-89.72 200-200 200-200-89.72-200-200 89.72-200 200-200z" fill="#a7e8a6"/><g fill="#eefaff"><path d="m230 408.61v-130.33l-88.74 88.75c23.96 22.28 54.66 37.3 88.74 41.58z"/><path d="m270 221.72 114.54 114.54c16.04-24.92 25.46-54.49 25.46-86.26 0-81.44-61.2-148.72-140-158.61z"/><path d="m230 221.72v-130.33c-78.8 9.89-140 77.17-140 158.61 0 31.77 9.42 61.34 25.46 86.26z"/><path d="m270 278.28v130.33c34.08-4.28 64.78-19.3 88.74-41.58z"/></g></g><g><path d="m500 250c0-138.168-111.811-250-250-250-138.168 0-250 111.811-250 250 0 138.168 111.811 250 250 250 138.168 0 250-111.811 250-250zm-250 230c-126.822 0-230-103.178-230-230s103.178-230 230-230 230 103.178 230 230-103.178 230-230 230z"/><path d="m233.827 269.041c-3.737-1.549-8.039-.692-10.898 2.168l-88.74 88.75c-1.92 1.92-2.977 4.538-2.927 7.252.05 2.715 1.201 5.292 3.189 7.142 26.302 24.458 58.912 39.734 94.304 44.179 2.792.351 5.67-.489 7.862-2.423 2.152-1.898 3.384-4.629 3.384-7.499v-130.33c-.001-4.045-2.438-7.692-6.174-9.239zm-13.827 127.8c-23.5-4.78-45.335-15.108-64.089-30.321l64.089-64.096z"/><path d="m260 221.72c0 2.652 1.054 5.196 2.929 7.071l114.541 114.54c2.178 2.178 5.193 3.19 8.136 2.872 3.007-.322 5.707-1.988 7.343-4.53 17.697-27.495 27.051-59.195 27.051-91.673 0-85.436-63.951-157.889-148.755-168.532-5.998-.748-11.245 3.933-11.245 9.922zm20-118.562c69.156 14.065 120 75.294 120 146.842 0 24.47-6.03 48.449-17.531 70.047l-102.469-102.469z"/><path d="m80 250c0 32.478 9.354 64.178 27.051 91.672 1.637 2.542 4.336 4.208 7.343 4.53 2.936.318 5.954-.69 8.136-2.872l114.541-114.54c1.875-1.875 2.929-4.419 2.929-7.071v-130.329c0-5.995-5.254-10.669-11.245-9.922-84.804 10.643-148.755 83.096-148.755 168.532zm140-146.842v114.42l-102.469 102.469c-11.501-21.598-17.531-45.577-17.531-70.047 0-71.548 50.844-132.777 120-146.842z"/><path d="m266.173 269.041c-3.737 1.547-6.173 5.194-6.173 9.239v130.33c0 2.869 1.232 5.601 3.384 7.499 2.102 1.854 4.949 2.789 7.862 2.423 35.392-4.444 68.002-19.721 94.304-44.179 1.988-1.849 3.139-4.427 3.189-7.142.049-2.714-1.007-5.333-2.927-7.252l-88.74-88.75c-2.861-2.86-7.16-3.716-10.899-2.168zm13.827 33.383 64.089 64.096c-18.754 15.213-40.589 25.541-64.089 30.321z"/><circle cx="250" cy="50" r="10"/><path d="m296.955 45.293c-5.388-1.233-10.748 2.13-11.982 7.512-1.234 5.383 2.129 10.748 7.512 11.982 85.476 19.598 147.515 97.491 147.515 185.213 0 104.766-85.233 190-190 190s-190-85.234-190-190c0-87.722 62.039-165.615 147.515-185.213 5.383-1.234 8.747-6.599 7.512-11.982-1.234-5.383-6.597-8.747-11.982-7.512-93.468 21.43-163.045 105.365-163.045 204.707 0 115.794 94.206 210 210 210s210-94.206 210-210c0-99.392-69.622-183.288-163.045-204.707z"/></g></g></svg>