<svg id="Capa_1" enable-background="new 0 0 512 512" height="512" viewBox="0 0 512 512" width="512" xmlns="http://www.w3.org/2000/svg"><g><g><path d="m136 10h-60c-11.05 0-20 8.95-20 20v220h200z" fill="#8690a6"/><path d="m456 30v220h-200l-120-240h300c11.05 0 20 8.95 20 20z" fill="#a7e8a6"/><path d="m56 250v126h400c0-15.247 0-110.652 0-126-11.275 0-388.725 0-400 0z" fill="#eefaff"/><path d="m436 482c0 11.05-8.95 20-20 20h-40c-11.05 0-20-8.95-20-20 0-15.06 0-91.058 0-106h80z" fill="#8690a6"/><path d="m256 130v120l-12.45-10.37c-67.818-56.509-107.55-140.534-107.55-229.63z" fill="#eefaff"/><path d="m161.31 130.35h-.01c-1.74-.23-3.5-.35-5.3-.35-22.09 0-40 17.91-40 40s17.91 40 40 40c16.61 0 30.86-10.13 36.91-24.55z" fill="#fce8d0"/><path d="m156 482c0 11.05-8.95 20-20 20h-40c-11.05 0-20-8.95-20-20 0-15.06 0-91.058 0-106h80z" fill="#8690a6"/></g><g><path d="m56 426c-5.522 0-10 4.477-10 10s4.478 10 10 10h10v36c0 16.542 13.458 30 30 30h40c16.542 0 30-13.458 30-30v-36h180v36c0 16.542 13.458 30 30 30h40c16.542 0 30-13.458 30-30v-36h10c5.522 0 10-4.477 10-10s-4.478-10-10-10h-10v-40h10c5.522 0 10-4.477 10-10v-346c0-16.542-13.458-30-30-30h-360c-16.542 0-30 13.458-30 30v346c0 5.523 4.478 10 10 10h10v40zm110 0v-40h180v40zm260 56c0 5.514-4.486 10-10 10h-40c-5.514 0-10-4.486-10-10v-96h60zm-360-116v-43h145c5.522 0 10-4.477 10-10s-4.478-10-10-10h-145v-43h380v43h-145c-5.522 0-10 4.477-10 10s4.478 10 10 10h145v43zm88.731-225.968c7.472 16.113 16.356 31.605 26.494 46.197-5.462 8.495-14.878 13.771-25.225 13.771-16.542 0-30-13.458-30-30 0-16.116 12.776-29.3 28.731-29.968zm-7.644-104.803 98.913 98.913v94.452c-57.093-49.338-92.472-119.046-98.913-193.365zm298.913-5.229v210h-180v-110c0-2.652-1.054-5.196-2.929-7.071l-102.928-102.929h275.857c5.514 0 10 4.486 10 10zm-370-10h50.177c1.104 34.716 7.956 68.555 20.432 100.897-23.095 4.408-40.609 24.743-40.609 49.103 0 27.57 22.43 50 50 50 14.721 0 28.324-6.398 37.65-17.078 10.632 13.297 22.367 25.704 35.051 37.078h-162.701v-210c0-5.514 4.486-10 10-10zm70 366v96c0 5.514-4.486 10-10 10h-40c-5.514 0-10-4.486-10-10v-96z"/><circle cx="256" cy="313" r="10"/></g></g></svg>