<svg id="Capa_1" enable-background="new 0 0 512 512" height="512" viewBox="0 0 512 512" width="512" xmlns="http://www.w3.org/2000/svg"><g><g><path d="m456 50v202.04c0 118.59-83.71 226.7-200 249.96-116.29-23.26-200-131.37-200-249.96v-202.04c110.46 0 200-40 200-40s89.54 40 200 40z" fill="#91def5"/><path d="m379.29 192.73 16.71 100.27h-20v40h-40v-40h-20l16.71-100.27c1.9-11.39 11.75-19.73 23.29-19.73s21.39 8.34 23.29 19.73z" fill="#ff7b79"/><circle cx="356" cy="133" fill="#fce8d0" r="20"/><path d="m276 273v60h-40v-60c0-11.05 8.95-20 20-20s20 8.95 20 20z" fill="#ffda8f"/><circle cx="256" cy="213" fill="#fce8d0" r="20"/><path d="m196 193v60h-20v80h-40v-80h-20v-60c0-11.05 8.95-20 20-20h40c11.05 0 20 8.95 20 20z" fill="#a7e8a6"/><circle cx="156" cy="133" fill="#fce8d0" r="20"/></g><g><path d="m186 133c0-16.542-13.458-30-30-30s-30 13.458-30 30 13.458 30 30 30 30-13.458 30-30zm-30 10c-5.514 0-10-4.486-10-10s4.486-10 10-10 10 4.486 10 10-4.486 10-10 10z"/><path d="m286 213c0-16.542-13.458-30-30-30s-30 13.458-30 30 13.458 30 30 30 30-13.458 30-30zm-30 10c-5.514 0-10-4.486-10-10s4.486-10 10-10 10 4.486 10 10-4.486 10-10 10z"/><path d="m136 343h40c5.523 0 10-4.478 10-10v-70h10c5.523 0 10-4.478 10-10v-60c0-16.542-13.458-30-30-30h-40c-16.542 0-30 13.458-30 30v60c0 5.522 4.477 10 10 10h10v70c0 5.523 4.477 10 10 10zm-10-150c0-5.514 4.486-10 10-10h40c5.514 0 10 4.486 10 10v50h-10c-5.523 0-10 4.478-10 10v70h-20v-70c0-5.522-4.477-10-10-10h-10z"/><path d="m386 133c0-16.542-13.458-30-30-30s-30 13.458-30 30 13.458 30 30 30 30-13.458 30-30zm-30 10c-5.514 0-10-4.486-10-10s4.486-10 10-10 10 4.486 10 10-4.486 10-10 10z"/><path d="m336 343h40c5.523 0 10-4.478 10-10v-30h10c2.939 0 5.73-1.293 7.63-3.536s2.717-5.208 2.233-8.107l-16.71-100.271c-2.713-16.274-16.657-28.086-33.153-28.086s-30.439 11.812-33.154 28.087l-16.71 100.27c-.483 2.899.333 5.864 2.233 8.107s4.691 3.536 7.63 3.536h10v30c.001 5.523 4.478 10 10.001 10zm6.574-148.624c1.099-6.592 6.746-11.376 13.426-11.376s12.327 4.784 13.426 11.374l14.77 88.626h-8.196c-5.523 0-10 4.478-10 10v30h-20v-30c0-5.522-4.477-10-10-10h-8.196z"/><path d="m226 273v60c0 5.522 4.477 10 10 10h40c5.523 0 10-4.478 10-10v-60c0-16.542-13.458-30-30-30s-30 13.458-30 30zm20 0c0-5.514 4.486-10 10-10s10 4.486 10 10v50h-20z"/><circle cx="456" cy="153" r="10"/><path d="m46 50v202.04c0 123.834 87.574 235.671 208.039 259.766 1.291.259 2.631.259 3.923 0 120.464-24.094 208.038-135.931 208.038-259.766v-54.04c0-5.522-4.477-10-10-10s-10 4.478-10 10v54.04c0 114.334-81.541 217.029-190 239.753-108.459-22.723-190-125.419-190-239.753v-192.144c94.791-1.979 171.602-31.394 190-39.023 18.398 7.63 95.209 37.045 190 39.023v48.104c0 5.522 4.477 10 10 10s10-4.478 10-10v-58c0-5.522-4.477-10-10-10-106.878 0-195.047-38.741-195.921-39.13-2.593-1.161-5.56-1.159-8.153-.002-.879.391-89.047 39.132-195.926 39.132-5.523 0-10 4.478-10 10z"/></g></g></svg>