<svg id="Capa_1" enable-background="new 0 0 512 512" height="512" viewBox="0 0 512 512" width="512" xmlns="http://www.w3.org/2000/svg"><g><g><path d="m256 256c-133.095 0-246 113.966-246 246h492c0-133.688-115.011-246-246-246z" fill="#91def5"/><path d="m491.05 29.13-46.75 194.31-.77-.19c-38.2-5.33-108.32-13.25-187.53-13.25-79.9 0-149.57 7.88-187.54 13.2l-.78.19-46.73-194.26c22.5-3.85 119.19-19.13 235.05-19.13s212.55 15.28 235.05 19.13z" fill="#ff7b79"/><path d="m434.89 336 .16-.14c41.24 44.26 66.95 103.03 66.95 166.14h-119.57c-26.24-28.53 13.07-57.42-4.59-86-16.42-26.58-80-5.07-80-40s80-40 80-40z" fill="#a7e8a6"/><path d="m297.96 62.68 20 34.64-21.96 12.68 21.96 12.68-20 34.64-21.96-12.68v25.36h-40v-25.36l-21.96 12.68-20-34.64 21.96-12.68-21.96-12.68 20-34.64 21.96 12.68v-25.36h40v25.36z" fill="#eefaff"/><path d="m91.31 321.61c5.18-4.76 10.56-9.3 16.11-13.61 30.54 24.89 98.55-.66 110.42 28 13.37 32.27-43.54 58.19-40 80s36.46 18.19 40 40c1.7 10.45-7.42 29.25-17.37 46h-39.7c-15.51-28.77-39.48-68.09-62.93-86-15.66-11.96-37.91-20.74-59.02-26.98 13.56-25.24 31.42-48.07 52.49-67.41z" fill="#a7e8a6"/></g><g><path d="m189.04 105.98 6.962 4.02-6.962 4.02c-4.783 2.762-6.421 8.877-3.66 13.66l20 34.641c2.755 4.772 8.868 6.426 13.661 3.66l6.959-4.019v8.038c0 5.522 4.477 10 10 10h40c5.523 0 10-4.478 10-10v-8.038l6.959 4.019c2.297 1.327 5.026 1.688 7.588.999 2.562-.687 4.746-2.362 6.072-4.659l20-34.641c2.761-4.783 1.123-10.898-3.66-13.66l-6.962-4.02 6.962-4.02c4.783-2.762 6.421-8.877 3.66-13.66l-20-34.641c-1.326-2.297-3.51-3.973-6.072-4.659-2.563-.689-5.293-.328-7.588.999l-6.959 4.019v-8.038c0-5.522-4.477-10-10-10h-40c-5.523 0-10 4.478-10 10v8.038l-6.959-4.019c-2.296-1.326-5.025-1.686-7.588-.999-2.562.687-4.746 2.362-6.072 4.659l-20 34.641c-2.762 4.784-1.124 10.899 3.659 13.66zm31.96-4.64-13.3-7.68 10-17.319 13.3 7.68c3.094 1.787 6.906 1.787 10 0 3.094-1.786 5-5.087 5-8.66v-15.361h20v15.36c0 3.573 1.906 6.874 5 8.66 3.094 1.787 6.906 1.785 10 0l13.3-7.68 10 17.319-13.3 7.68c-3.094 1.786-5 5.088-5 8.66s1.906 6.874 5 8.66l13.3 7.68-10 17.319-13.3-7.68c-3.094-1.787-6.906-1.787-10 0-3.094 1.786-5 5.087-5 8.66v15.362h-20v-15.36c0-3.573-1.906-6.874-5-8.66-3.094-1.787-6.906-1.785-10 0l-13.3 7.68-10-17.319 13.3-7.68c3.094-1.786 5-5.088 5-8.66s-1.906-6.875-5-8.661z"/><path d="m431.766 318.298c1.56-6.483 66.682-277.168 69.006-286.829.647-2.69.15-5.529-1.373-7.841s-3.936-3.888-6.664-4.354c-26.424-4.522-121.594-19.274-236.735-19.274s-210.311 14.752-236.736 19.273c-2.728.467-5.141 2.043-6.664 4.354s-2.02 5.149-1.373 7.841c2.415 10.037 67.67 281.285 69.003 286.828-52.335 50.178-80.23 117.15-80.23 183.704 0 5.522 4.477 10 10 10h492c5.523 0 10-4.478 10-10 0-63.341-24.73-124.765-69.631-172.954-3.404-3.656-6.958-7.253-10.603-10.748zm-96.537 91.352c14.326 1.754 29.139 3.567 34.104 11.606 5.545 8.975 3.213 17.933-1.052 31.807-3.541 11.519-7.694 25.048-3.265 38.937h-147.583c10.949-21.542 11.244-31.663 10.277-37.603-2.591-15.963-15.778-22.542-25.406-27.346-9.487-4.733-13.734-7.36-14.594-12.654-.717-4.418 8.759-14.473 15.679-21.814 15.077-15.997 33.841-35.907 23.689-60.409-8.681-20.961-34.7-21.296-59.863-21.62-14.429-.186-29.189-.394-40.845-3.948 38.81-26.275 84.274-40.606 129.63-40.606 55.711 0 110.018 20.936 153.567 59.072l-.223.928h-31.504c-10.987 0-90 7.851-90 50 0 26.877 24.865 30.892 47.389 33.65zm-238.028-106.307-17.227-71.612c37.414-4.913 102.571-11.731 176.026-11.731 72.894 0 138.342 6.852 176.01 11.785l-17.215 71.558c-45.789-37.085-101.571-57.343-158.795-57.343-55.612 0-112.341 19.792-158.799 57.343zm-64.009-266.08c32.819-5.151 120.865-17.263 222.808-17.263s189.988 12.112 222.808 17.263l-42.094 174.969c-37.855-5.021-105.347-12.232-180.714-12.232-75.944 0-143.13 7.177-180.73 12.179zm10.692 363.802c9.877 3.205 18.812 6.669 26.611 10.341 5.017 2.36 10.964.189 13.307-4.788 2.353-4.997.209-10.955-4.788-13.308-7.587-3.572-16.098-6.944-25.375-10.081 9.116-15.113 19.853-29.197 32.088-42.093l8.952 37.203c1.3 5.403 6.729 8.668 12.062 7.383 5.37-1.293 8.675-6.693 7.383-12.063l-11.692-48.581c1.807-1.581 3.647-3.137 5.509-4.672 16.898 9.596 39.12 9.888 59.018 10.144 18.685.24 38.005.489 41.644 9.276 4.837 11.675-4.686 23.036-19.767 39.037-11.913 12.64-23.164 24.578-20.866 38.737 2.591 15.963 15.778 22.542 25.406 27.346 9.487 4.733 13.734 7.36 14.594 12.657.244 1.502.649 9.903-13.255 34.395h-28.007c-6.579-11.942-13.175-23.017-19.647-32.984-3.008-4.633-9.201-5.952-13.833-2.941-4.632 3.007-5.949 9.2-2.941 13.832 4.438 6.835 8.945 14.228 13.471 22.094h-123.529c1.43-31.172 9.529-62.275 23.655-90.934zm343.295 90.935c-6.557-9.35-4.228-18.593.219-33.06 4.253-13.833 9.545-31.049-1.05-48.196-10.014-16.21-30.561-18.727-48.688-20.946-24.246-2.969-29.82-5.548-29.82-13.798 0-19.875 50.288-28.523 70.349-30h26.343l-6.655 27.662c-1.292 5.369 2.015 10.77 7.384 12.061 5.369 1.293 10.77-2.015 12.061-7.385l7.78-32.338h5.662c37.197 41.372 58.623 92.724 61.012 146z"/><circle cx="111" cy="429" r="10"/></g></g></svg>