<svg id="Capa_1" enable-background="new 0 0 512.029 512.029" height="512" viewBox="0 0 512.029 512.029" width="512" xmlns="http://www.w3.org/2000/svg"><g><g><path d="m502.014 375.994c-12.17 42.59-41.09 84.59-75.12 109.32l.01.02c-6.09 1.44-11.99 3.97-17.39 7.58-18.17 12.11-44.83 12.11-63 0s-41.83-12.11-60 0-44.83 12.11-63 0-41.83-12.11-60 0-41.83 12.11-60 0c-5.83-3.89-12.23-6.53-18.83-7.91v-.01c-33.8-24.72-62.55-66.59-74.67-109z" fill="#ff7b79"/><path d="m456.014 249.994h-200s60-29.25 60-90c0-47.236-34.916-110.108-60-150l3.88.78c114.04 22.8 196.12 122.93 196.12 239.22z" fill="#eefaff"/><circle cx="429.014" cy="325.994" fill="#fce8d0" r="30"/><circle cx="326.014" cy="325.994" fill="#fce8d0" r="30"/><path d="m256.014 249.994h-200l200-240z" fill="#eefaff"/><g fill="#fce8d0"><circle cx="183.014" cy="325.994" r="30"/><circle cx="83.014" cy="325.994" r="30"/></g></g><g><path d="m502.111 491.994c-8.055-.077-19.543-2.396-27.048-7.399-6.521-4.349-13.743-7.414-21.258-9.131 26.384-26 47.654-61.129 57.824-96.722.862-3.017.258-6.264-1.632-8.769-1.89-2.506-4.846-3.979-7.983-3.979h-236v-106h190c5.522 0 10-4.478 10-10 0-120.809-85.352-225.273-204.148-249.023l-3.88-.78c-3.589-.72-7.36.645-9.654 3.402l-71.204 85.445c-3.536 4.242-2.962 10.548 1.28 14.084 4.242 3.535 10.548 2.963 14.084-1.281l53.522-64.226v202.38h-168.649l57.536-69.044c3.536-4.242 2.962-10.548-1.28-14.084-4.243-3.534-10.548-2.963-14.084 1.281l-71.204 85.445c-2.484 2.98-3.02 7.129-1.374 10.643 1.646 3.515 5.176 5.759 9.056 5.759h190v106h-236c-3.138 0-6.094 1.473-7.983 3.979-1.89 2.505-2.494 5.752-1.632 8.77 10.195 35.672 31.558 70.922 58.02 96.93-7.239 1.75-14.185 4.747-20.451 8.92-6.681 4.451-17.641 7.404-27.411 7.404-.15 0-.301-.001-.45-.003-5.526-.024-10.042 4.384-10.093 9.906s4.383 10.041 9.906 10.094c10.452.075 26.987-2.661 39.138-10.758 14.553-9.693 33.917-10.004 48.91-.001 10.796 7.196 23.171 10.794 35.546 10.794s24.75-3.598 35.546-10.794c14.855-9.902 34.053-9.902 48.908 0 21.466 14.307 52.627 14.307 74.092 0 14.855-9.902 34.053-9.902 48.908 0 21.466 14.307 52.626 14.307 74.104-.008 14.712-9.835 34.113-9.85 48.896.007 11.663 7.775 27.251 10.655 37.95 10.76h.099c5.478 0 9.944-4.414 9.998-9.903.051-5.524-4.382-10.044-9.905-10.098zm-236.097-260.239v-185.934c17.097 30.489 40 78.07 40 114.173 0 35.687-23.881 59.651-40 71.761zm179.787 8.239h-158.079c18.023-16.03 38.292-42.41 38.292-80 0-45.057-30.676-103.922-48.732-134.666 95.7 27.809 164.229 114.416 168.519 214.666zm-41.832 244.599c-14.797 9.861-37.111 9.861-51.908 0-21.594-14.393-49.498-14.393-71.092 0-14.797 9.861-37.111 9.861-51.908 0-21.593-14.393-49.499-14.393-71.092 0-14.855 9.902-34.053 9.901-48.904.003-6.171-4.117-12.911-7.079-20.041-8.844-28.155-21.157-52.296-54.571-65.228-89.767h464.44c-13.015 35.427-37.375 69.012-65.796 90.181-6.574 1.799-12.784 4.624-18.471 8.427z"/><path d="m469.014 325.994c0-22.056-17.944-40-40-40s-40 17.944-40 40 17.944 40 40 40 40-17.944 40-40zm-40 20c-11.028 0-20-8.972-20-20s8.972-20 20-20 20 8.972 20 20-8.971 20-20 20z"/><path d="m366.014 325.994c0-22.056-17.944-40-40-40s-40 17.944-40 40 17.944 40 40 40 40-17.944 40-40zm-40 20c-11.028 0-20-8.972-20-20s8.972-20 20-20 20 8.972 20 20-8.971 20-20 20z"/><path d="m223.014 325.994c0-22.056-17.944-40-40-40s-40 17.944-40 40 17.944 40 40 40 40-17.944 40-40zm-40 20c-11.028 0-20-8.972-20-20s8.972-20 20-20 20 8.972 20 20-8.972 20-20 20z"/><path d="m123.014 325.994c0-22.056-17.944-40-40-40s-40 17.944-40 40 17.944 40 40 40 40-17.944 40-40zm-40 20c-11.028 0-20-8.972-20-20s8.972-20 20-20 20 8.972 20 20-8.972 20-20 20z"/><circle cx="156.014" cy="129.994" r="10"/></g></g></svg>