<svg id="Capa_1" enable-background="new 0 0 512 512" height="512" viewBox="0 0 512 512" width="512" xmlns="http://www.w3.org/2000/svg"><g><g><path d="m376 176v-166h-240v166h-126v326h492v-326z" fill="#eefaff"/><path d="m436 396h66v106h-66z" fill="#8690a6"/><path d="m416 236v120h86c0-15.003 0-106.901 0-120z" fill="#91def5"/><path d="m316 76v36.76c0 37.753-24.158 71.299-60 83.24-35.83-11.94-60-45.47-60-83.24v-36.76l60-20z" fill="#a7e8a6"/><path d="m216 396h80v106h-80z" fill="#8690a6"/><path d="m176 236v120h160c0-12.697 0-107.529 0-120-4.514 0-155.488 0-160 0z" fill="#91def5"/><path d="m10 236v120h86c0-12.697 0-107.529 0-120z" fill="#91def5"/><path d="m10 396h66v106h-66z" fill="#8690a6"/></g><g><path d="m502 166h-116v-156c0-5.522-4.477-10-10-10h-75c-5.523 0-10 4.478-10 10s4.477 10 10 10h65v472h-60v-96c0-5.522-4.477-10-10-10h-80c-5.523 0-10 4.478-10 10v96h-60v-472h65c5.523 0 10-4.478 10-10s-4.477-10-10-10h-75c-5.523 0-10 4.478-10 10v156h-116c-5.523 0-10 4.478-10 10v326c0 5.522 4.477 10 10 10h492c5.523 0 10-4.478 10-10v-326c0-5.522-4.477-10-10-10zm-376 20v306h-40v-96c0-5.522-4.477-10-10-10h-56v-20h76c5.523 0 10-4.478 10-10v-120c0-5.522-4.477-10-10-10h-76v-40zm-40 120h-66v-20h66zm0 20v20h-66v-20zm0-60h-66v-20h66zm-66 140h46v86h-46zm406-120h66v20h-66zm0-20v-20h66v20zm0 60h66v20h-66zm66-140v40h-76c-5.523 0-10 4.478-10 10v120c0 5.522 4.477 10 10 10h76v20h-56c-5.523 0-10 4.478-10 10v96h-40v-306zm-266 220h60v86h-60zm220 86v-86h46v86z"/><path d="m319.162 66.513-60-20c-2.053-.684-4.271-.684-6.324 0l-60 20c-4.084 1.361-6.838 5.182-6.838 9.487v36.76c0 42.141 26.86 79.404 66.838 92.728 1.026.342 2.094.513 3.162.513 1.067 0 2.135-.171 3.161-.513 39.866-13.281 66.839-50.545 66.839-92.728v-36.76c0-4.305-2.754-8.126-6.838-9.487zm-13.162 46.247c0 32.391-20.03 61.209-49.999 72.625-30.044-11.459-50.001-40.231-50.001-72.625v-29.552l50-16.667 50 16.667z"/><path d="m238.071 108.929c-3.905-3.904-10.237-3.904-14.143 0-3.905 3.905-3.905 10.237 0 14.143l20 20c1.953 1.952 4.512 2.929 7.071 2.929s5.119-.977 7.071-2.929l30-30c3.905-3.905 3.905-10.237 0-14.143-3.905-3.904-10.237-3.904-14.143 0l-22.927 22.928z"/><path d="m176 226c-5.523 0-10 4.478-10 10v120c0 5.522 4.477 10 10 10h160c5.523 0 10-4.478 10-10v-120c0-5.522-4.477-10-10-10zm70 20v20h-60v-20zm80 60h-60v-20h60zm-80 0h-60v-20h60zm-60 20h60v20h-60zm80 20v-20h60v20zm60-80h-60v-20h60z"/><circle cx="256" cy="10" r="10"/></g></g></svg>