<svg id="Capa_1" enable-background="new 0 0 512 512" height="512" viewBox="0 0 512 512" width="512" xmlns="http://www.w3.org/2000/svg"><g><g><path d="m442 196c-11.05 0-20 8.95-20 20v40c0 11.04-8.95 20-20 20h-56.23c6.33-8.38 10.23-18.69 10.23-30 0-27.61-22.39-50-50-50-16.69 0-31.47 8.18-40.55 20.74l-.45 219.26h111v-90c0-10.78-2.64-20.88-6.99-30h32.99c33.14 0 60-26.86 60-60v-40c0-11.05-8.95-20-20-20z" fill="#bf978f"/><path d="m206 196c-27.61 0-50 22.39-50 50 0 11.31 3.9 21.62 10.23 30h-56.23c-11.05 0-20-8.96-20-20v-40c0-11.05-8.95-20-20-20s-20 8.95-20 20v40c0 33.14 26.86 60 60 60h32.99c-4.35 9.12-6.99 19.22-6.99 30v90h110l.55-219.26c-9.08-12.56-23.86-20.74-40.55-20.74z" fill="#ffda8f"/><path d="m382 96h120v60h-120z" fill="#eefaff"/><path d="m336 476h-160c0-9.679 0-70.257 0-80 0-31.52 18.39-58.51 44.87-71.55-15.01-10.91-24.87-28.48-24.87-48.45 0-33.036 26.761-60 60-60 33.253 0 60 26.97 60 60 0 19.97-9.86 37.54-24.87 48.45 26.48 13.04 44.87 40.03 44.87 71.55z" fill="#fce8d0"/><g fill="#eefaff"><path d="m336 36v80c-4.514 0-155.488 0-160 0v-80z"/><path d="m130 96v60c-14.518 0-105.386 0-120 0v-60z"/></g></g><g><path d="m502 86h-120c-5.522 0-10 4.478-10 10v60c0 5.522 4.478 10 10 10h50v21.72c-11.639 4.128-20 15.243-20 28.28v40c0 5.514-4.486 10-10 10h-39.508c2.315-6.392 3.508-13.126 3.508-20 0-33.084-26.916-60-60-60-14.858 0-29.094 5.589-40 15.326v-75.326h70c5.522 0 10-4.478 10-10v-80c0-5.522-4.478-10-10-10h-160c-5.523 0-10 4.478-10 10v80c0 5.522 4.477 10 10 10h70v75.326c-10.905-9.738-25.141-15.326-40-15.326-33.084 0-60 26.916-60 60 0 6.875 1.192 13.608 3.508 20h-39.508c-5.514 0-10-4.486-10-10v-40c0-13.036-8.361-24.152-20-28.28v-21.72h50c5.523 0 10-4.478 10-10v-60c0-5.522-4.477-10-10-10h-120c-5.523 0-10 4.478-10 10v60c0 5.522 4.477 10 10 10h50v21.72c-11.639 4.128-20 15.243-20 28.28v40c0 38.598 31.402 70 70 69.99h18.656c-1.763 6.579-2.656 13.267-2.656 20.01v90c0 5.522 4.477 10 10 10h30v30c0 5.522 4.477 10 10 10h35c5.523 0 10-4.478 10-10s-4.477-10-10-10h-25v-70c0-26.666 15.054-50.645 39.288-62.578 3.143-1.548 5.247-4.628 5.545-8.118.299-3.49-1.25-6.883-4.084-8.942-13.186-9.586-20.749-24.297-20.749-40.362 0-28.028 22.462-49.998 49.997-49.998 27.602 0 50.003 22.022 50.003 49.998 0 16.065-7.563 30.776-20.75 40.361-2.833 2.06-4.383 5.452-4.084 8.942.3 3.49 2.403 6.57 5.546 8.118 24.233 11.934 39.288 35.913 39.288 62.579v70h-25c-5.522 0-10 4.478-10 10s4.478 10 10 10h35c5.522 0 10-4.478 10-10v-30h30c5.522 0 10-4.478 10-10v-90c0-6.734-.89-13.422-2.656-20h18.656c38.598 0 70-31.402 70-70v-40c0-13.036-8.361-24.152-20-28.28v-21.72h50c5.522 0 10-4.478 10-10v-60c0-5.522-4.478-10-10-10zm-316-40h140v60h-140zm-166 60h100v40h-100zm166 170c0 17.333 6.601 34.012 18.129 46.772-23.818 16.714-38.129 43.679-38.129 73.228v30h-20v-80c0-8.681 2.024-17.325 6.016-25.695 1.478-3.098 1.263-6.737-.568-9.641-1.832-2.903-5.025-4.664-8.458-4.664h-32.99c-27.57 0-50-22.43-50-50v-40c0-5.514 4.486-10 10-10s10 4.486 10 10v40c0 16.542 13.458 30 30 30h56.23c3.794 0 7.261-2.146 8.952-5.543 1.69-3.396 1.314-7.457-.973-10.484-5.37-7.11-8.209-15.4-8.209-23.973 0-22.056 17.944-40 40-40 7.606 0 14.965 2.204 21.269 6.161-25.126 11.327-41.269 36.293-41.269 63.839zm266-20c0 27.57-22.43 50-50 50h-32.99c-7.342 0-12.19 7.674-9.025 14.306 3.991 8.368 6.015 17.012 6.015 25.694v80h-20v-30c0-29.549-14.311-56.514-38.129-73.228 11.528-12.761 18.129-29.44 18.129-46.772 0-27.562-16.156-52.517-41.268-63.839 6.304-3.957 13.663-6.161 21.268-6.161 22.056 0 40 17.944 40 40 0 8.573-2.839 16.862-8.21 23.973-4.964 6.573-.269 16.027 7.979 16.027h56.231c16.542 0 30-13.458 30-30v-40c0-5.514 4.486-10 10-10s10 4.486 10 10zm40-110h-100v-40h100z"/><circle cx="256" cy="476" r="10"/></g></g></svg>