<svg id="Capa_1" enable-background="new 0 0 512 512" height="512" viewBox="0 0 512 512" width="512" xmlns="http://www.w3.org/2000/svg"><g><g><path d="m50 256h286v80h-286z" fill="#8690a6"/><path d="m336 56v400h166v-400z" fill="#91def5"/><path d="m379 136h80v40h-80z" fill="#eefaff"/><path d="m130 96c66.153 0 120 53.606 120 120v20c0 11.05-8.95 20-20 20-8.903 0-169.641 0-200 0-11.05 0-20-8.95-20-20v-20c0-66.375 53.825-120 120-120z" fill="#ff7b79"/><g fill="#eefaff"><path d="m210 256c22.09 0 40 17.91 40 40s-17.91 40-40 40-40-17.91-40-40 17.91-40 40-40z"/><path d="m50 256c22.09 0 40 17.91 40 40s-17.91 40-40 40-40-17.91-40-40 17.91-40 40-40z"/></g></g><g><circle cx="459" cy="216" r="10"/><circle cx="419" cy="216" r="10"/><circle cx="379" cy="216" r="10"/><circle cx="210" cy="296" r="10"/><circle cx="50" cy="296" r="10"/><path d="m469 136c0-5.522-4.478-10-10-10h-80c-5.522 0-10 4.478-10 10v40c0 5.522 4.478 10 10 10h80c5.522 0 10-4.478 10-10zm-20 30h-60v-20h60z"/><circle cx="419" cy="456" r="10"/><path d="m502 46h-166c-5.522 0-10 4.478-10 10v60c0 16.542-13.458 30-30 30-5.522 0-10 4.478-10 10s4.478 10 10 10c11.247 0 21.637-3.735 30-10.027v90.027h-67.72c1.11-3.13 1.72-6.494 1.72-10v-20c0-52.615-31.871-99.954-80-120.008-.004-27.566-22.432-49.992-50-49.992s-49.995 22.425-50 49.992c-48.129 20.054-80 67.393-80 120.008v20c0 10.661 5.595 20.035 13.998 25.357-8.658 8.994-13.998 21.203-13.998 34.643 0 24.146 17.205 44.348 40 48.994v101.006h-10c-5.522 0-10 4.478-10 10s4.478 10 10 10h40c5.522 0 10-4.478 10-10s-4.478-10-10-10h-10v-100h140v100h-10c-5.522 0-10 4.478-10 10s4.478 10 10 10h40c5.522 0 10-4.478 10-10s-4.478-10-10-10h-10v-100h106v110c0 5.522 4.478 10 10 10h38c5.522 0 10-4.478 10-10s-4.478-10-10-10h-28v-380h146v380h-28c-5.522 0-10 4.478-10 10s4.478 10 10 10h38c5.522 0 10-4.478 10-10v-400c0-5.522-4.478-10-10-10zm-292 280c-16.542 0-30-13.458-30-30s13.458-30 30-30 30 13.458 30 30-13.458 30-30 30zm-39.973 0h-80.054c6.292-8.363 10.027-18.753 10.027-30s-3.735-21.637-10.027-30.01h80.054c-6.292 8.373-10.027 18.763-10.027 30.01s3.735 21.637 10.027 30zm-40.027-260c14.242 0 26.19 9.979 29.239 23.311-9.545-2.196-19.33-3.311-29.239-3.311-9.908 0-19.694 1.115-29.239 3.311 3.049-13.332 14.997-23.311 29.239-23.311zm-110 150c0-41.657 23.609-79.404 60-97.991v17.991c0 5.522 4.478 10 10 10s10-4.478 10-10v-25.835c9.721-2.751 19.778-4.165 30-4.165s20.279 1.415 30 4.166v25.834c0 5.522 4.478 10 10 10s10-4.478 10-10v-17.991c36.392 18.587 60 56.334 60 97.991v20c0 5.514-4.486 10-10 10h-200c-5.514 0-10-4.486-10-10zm0 80c0-16.542 13.458-30 30-30s30 13.458 30 30-13.458 30-30 30-30-13.458-30-30zm229.973 30c6.292-8.363 10.027-18.753 10.027-30s-3.735-21.637-10.027-30h76.027v60z"/></g></g></svg>