<svg id="Capa_1" enable-background="new 0 0 512 512" height="512" viewBox="0 0 512 512" width="512" xmlns="http://www.w3.org/2000/svg"><g><g><path d="m482 176c-11.05 0-20 8.95-20 20v-100c0-11.04-8.95-20-20-20s-20 8.96-20 20v-20c0-11.04-8.95-20-20-20s-20 8.96-20 20v20c0-11.04-8.95-20-20-20s-20 8.96-20 20v20c0-11.04-8.95-20-20-20s-20 8.96-20 20v137.64c0 14.93 3.92 29.47 10.25 43 6.02 12.85 9.75 26.65 9.75 40.83v164.53h140c0-16.956 0-139.807 0-159.19 0-8.64 2.79-17.04 7.96-23.95l24.08-32.21c5.17-6.91 7.96-15.31 7.96-23.95v-86.7z" fill="#bf978f"/><path d="m170 156v-106c0-11.04-8.95-20-20-20s-20 8.96-20 20v-20c0-11.04-8.95-20-20-20s-20 8.96-20 20v20c0-11.04-8.95-20-20-20s-20 8.96-20 20v20c0-11.04-8.95-20-20-20s-20 8.96-20 20v143.64c0 14.93 3.92 29.47 10.25 43 6.02 12.85 9.75 26.65 9.75 40.83v204.53h140c0-39.284 0-160.18 0-199.19 0-8.64 2.79-17.04 7.96-23.95l24.08-32.21c5.17-6.91 7.96-15.31 7.96-23.95v-86.7h-20c-11.05 0-20 8.95-20 20z" fill="#fce8d0"/></g><g><circle cx="302" cy="256" r="10"/><path d="m502 166h-20c-3.506 0-6.87.61-10 1.72v-71.72c0-16.542-13.458-30-30-30-3.904 0-7.633.758-11.057 2.121-3.47-12.731-15.128-22.121-28.943-22.121s-25.473 9.39-28.943 22.121c-3.424-1.363-7.153-2.121-11.057-2.121-13.815 0-25.473 9.39-28.943 22.121-3.424-1.363-7.153-2.121-11.057-2.121-16.542 0-30 13.458-30 30v95c0 5.522 4.477 10 10 10s10-4.478 10-10v-95c0-5.514 4.486-10 10-10s10 4.486 10 10v80c0 5.522 4.477 10 10 10s10-4.478 10-10v-100c0-5.514 4.486-10 10-10s10 4.486 10 10v100c0 5.522 4.477 10 10 10s10-4.478 10-10v-120c0-5.514 4.486-10 10-10s10 4.486 10 10v120c0 5.522 4.477 10 10 10s10-4.478 10-10v-100c0-5.514 4.486-10 10-10s10 4.486 10 10v140c0 5.514-4.486 10-10 10h-10c-22.056 0-40 17.944-40 40 0 5.522 4.477 10 10 10s10-4.478 10-10c0-11.028 8.972-20 20-20h10c16.542 0 30-13.458 30-30 0-13.99 0-26.01 0-40 0-5.514 4.486-10 10-10h10v76.7c0 6.438-2.119 12.816-5.969 17.963l-24.078 32.206c-6.418 8.578-9.953 19.211-9.953 29.94v3.191h-45.857l-17.071-17.071c-3.905-3.904-10.237-3.904-14.143 0-3.905 3.905-3.905 10.237 0 14.143l2.929 2.929h-45.858v-8.53c0-13.74-3.126-27.862-9.292-41.975-2.211-5.062-8.106-7.368-13.167-5.159-5.061 2.211-7.371 8.105-5.16 13.167 5.056 11.571 7.619 22.999 7.619 33.967v8.529h-51.858l2.929-2.929c3.905-3.905 3.905-10.237 0-14.143-3.905-3.904-10.237-3.904-14.143 0l-17.071 17.072h-51.857v-43.19c0-6.438 2.119-12.816 5.969-17.962l24.078-32.207c6.418-8.578 9.953-19.212 9.953-29.94v-86.701c0-5.522-4.477-10-10-10h-20c-3.506 0-6.87.61-10 1.72v-77.72c0-16.542-13.458-30-30-30-3.904 0-7.633.758-11.057 2.121-3.47-12.731-15.128-22.121-28.943-22.121s-25.473 9.39-28.943 22.121c-3.424-1.363-7.153-2.121-11.057-2.121-13.815 0-25.473 9.39-28.943 22.121-3.424-1.363-7.153-2.121-11.057-2.121-16.542 0-30 13.458-30 30v143.64c0 15.472 3.766 31.364 11.194 47.242 5.843 12.472 8.806 24.782 8.806 36.588v48.53h-10c-5.523 0-10 4.478-10 10s4.477 10 10 10h10v60h-10c-5.523 0-10 4.478-10 10s4.477 10 10 10h10v56c0 5.522 4.477 10 10 10h140c5.523 0 10-4.478 10-10v-56h71.858l-2.929 2.929c-3.905 3.905-3.905 10.237 0 14.143 3.906 3.905 10.237 3.905 14.143 0l17.071-17.072h31.857v56c0 5.522 4.477 10 10 10h140c5.523 0 10-4.478 10-10v-56h30c5.523 0 10-4.478 10-10s-4.477-10-10-10h-30v-60h30c5.523 0 10-4.478 10-10s-4.477-10-10-10h-30v-3.19c0-6.438 2.119-12.816 5.969-17.962l24.078-32.207c6.418-8.578 9.953-19.212 9.953-29.94v-86.701c0-5.522-4.477-10-10-10zm-472.692 86.401c-6.177-13.2-9.308-26.241-9.308-38.761v-143.64c0-5.514 4.486-10 10-10s10 4.486 10 10v86c0 5.522 4.477 10 10 10s10-4.478 10-10v-106c0-5.514 4.486-10 10-10s10 4.486 10 10v106c0 5.522 4.477 10 10 10s10-4.478 10-10v-126c0-5.514 4.486-10 10-10s10 4.486 10 10v126c0 5.522 4.477 10 10 10s10-4.478 10-10v-106c0-5.514 4.486-10 10-10s10 4.486 10 10v146c0 5.514-4.486 10-10 10h-10c-22.056 0-40 17.944-40 40 0 5.522 4.477 10 10 10s10-4.478 10-10c0-11.028 8.972-20 20-20h10c16.542 0 30-13.458 30-30 0-13.99 0-26.01 0-40 0-5.514 4.486-10 10-10h10v76.7c0 6.438-2.119 12.816-5.969 17.963l-24.078 32.206c-6.418 8.578-9.953 19.211-9.953 29.94v43.191h-45.858l2.929-2.929c3.905-3.905 3.905-10.237 0-14.143-3.905-3.904-10.237-3.904-14.143 0l-17.071 17.072h-45.857v-48.53c0-14.76-3.598-29.924-10.692-45.069zm10.692 113.599h45.857l17.071 17.071c3.906 3.905 10.237 3.905 14.143 0 3.905-3.905 3.905-10.237 0-14.143l-2.929-2.928h45.858v60h-45.857l-17.071-17.071c-3.905-3.904-10.237-3.904-14.143 0-3.905 3.905-3.905 10.237 0 14.143l2.929 2.928h-45.858zm120 126h-120v-46h45.858l-2.929 2.929c-3.905 3.905-3.905 10.237 0 14.143 3.906 3.905 10.237 3.905 14.143 0l17.071-17.072h45.857zm120.143-66-17.071-17.071c-3.905-3.904-10.237-3.904-14.143 0-3.905 3.905-3.905 10.237 0 14.143l2.929 2.929h-71.858v-60h51.857l17.071 17.071c3.906 3.905 10.237 3.905 14.143 0 3.905-3.905 3.905-10.237 0-14.143l-2.929-2.929h51.858v60zm171.857 66h-120v-46h45.857l17.071 17.071c3.906 3.905 10.237 3.905 14.143 0 3.905-3.905 3.905-10.237 0-14.143l-2.929-2.928h45.858zm0-66h-45.858l2.929-2.929c3.905-3.905 3.905-10.237 0-14.143-3.905-3.904-10.237-3.904-14.143 0l-17.071 17.072h-45.857v-60h45.858l-2.929 2.929c-3.905 3.905-3.905 10.237 0 14.143 3.906 3.905 10.237 3.905 14.143 0l17.071-17.072h45.857z"/></g></g></svg>