<svg id="Capa_1" enable-background="new 0 0 512 512" height="512" viewBox="0 0 512 512" width="512" xmlns="http://www.w3.org/2000/svg"><g><g><g fill="#eefaff"><path d="m442 108.973-146 20v-60h146z"/><path d="m442 301.973-20 40-126 20v-60z"/><path d="m356 441.973v60c-66.27 0-120-53.73-120-120h60c0 33.14 26.86 60 60 60z"/><path d="m313.89 225.753 2.11 4.22h-60l-2.11-4.22c-11.77-23.53-17.89-50.47-17.89-76.78h60c0 26.31 6.12 53.25 17.89 76.78z"/></g><path d="m296 381.973c-50.396 0-109.594 0-160 0 0-17.595 0-33.269 0-60 0-11.05 8.95-20 20-20h140z" fill="#a7e8a6"/><path d="m296 148.973c-16.45 0-143.054 0-160 0 0-17.595 0-33.269 0-60 0-11.05 8.95-20 20-20h140z" fill="#a7e8a6"/><path d="m296 44.323v24.65h-140v-38.94c0-12.17 10.78-21.52 22.83-19.8l100 14.29c9.85 1.4 17.17 9.84 17.17 19.8z" fill="#8690a6"/><path d="m176 148.973-20 81h-14.38c-13.02 0-22.56-12.23-19.41-24.85l13.79-56.15z" fill="#eefaff"/><path d="m176 381.973-20 80h-14.38c-13.02 0-22.56-12.23-19.41-24.85l13.79-55.15z" fill="#eefaff"/><path d="m136 381.973-103.52 17.19c-11.94 1.49-22.48-7.82-22.48-19.85v-37.34c0-11.05 8.95-20 20-20h106z" fill="#8690a6"/><path d="m136 148.973-103.52 17.19c-11.94 1.49-22.48-7.82-22.48-19.85v-37.34c0-11.05 8.95-20 20-20h106z" fill="#8690a6"/></g><g><path d="m216 351.973c5.523 0 10-4.478 10-10s-4.477-10-10-10h-40c-5.523 0-10 4.478-10 10s4.477 10 10 10z"/><path d="m502 271.973c-5.522 0-10 4.478-10 10v10c-12.692 0-318.627 0-336 0-13.038 0-24.159 8.359-28.287 20h-97.713c-16.542 0-30 13.458-30 30v37.34c0 18.009 15.793 32.008 33.718 29.773.134-.017.267-.036.4-.058l88.483-14.694-10.093 40.366c-4.724 18.925 9.575 37.271 29.112 37.271h14.38c4.589 0 8.588-3.123 9.702-7.574l11.244-44.976c7.297 7.719 17.619 12.551 29.054 12.551 10.056 0 19.257-3.729 26.292-9.879 2.054 6.315 4.606 12.493 7.655 18.515 2.491 4.921 8.506 6.903 13.438 4.405 4.927-2.494 6.899-8.511 4.405-13.438-6.317-12.479-10.116-25.762-11.347-39.603h40.274c4.398 30.611 28.671 54.89 59.282 59.288v40.265c-9.502-.854-18.8-2.929-27.75-6.199-5.19-1.899-10.931.773-12.825 5.96-1.896 5.188.773 10.93 5.96 12.825 14.275 5.217 29.286 7.861 44.615 7.861 5.522 0 10-4.478 10-10v-60c0-5.522-4.478-10-10-10-27.57 0-50-22.43-50-50v-11.462l117.567-18.662c3.188-.506 5.934-2.518 7.377-5.404l17.236-34.472h53.821c5.522 0 10-4.478 10-10v-20c0-5.521-4.478-9.999-10-9.999zm-356 50c0-5.514 4.486-10 10-10h130v60h-140zm-114.926 67.287c-5.879.628-11.074-3.941-11.074-9.947v-37.34c0-5.514 4.486-10 10-10h96v41.523zm117.118 62.713h-6.572c-6.526 0-11.28-6.127-9.709-12.424l11.896-47.576h19.385zm57.808-40c-11.028 0-20-8.972-20-20.01h40c0 11.039-8.972 20.01-20 20.01zm209.354-79.07-109.354 17.358v-38.288h119.82z"/><path d="m502 58.973c-5.522 0-10 4.478-10 10v10h-40v-10c0-5.522-4.478-10-10-10h-136v-14.65c0-14.844-11.075-27.612-25.755-29.699l-100.002-14.29c-18.062-2.583-34.243 11.453-34.243 29.699v30.674c-8.508 3.019-15.27 9.758-18.287 18.266h-97.713c-16.542 0-30 13.458-30 30v37.34c0 18.009 15.793 32.008 33.718 29.773.134-.017.267-.036.4-.058l88.552-14.705-10.162 41.378c-4.724 18.925 9.575 37.271 29.112 37.271h14.38c4.6 0 8.606-3.138 9.708-7.603l11.323-45.858c7.292 7.667 17.578 12.461 28.969 12.461 9.319 0 17.897-3.212 24.705-8.576 3.188 13.864 7.961 27.273 14.241 39.829l2.11 4.22c1.694 3.388 5.157 5.527 8.944 5.527h60c3.466 0 6.685-1.795 8.507-4.743s1.987-6.63.438-9.729l-2.111-4.221c-10.855-21.701-16.834-47.38-16.834-72.306v-11.277l137.357-18.816c4.952-.678 8.643-4.909 8.643-9.907v-10h50c5.522 0 10-4.478 10-10v-20c0-5.522-4.478-10-10-10zm-324.584-38.84 100.007 14.291c4.89.695 8.577 4.951 8.577 9.899v14.65h-120v-28.94c0-6.119 5.41-10.766 11.416-9.9zm-21.416 58.84h130v60h-140v-50c0-5.513 4.486-10 10-10zm-124.926 77.288c-5.879.627-11.074-3.942-11.074-9.948v-37.34c0-5.514 4.486-10 10-10h96v41.523zm117.095 63.712h-6.549c-6.472 0-11.297-6.059-9.699-12.465l11.92-48.535h19.389zm57.831-41c-11.028 0-20-8.972-20-20.01h40c0 11.039-8.972 20.01-20 20.01zm56.187 41c-9.024-18.507-14.528-39.798-15.862-61h39.953c1.144 21.11 5.887 41.866 13.949 61zm169.813-119.723-126 17.261v-38.538h126z"/><path d="m176 118.973h40c5.523 0 10-4.478 10-10s-4.477-10-10-10h-40c-5.523 0-10 4.478-10 10s4.477 10 10 10z"/><circle cx="276" cy="471.973" r="10"/></g></g></svg>